<svg xmlns="http://www.w3.org/2000/svg" fill="none" viewBox="0 0 12 12">
  <path fill="#F6821F" fill-rule="evenodd" d="M6.04 1.125h-.037a4.875 4.875 0 1 0 .16 9.747 4.875 4.875 0 0 0-.122-9.747M4.259 2.262a4.125 4.125 0 0 0-2.364 3.363h1.463a9.62 9.62 0 0 1 .047-.658l.75.045a8.628 8.628 0 0 0-.046.613h1.516V1.972c-.334.152-.651.484-.918 1.015-.018.034-.035.07-.052.106l-.726-.215a4.12 4.12 0 0 1 .33-.616m1.366 4.113H4.11c.042 1.047.26 1.969.598 2.638.267.53.584.863.918 1.015V6.375ZM4.26 9.738a4.125 4.125 0 0 1-.222-.387c-.4-.794-.636-1.837-.679-2.976H1.895a4.125 4.125 0 0 0 2.364 3.363Zm3.666-.088a4.125 4.125 0 0 0 2.186-3.275H8.77c-.008.225-.025.45-.049.673l-.75-.045a7.84 7.84 0 0 0 .048-.628H6.375v3.702c.381-.12.745-.466 1.046-1.064l.047-.097.727.215a4.314 4.314 0 0 1-.27.519Zm.094-4.025H6.375V1.923c.381.12.745.466 1.046 1.064.337.67.556 1.591.598 2.638Zm.751 0c-.043-1.14-.28-2.182-.679-2.976a4.128 4.128 0 0 0-.166-.299 4.125 4.125 0 0 1 2.186 3.275H8.77Z" clip-rule="evenodd"/>
</svg>
