<svg xmlns="http://www.w3.org/2000/svg" fill="none" viewBox="0 0 13 12">
  <path fill="#F6821E" d="m4.451 4.163.568.328v.656l-.568.328-.568-.328V4.49l.568-.328Zm-.663 5.025.663-.664.664.664-.664.663-.663-.663ZM4.45 6.43a.553.553 0 0 1 .52.348.562.562 0 1 1-.521-.346l.001-.002ZM1.958 2.1l1.203-.917.227-.07h5.438l.223.074 1.24.917.153.302V9.53l-.103.258-.906.959-.274.118H3.216l-.257-.102-1.028-.958-.12-.275V2.406l.147-.306Zm.601 4.763.839.926h.01v.75h-.343l-.506-.563v1.386l.798.75h5.625l.694-.733V7.93l-.688.608H5.501v-.75h3.225l.973-.865V5.53l-.688.61H5.504v-.75H8.73l.973-.863V3.23l-.688.611H3.09l-.513-.525v1.148l.838.926h.01v.75h-.343l-.506-.563-.016 1.287Zm6.132-5.007H3.516l-.763.583.637.653h5.325l.75-.668-.774-.568Z"/>
</svg>
