<svg xmlns="http://www.w3.org/2000/svg" fill="none" viewBox="0 0 12 12">
  <path fill="#F6821F" d="M4.125 8.428H2.812v-.75h1.313v.75Zm-1.313-1.5h1.313v-.75H2.812v.75Zm1.313-1.5H2.812v-.75h1.313v.75Zm.75 3h4.313v-.75H4.875v.75Zm4.313-1.5H4.875v-.75h4.313v.75Zm-4.313-1.5h4.313v-.75H4.875v.75Z"/>
  <path fill="#F6821F" fill-rule="evenodd" d="m1.125 2.25.375-.375h3.563l.314.17.639.98H10.5l.375.375v6.35l-.375.375h-9l-.375-.375v-7.5Zm.75.375v6.75h8.25v-5.6H5.812l-.314-.17-.639-.98H1.875Z" clip-rule="evenodd"/>
</svg>
