<svg xmlns="http://www.w3.org/2000/svg" fill="none" viewBox="0 0 12 12">
  <path fill="#F6821F" fill-rule="evenodd" d="M1.847 9.243v-7.8h.75v1.32h.74l.374-.375h.375l.375.375h.699l.375-.375h.375l.375.375h3.08v-1.32h.75v7.8h.379v.718h.38v.75H1.126v-.75h.344v-.718h.377Zm1.49-5.729.374.375h.375l.375-.375h.699l.375.375h.375l.374-.375h3.082v1.517h-.963l-.375-.375h-.375l-.375.375H4.461l-.375-.375h-.375l-.375.375h-.74V3.514h.74Zm0 2.268h-.74v1.483H5.44l.375-.375h.375l.374.375h.714l.375-.375h.375l.374.375h.963V5.783h-.963l-.375.374h-.375l-.375-.375H4.461l-.375.375h-.375l-.375-.375ZM5.44 8.016l.375.375h.375l.375-.375h.713l.375.375h.375l.374-.375h.963v1.227h-6.77V8.016H5.44Z" clip-rule="evenodd"/>
</svg>
