<svg width="581" height="317" viewBox="0 0 581 317" fill="none" xmlns="http://www.w3.org/2000/svg">
<g clip-path="url(#clip0_224_121)">
<rect width="581" height="317" fill="#020420"/>
<mask id="mask0_224_121" style="mask-type:luminance" maskUnits="userSpaceOnUse" x="0" y="0" width="581" height="317">
<path d="M573 0H8C3.58172 0 0 3.58172 0 8V309C0 313.418 3.58172 317 8 317H573C577.418 317 581 313.418 581 309V8C581 3.58172 577.418 0 573 0Z" fill="white"/>
</mask>
<g mask="url(#mask0_224_121)">
<path d="M445 206.796H535.006M422 221.796H539M442 236.296H485.5" stroke="#334155"/>
<path d="M335.628 40.7609H330.697C330.017 40.7609 329.465 41.3127 329.465 41.9934V46.9236C329.465 47.6043 330.017 48.1561 330.697 48.1561H335.628C336.308 48.1561 336.86 47.6043 336.86 46.9236V41.9934C336.86 41.3127 336.308 40.7609 335.628 40.7609Z" fill="#475569"/>
<path d="M363.628 40.7609H358.697C358.017 40.7609 357.465 41.3127 357.465 41.9934V46.9236C357.465 47.6043 358.017 48.1561 358.697 48.1561H363.628C364.308 48.1561 364.86 47.6043 364.86 46.9236V41.9934C364.86 41.3127 364.308 40.7609 363.628 40.7609Z" fill="#475569"/>
<path d="M347.336 40.7609H342.406C341.726 40.7609 341.174 41.3127 341.174 41.9934V46.9236C341.174 47.6043 341.726 48.1561 342.406 48.1561H347.336C348.017 48.1561 348.569 47.6043 348.569 46.9236V41.9934C348.569 41.3127 348.017 40.7609 347.336 40.7609Z" fill="#475569"/>
<path d="M560.163 16.2958H555.233C554.552 16.2958 554 16.8476 554 17.5283V22.4585C554 23.1392 554.552 23.691 555.233 23.691H560.163C560.843 23.691 561.395 23.1392 561.395 22.4585V17.5283C561.395 16.8476 560.843 16.2958 560.163 16.2958Z" fill="#475569"/>
<path d="M375.336 40.7609H370.406C369.726 40.7609 369.174 41.3127 369.174 41.9934V46.9236C369.174 47.6043 369.726 48.1561 370.406 48.1561H375.336C376.017 48.1561 376.569 47.6043 376.569 46.9236V41.9934C376.569 41.3127 376.017 40.7609 375.336 40.7609Z" fill="#475569"/>
<path fill-rule="evenodd" clip-rule="evenodd" d="M351.035 48.1561V40.7608C351.035 39.3994 349.931 38.2958 348.569 38.2958H329.465C328.104 38.2958 327 39.3994 327 40.7609V48.1561C327 49.5175 328.104 50.6212 329.465 50.6212H339.325L348.569 50.6211C349.931 50.6211 351.035 49.5175 351.035 48.1561ZM339.325 50.0049V38.912H348.569C349.591 38.912 350.418 39.7398 350.418 40.7609V48.1561C350.418 49.1771 349.591 50.0049 348.569 50.0049H339.325ZM329.465 38.9121H338.709V50.0049H329.465C328.444 50.0049 327.616 49.1772 327.616 48.1561V40.7609C327.616 39.7398 328.444 38.9121 329.465 38.9121ZM379.035 48.1561V40.7608C379.035 39.3994 377.931 38.2958 376.569 38.2958H357.465C356.104 38.2958 355 39.3994 355 40.7609V48.1561C355 49.5175 356.104 50.6212 357.465 50.6212H367.325L376.569 50.6211C377.931 50.6211 379.035 49.5175 379.035 48.1561ZM367.325 50.0049V38.912H376.569C377.591 38.912 378.418 39.7398 378.418 40.7609V48.1561C378.418 49.1771 377.591 50.0049 376.569 50.0049H367.325ZM357.465 38.9121H366.709V50.0049H357.465C356.444 50.0049 355.616 49.1772 355.616 48.1561V40.7609C355.616 39.7398 356.444 38.9121 357.465 38.9121Z" fill="#E2E8F0" fill-opacity="0.08"/>
<path d="M393 8V281.296" stroke="url(#paint0_linear_224_121)" stroke-opacity="0.08" stroke-width="0.616269"/>
<path d="M14.1016 21.6204V16.6084H15.956C16.3045 16.6084 16.5956 16.6656 16.8295 16.7802C17.0634 16.89 17.2377 17.0427 17.3522 17.2384C17.4716 17.4294 17.5312 17.6466 17.5312 17.89C17.5312 18.143 17.4763 18.3554 17.3665 18.5272C17.2568 18.6991 17.1112 18.8327 16.9298 18.9282C16.7532 19.0189 16.5622 19.0714 16.357 19.0857L16.4572 19.0141C16.6768 19.0189 16.8773 19.0786 17.0587 19.1931C17.24 19.3029 17.3832 19.4509 17.4883 19.637C17.5933 19.8232 17.6458 20.0285 17.6458 20.2528C17.6458 20.5106 17.5837 20.7445 17.4596 20.9545C17.3355 21.1597 17.1517 21.322 16.9083 21.4414C16.6649 21.5607 16.3665 21.6204 16.0133 21.6204H14.1016ZM14.8176 21.0261H15.9202C16.2353 21.0261 16.4787 20.9545 16.6505 20.8113C16.8272 20.6633 16.9155 20.4557 16.9155 20.1884C16.9155 19.9258 16.8248 19.7158 16.6434 19.5583C16.4668 19.4008 16.2209 19.322 15.9059 19.322H14.8176V21.0261ZM14.8176 18.7707H15.8773C16.178 18.7707 16.4071 18.7015 16.5646 18.563C16.7221 18.4198 16.8009 18.2241 16.8009 17.9759C16.8009 17.7373 16.7221 17.5487 16.5646 17.4103C16.4071 17.2671 16.1708 17.1955 15.8558 17.1955H14.8176V18.7707ZM18.4639 21.6204V16.4652H19.1799V21.6204H18.4639ZM21.8098 21.7063C21.4709 21.7063 21.1654 21.6275 20.8933 21.47C20.626 21.3125 20.4136 21.0929 20.256 20.8113C20.1033 20.5249 20.0269 20.1955 20.0269 19.8232C20.0269 19.4413 20.1057 19.1096 20.2632 18.828C20.4207 18.5416 20.6355 18.3196 20.9076 18.1621C21.1797 18.0046 21.4852 17.9258 21.8241 17.9258C22.1678 17.9258 22.4733 18.0046 22.7406 18.1621C23.0079 18.3196 23.2179 18.5392 23.3706 18.8208C23.5282 19.1024 23.6069 19.4342 23.6069 19.816C23.6069 20.1979 23.5282 20.5297 23.3706 20.8113C23.2179 21.0929 23.0055 21.3125 22.7334 21.47C22.4613 21.6275 22.1534 21.7063 21.8098 21.7063ZM21.8098 21.0905C22.0055 21.0905 22.1821 21.0428 22.3396 20.9473C22.5019 20.8519 22.6308 20.711 22.7262 20.5249C22.8265 20.3339 22.8766 20.0977 22.8766 19.816C22.8766 19.5344 22.8289 19.3005 22.7334 19.1144C22.6379 18.9234 22.5091 18.7802 22.3468 18.6848C22.1892 18.5893 22.015 18.5416 21.8241 18.5416C21.6332 18.5416 21.4565 18.5893 21.2942 18.6848C21.132 18.7802 21.0007 18.9234 20.9004 19.1144C20.805 19.3005 20.7572 19.5344 20.7572 19.816C20.7572 20.0977 20.805 20.3339 20.9004 20.5249C21.0007 20.711 21.1296 20.8519 21.2871 20.9473C21.4494 21.0428 21.6236 21.0905 21.8098 21.0905ZM26.4182 21.7063C26.2225 21.7063 26.0435 21.6776 25.8812 21.6204C25.7237 21.5679 25.5852 21.4939 25.4659 21.3984C25.3466 21.3029 25.2463 21.1931 25.1652 21.069L25.0936 21.6204H24.4492V16.4652H25.1652V18.5774C25.2797 18.396 25.4396 18.2432 25.6449 18.1191C25.8549 17.9902 26.1127 17.9258 26.4182 17.9258C26.7619 17.9258 27.065 18.0093 27.3275 18.1764C27.59 18.3387 27.7929 18.563 27.9361 18.8494C28.0841 19.1311 28.1581 19.4557 28.1581 19.8232C28.1581 20.1812 28.0841 20.5034 27.9361 20.7898C27.7929 21.0762 27.59 21.3005 27.3275 21.4628C27.065 21.6251 26.7619 21.7063 26.4182 21.7063ZM26.3036 21.0834C26.5232 21.0834 26.7165 21.0309 26.8836 20.9258C27.0554 20.8208 27.1891 20.6729 27.2845 20.4819C27.3848 20.291 27.4349 20.069 27.4349 19.816C27.4349 19.5631 27.3848 19.3435 27.2845 19.1573C27.1891 18.9664 27.0554 18.8184 26.8836 18.7134C26.7165 18.6036 26.5232 18.5487 26.3036 18.5487C26.0793 18.5487 25.8812 18.6036 25.7093 18.7134C25.5423 18.8184 25.411 18.9664 25.3155 19.1573C25.2201 19.3435 25.1723 19.5631 25.1723 19.816C25.1723 20.069 25.2201 20.291 25.3155 20.4819C25.411 20.6729 25.5423 20.8208 25.7093 20.9258C25.8812 21.0309 26.0793 21.0834 26.3036 21.0834Z" fill="white"/>
<path d="M14.377 46.2958V42.6838H15.5999C15.8854 42.6838 16.1193 42.7319 16.3017 42.8283C16.484 42.9246 16.6181 43.0536 16.7041 43.2153C16.7936 43.3735 16.8383 43.5541 16.8383 43.7571C16.8383 43.9497 16.7936 44.1286 16.7041 44.2937C16.6181 44.4554 16.4823 44.5861 16.2965 44.6859C16.1107 44.7822 15.8734 44.8303 15.5844 44.8303H14.893V46.2958H14.377ZM16.2759 46.2958L15.4967 44.691H16.0643L16.8744 46.2958H16.2759ZM14.893 44.4382H15.5638C15.8183 44.4382 16.0058 44.3763 16.1262 44.2524C16.2466 44.1251 16.3068 43.9635 16.3068 43.7674C16.3068 43.5679 16.2483 43.4096 16.1314 43.2927C16.0144 43.1757 15.8252 43.1172 15.5638 43.1172H14.893V44.4382ZM18.511 46.3577C18.2668 46.3577 18.0466 46.3009 17.8505 46.1874C17.6579 46.0739 17.5048 45.9157 17.3913 45.7127C17.2812 45.5063 17.2262 45.2689 17.2262 45.0006C17.2262 44.7254 17.2829 44.4863 17.3965 44.2834C17.51 44.077 17.6648 43.917 17.8609 43.8035C18.0569 43.69 18.2771 43.6332 18.5213 43.6332C18.769 43.6332 18.9892 43.69 19.1818 43.8035C19.3745 43.917 19.5258 44.0753 19.6359 44.2782C19.7494 44.4812 19.8062 44.7203 19.8062 44.9955C19.8062 45.2707 19.7494 45.5097 19.6359 45.7127C19.5258 45.9157 19.3727 46.0739 19.1767 46.1874C18.9806 46.3009 18.7587 46.3577 18.511 46.3577ZM18.511 45.9139C18.6521 45.9139 18.7793 45.8795 18.8929 45.8107C19.0098 45.7419 19.1027 45.6405 19.1715 45.5063C19.2437 45.3687 19.2799 45.1984 19.2799 44.9955C19.2799 44.7925 19.2455 44.6239 19.1767 44.4898C19.1079 44.3522 19.015 44.249 18.898 44.1802C18.7845 44.1114 18.6589 44.077 18.5213 44.077C18.3837 44.077 18.2565 44.1114 18.1395 44.1802C18.0225 44.249 17.9279 44.3522 17.8557 44.4898C17.7869 44.6239 17.7525 44.7925 17.7525 44.9955C17.7525 45.1984 17.7869 45.3687 17.8557 45.5063C17.9279 45.6405 18.0208 45.7419 18.1343 45.8107C18.2513 45.8795 18.3769 45.9139 18.511 45.9139ZM21.6 46.3577C21.3557 46.3577 21.1356 46.3009 20.9395 46.1874C20.7469 46.0739 20.5938 45.9157 20.4803 45.7127C20.3702 45.5063 20.3151 45.2689 20.3151 45.0006C20.3151 44.7254 20.3719 44.4863 20.4854 44.2834C20.5989 44.077 20.7537 43.917 20.9498 43.8035C21.1459 43.69 21.3661 43.6332 21.6103 43.6332C21.858 43.6332 22.0781 43.69 22.2708 43.8035C22.4634 43.917 22.6148 44.0753 22.7249 44.2782C22.8384 44.4812 22.8951 44.7203 22.8951 44.9955C22.8951 45.2707 22.8384 45.5097 22.7249 45.7127C22.6148 45.9157 22.4617 46.0739 22.2656 46.1874C22.0695 46.3009 21.8477 46.3577 21.6 46.3577ZM21.6 45.9139C21.741 45.9139 21.8683 45.8795 21.9818 45.8107C22.0988 45.7419 22.1917 45.6405 22.2605 45.5063C22.3327 45.3687 22.3688 45.1984 22.3688 44.9955C22.3688 44.7925 22.3344 44.6239 22.2656 44.4898C22.1968 44.3522 22.1039 44.249 21.987 44.1802C21.8735 44.1114 21.7479 44.077 21.6103 44.077C21.4727 44.077 21.3454 44.1114 21.2285 44.1802C21.1115 44.249 21.0169 44.3522 20.9447 44.4898C20.8759 44.6239 20.8415 44.7925 20.8415 44.9955C20.8415 45.1984 20.8759 45.3687 20.9447 45.5063C21.0169 45.6405 21.1098 45.7419 21.2233 45.8107C21.3403 45.8795 21.4658 45.9139 21.6 45.9139ZM24.4746 46.2958C24.3095 46.2958 24.1667 46.27 24.0463 46.2184C23.9259 46.1668 23.8331 46.0808 23.7677 45.9604C23.7023 45.84 23.6697 45.6766 23.6697 45.4702V44.1337H23.2207V43.6951H23.6697L23.7316 43.045H24.1857V43.6951H24.9235V44.1337H24.1857V45.4753C24.1857 45.6233 24.2166 45.7247 24.2785 45.7798C24.3405 45.8314 24.4471 45.8572 24.5985 45.8572H24.8977V46.2958H24.4746Z" fill="#00DC82"/>
<path d="M409.961 208.358C409.606 208.358 409.3 208.28 409.042 208.125C408.788 207.967 408.59 207.749 408.449 207.47C408.311 207.188 408.243 206.861 408.243 206.49C408.243 206.122 408.311 205.797 408.449 205.515C408.59 205.232 408.788 205.014 409.042 204.859C409.3 204.701 409.606 204.622 409.961 204.622C410.384 204.622 410.726 204.723 410.988 204.926C411.253 205.129 411.421 205.415 411.493 205.783H410.926C410.874 205.57 410.767 205.399 410.606 205.272C410.448 205.145 410.233 205.081 409.961 205.081C409.717 205.081 409.505 205.138 409.326 205.251C409.147 205.365 409.01 205.527 408.913 205.736C408.817 205.946 408.769 206.197 408.769 206.49C408.769 206.782 408.817 207.035 408.913 207.248C409.01 207.458 409.147 207.62 409.326 207.733C409.505 207.843 409.717 207.898 409.961 207.898C410.233 207.898 410.448 207.838 410.606 207.718C410.767 207.594 410.874 207.427 410.926 207.217H411.493C411.421 207.575 411.253 207.855 410.988 208.058C410.726 208.258 410.384 208.358 409.961 208.358ZM413.272 208.358C413.027 208.358 412.807 208.301 412.611 208.187C412.419 208.074 412.265 207.916 412.152 207.713C412.042 207.506 411.987 207.269 411.987 207.001C411.987 206.725 412.044 206.486 412.157 206.283C412.271 206.077 412.425 205.917 412.621 205.803C412.818 205.69 413.038 205.633 413.282 205.633C413.53 205.633 413.75 205.69 413.942 205.803C414.135 205.917 414.286 206.075 414.397 206.278C414.51 206.481 414.567 206.72 414.567 206.995C414.567 207.271 414.51 207.51 414.397 207.713C414.286 207.916 414.133 208.074 413.937 208.187C413.741 208.301 413.519 208.358 413.272 208.358ZM413.272 207.914C413.413 207.914 413.54 207.88 413.653 207.811C413.77 207.742 413.863 207.64 413.932 207.506C414.004 207.369 414.04 207.198 414.04 206.995C414.04 206.792 414.006 206.624 413.937 206.49C413.868 206.352 413.776 206.249 413.659 206.18C413.545 206.111 413.42 206.077 413.282 206.077C413.144 206.077 413.017 206.111 412.9 206.18C412.783 206.249 412.689 206.352 412.616 206.49C412.548 206.624 412.513 206.792 412.513 206.995C412.513 207.198 412.548 207.369 412.616 207.506C412.689 207.64 412.781 207.742 412.895 207.811C413.012 207.88 413.137 207.914 413.272 207.914ZM415.174 208.296V205.695H415.638L415.669 206.139C415.752 205.984 415.869 205.862 416.02 205.773C416.171 205.68 416.345 205.633 416.541 205.633C416.748 205.633 416.925 205.674 417.073 205.757C417.221 205.84 417.336 205.965 417.418 206.134C417.501 206.299 417.542 206.507 417.542 206.758V208.296H417.026V206.81C417.026 206.569 416.973 206.387 416.866 206.263C416.76 206.139 416.605 206.077 416.402 206.077C416.268 206.077 416.147 206.11 416.041 206.175C415.934 206.237 415.848 206.33 415.783 206.454C415.721 206.577 415.69 206.729 415.69 206.908V208.296H415.174ZM419.276 208.296C419.11 208.296 418.968 208.27 418.847 208.218C418.727 208.167 418.634 208.081 418.569 207.96C418.503 207.84 418.471 207.677 418.471 207.47V206.134H418.022V205.695H418.471L418.532 205.045H418.987V205.695H419.724V206.134H418.987V207.475C418.987 207.623 419.018 207.725 419.079 207.78C419.141 207.831 419.248 207.857 419.399 207.857H419.699V208.296H419.276ZM421.399 208.358C421.152 208.358 420.932 208.301 420.739 208.187C420.546 208.074 420.395 207.916 420.285 207.713C420.178 207.51 420.125 207.274 420.125 207.006C420.125 206.731 420.178 206.491 420.285 206.289C420.395 206.082 420.546 205.922 420.739 205.809C420.932 205.692 421.155 205.633 421.41 205.633C421.664 205.633 421.883 205.69 422.065 205.803C422.247 205.917 422.388 206.068 422.488 206.258C422.588 206.443 422.638 206.65 422.638 206.877C422.638 206.911 422.636 206.949 422.633 206.99C422.633 207.028 422.631 207.071 422.627 207.119H420.502V206.753H422.122C422.111 206.536 422.039 206.368 421.905 206.247C421.771 206.123 421.604 206.061 421.405 206.061C421.264 206.061 421.135 206.094 421.018 206.16C420.901 206.221 420.806 206.314 420.734 206.438C420.665 206.559 420.631 206.712 420.631 206.897V207.042C420.631 207.235 420.665 207.398 420.734 207.532C420.806 207.663 420.901 207.763 421.018 207.831C421.135 207.897 421.262 207.929 421.399 207.929C421.565 207.929 421.7 207.893 421.807 207.821C421.914 207.749 421.993 207.651 422.044 207.527H422.56C422.516 207.685 422.44 207.828 422.333 207.955C422.227 208.079 422.094 208.177 421.936 208.249C421.781 208.322 421.602 208.358 421.399 208.358ZM423.211 208.296V205.695H423.675L423.706 206.139C423.789 205.984 423.906 205.862 424.057 205.773C424.209 205.68 424.382 205.633 424.578 205.633C424.785 205.633 424.962 205.674 425.11 205.757C425.258 205.84 425.373 205.965 425.456 206.134C425.538 206.299 425.58 206.507 425.58 206.758V208.296H425.064V206.81C425.064 206.569 425.01 206.387 424.904 206.263C424.797 206.139 424.642 206.077 424.439 206.077C424.305 206.077 424.185 206.11 424.078 206.175C423.971 206.237 423.885 206.33 423.82 206.454C423.758 206.577 423.727 206.729 423.727 206.908V208.296H423.211ZM427.313 208.296C427.148 208.296 427.005 208.27 426.885 208.218C426.764 208.167 426.671 208.081 426.606 207.96C426.541 207.84 426.508 207.677 426.508 207.47V206.134H426.059V205.695H426.508L426.57 205.045H427.024V205.695H427.762V206.134H427.024V207.475C427.024 207.623 427.055 207.725 427.117 207.78C427.179 207.831 427.285 207.857 427.437 207.857H427.736V208.296H427.313ZM430.724 208.296C430.559 208.296 430.416 208.27 430.296 208.218C430.176 208.167 430.083 208.081 430.017 207.96C429.952 207.84 429.919 207.677 429.919 207.47V206.134H429.47V205.695H429.919L429.981 205.045H430.435V205.695H431.173V206.134H430.435V207.475C430.435 207.623 430.466 207.725 430.528 207.78C430.59 207.831 430.697 207.857 430.848 207.857H431.147V208.296H430.724ZM432.041 209.431L432.676 208.007H432.527L431.5 205.695H432.057L432.872 207.584L433.693 205.695H434.234L432.583 209.431H432.041ZM434.69 209.431V205.695H435.154L435.206 206.098C435.261 206.018 435.33 205.945 435.412 205.876C435.495 205.803 435.593 205.745 435.707 205.7C435.824 205.656 435.959 205.633 436.114 205.633C436.362 205.633 436.579 205.693 436.764 205.814C436.954 205.934 437.1 206.098 437.203 206.304C437.31 206.507 437.363 206.739 437.363 207.001C437.363 207.262 437.31 207.496 437.203 207.702C437.096 207.905 436.948 208.065 436.759 208.182C436.573 208.299 436.357 208.358 436.109 208.358C435.906 208.358 435.727 208.318 435.572 208.239C435.418 208.156 435.295 208.043 435.206 207.898V209.431H434.69ZM436.026 207.909C436.185 207.909 436.324 207.871 436.444 207.795C436.568 207.72 436.665 207.613 436.733 207.475C436.806 207.338 436.842 207.178 436.842 206.995C436.842 206.813 436.806 206.655 436.733 206.521C436.665 206.383 436.568 206.276 436.444 206.201C436.324 206.122 436.185 206.082 436.026 206.082C435.865 206.082 435.722 206.122 435.598 206.201C435.478 206.276 435.383 206.383 435.314 206.521C435.246 206.655 435.211 206.813 435.211 206.995C435.211 207.178 435.246 207.338 435.314 207.475C435.383 207.613 435.478 207.72 435.598 207.795C435.722 207.871 435.865 207.909 436.026 207.909ZM439.142 208.358C438.894 208.358 438.674 208.301 438.481 208.187C438.289 208.074 438.137 207.916 438.027 207.713C437.921 207.51 437.867 207.274 437.867 207.006C437.867 206.731 437.921 206.491 438.027 206.289C438.137 206.082 438.289 205.922 438.481 205.809C438.674 205.692 438.898 205.633 439.152 205.633C439.407 205.633 439.625 205.69 439.808 205.803C439.99 205.917 440.131 206.068 440.231 206.258C440.33 206.443 440.38 206.65 440.38 206.877C440.38 206.911 440.379 206.949 440.375 206.99C440.375 207.028 440.373 207.071 440.37 207.119H438.244V206.753H439.864C439.854 206.536 439.782 206.368 439.648 206.247C439.513 206.123 439.347 206.061 439.147 206.061C439.006 206.061 438.877 206.094 438.76 206.16C438.643 206.221 438.549 206.314 438.476 206.438C438.407 206.559 438.373 206.712 438.373 206.897V207.042C438.373 207.235 438.407 207.398 438.476 207.532C438.549 207.663 438.643 207.763 438.76 207.831C438.877 207.897 439.004 207.929 439.142 207.929C439.307 207.929 439.443 207.893 439.55 207.821C439.656 207.749 439.735 207.651 439.787 207.527H440.303C440.258 207.685 440.183 207.828 440.076 207.955C439.969 208.079 439.837 208.177 439.679 208.249C439.524 208.322 439.345 208.358 439.142 208.358ZM537.387 208.296V205.695H537.903V208.296H537.387ZM537.65 205.205C537.55 205.205 537.468 205.174 537.402 205.112C537.341 205.05 537.31 204.971 537.31 204.875C537.31 204.782 537.341 204.706 537.402 204.648C537.468 204.586 537.55 204.555 537.65 204.555C537.746 204.555 537.827 204.586 537.893 204.648C537.958 204.706 537.991 204.782 537.991 204.875C537.991 204.971 537.958 205.05 537.893 205.112C537.827 205.174 537.746 205.205 537.65 205.205ZM538.641 208.296V205.695H539.105L539.141 206.061C539.224 205.927 539.334 205.822 539.472 205.747C539.609 205.671 539.764 205.633 539.936 205.633C540.067 205.633 540.185 205.652 540.292 205.69C540.399 205.724 540.493 205.778 540.576 205.85C540.658 205.922 540.726 206.012 540.777 206.118C540.87 205.967 540.994 205.848 541.149 205.762C541.307 205.676 541.474 205.633 541.649 205.633C541.859 205.633 542.04 205.676 542.191 205.762C542.342 205.845 542.458 205.97 542.537 206.139C542.616 206.304 542.655 206.51 542.655 206.758V208.296H542.145V206.81C542.145 206.569 542.095 206.387 541.995 206.263C541.899 206.139 541.756 206.077 541.567 206.077C541.439 206.077 541.326 206.11 541.226 206.175C541.126 206.24 541.047 206.335 540.989 206.459C540.934 206.583 540.906 206.734 540.906 206.913V208.296H540.39V206.81C540.39 206.569 540.34 206.387 540.24 206.263C540.144 206.139 540.001 206.077 539.812 206.077C539.692 206.077 539.582 206.11 539.482 206.175C539.382 206.24 539.303 206.335 539.245 206.459C539.186 206.583 539.157 206.734 539.157 206.913V208.296H538.641ZM544.184 208.358C543.971 208.358 543.793 208.322 543.652 208.249C543.511 208.177 543.406 208.081 543.338 207.96C543.269 207.837 543.234 207.704 543.234 207.563C543.234 207.391 543.279 207.245 543.369 207.124C543.458 207.001 543.585 206.906 543.75 206.841C543.916 206.775 544.113 206.743 544.344 206.743H545.02C545.02 206.591 544.997 206.466 544.953 206.366C544.908 206.266 544.841 206.192 544.751 206.144C544.665 206.092 544.555 206.067 544.421 206.067C544.266 206.067 544.134 206.104 544.024 206.18C543.914 206.252 543.845 206.361 543.818 206.505H543.302C543.322 206.323 543.384 206.168 543.487 206.041C543.594 205.91 543.73 205.81 543.895 205.742C544.06 205.669 544.235 205.633 544.421 205.633C544.665 205.633 544.87 205.676 545.035 205.762C545.2 205.848 545.324 205.97 545.407 206.129C545.493 206.283 545.536 206.469 545.536 206.686V208.296H545.087L545.046 207.857C545.008 207.926 544.963 207.991 544.911 208.053C544.86 208.115 544.798 208.168 544.726 208.213C544.657 208.258 544.576 208.292 544.483 208.316C544.394 208.344 544.294 208.358 544.184 208.358ZM544.282 207.94C544.392 207.94 544.492 207.917 544.581 207.873C544.671 207.828 544.746 207.768 544.808 207.692C544.874 207.613 544.922 207.525 544.953 207.429C544.987 207.329 545.006 207.228 545.009 207.124V207.109H544.395C544.248 207.109 544.127 207.128 544.034 207.166C543.945 207.2 543.879 207.248 543.838 207.31C543.797 207.372 543.776 207.444 543.776 207.527C543.776 207.613 543.795 207.687 543.833 207.749C543.874 207.807 543.933 207.854 544.008 207.888C544.084 207.923 544.175 207.94 544.282 207.94ZM547.252 209.493C547.015 209.493 546.805 209.462 546.623 209.4C546.44 209.342 546.299 209.25 546.2 209.127C546.1 209.003 546.05 208.851 546.05 208.672C546.05 208.58 546.071 208.485 546.112 208.389C546.153 208.296 546.22 208.206 546.313 208.12C546.406 208.034 546.532 207.957 546.69 207.888L546.979 208.12C546.803 208.186 546.685 208.263 546.623 208.353C546.564 208.445 546.535 208.535 546.535 208.621C546.535 208.724 546.566 208.81 546.628 208.879C546.69 208.948 546.774 208.999 546.881 209.034C546.991 209.068 547.115 209.085 547.252 209.085C547.386 209.085 547.503 209.066 547.603 209.028C547.703 208.991 547.78 208.937 547.835 208.869C547.89 208.8 547.918 208.719 547.918 208.626C547.918 208.516 547.877 208.423 547.794 208.347C547.711 208.275 547.553 208.232 547.319 208.218C547.123 208.205 546.956 208.186 546.819 208.162C546.685 208.138 546.569 208.108 546.473 208.074C546.38 208.039 546.301 208.002 546.236 207.96C546.174 207.919 546.12 207.876 546.076 207.831V207.713L546.592 207.181L547.01 207.326L546.447 207.847L546.556 207.615C546.593 207.639 546.63 207.663 546.664 207.687C546.698 207.708 546.745 207.726 546.803 207.744C546.862 207.761 546.941 207.776 547.041 207.79C547.14 207.804 547.271 207.818 547.433 207.831C547.667 207.849 547.854 207.89 547.995 207.955C548.14 208.021 548.245 208.108 548.31 208.218C548.375 208.328 548.408 208.459 548.408 208.611C548.408 208.758 548.367 208.899 548.284 209.034C548.205 209.168 548.08 209.278 547.908 209.364C547.739 209.45 547.521 209.493 547.252 209.493ZM547.252 207.496C547.032 207.496 546.845 207.455 546.69 207.372C546.538 207.29 546.421 207.178 546.339 207.037C546.26 206.896 546.22 206.739 546.22 206.567C546.22 206.392 546.26 206.235 546.339 206.098C546.421 205.957 546.54 205.845 546.695 205.762C546.85 205.676 547.036 205.633 547.252 205.633C547.469 205.633 547.653 205.676 547.804 205.762C547.959 205.845 548.076 205.957 548.155 206.098C548.238 206.235 548.279 206.392 548.279 206.567C548.279 206.739 548.238 206.896 548.155 207.037C548.076 207.178 547.959 207.29 547.804 207.372C547.653 207.455 547.469 207.496 547.252 207.496ZM547.252 207.083C547.421 207.083 547.555 207.04 547.655 206.954C547.754 206.865 547.804 206.736 547.804 206.567C547.804 206.399 547.754 206.271 547.655 206.185C547.555 206.096 547.421 206.051 547.252 206.051C547.084 206.051 546.948 206.096 546.845 206.185C546.741 206.271 546.69 206.399 546.69 206.567C546.69 206.736 546.741 206.865 546.845 206.954C546.948 207.04 547.084 207.083 547.252 207.083ZM547.675 206.103L547.552 205.695H548.62V206.051L547.675 206.103ZM550.213 208.358C549.965 208.358 549.745 208.301 549.552 208.187C549.36 208.074 549.208 207.916 549.098 207.713C548.992 207.51 548.938 207.274 548.938 207.006C548.938 206.731 548.992 206.491 549.098 206.289C549.208 206.082 549.36 205.922 549.552 205.809C549.745 205.692 549.969 205.633 550.223 205.633C550.478 205.633 550.696 205.69 550.879 205.803C551.061 205.917 551.202 206.068 551.302 206.258C551.401 206.443 551.451 206.65 551.451 206.877C551.451 206.911 551.45 206.949 551.446 206.99C551.446 207.028 551.444 207.071 551.441 207.119H549.315V206.753H550.935C550.925 206.536 550.853 206.368 550.719 206.247C550.584 206.123 550.418 206.061 550.218 206.061C550.077 206.061 549.948 206.094 549.831 206.16C549.714 206.221 549.62 206.314 549.547 206.438C549.479 206.559 549.444 206.712 549.444 206.897V207.042C549.444 207.235 549.479 207.398 549.547 207.532C549.62 207.663 549.714 207.763 549.831 207.831C549.948 207.897 550.075 207.929 550.213 207.929C550.378 207.929 550.514 207.893 550.621 207.821C550.727 207.749 550.806 207.651 550.858 207.527H551.374C551.329 207.685 551.254 207.828 551.147 207.955C551.04 208.079 550.908 208.177 550.75 208.249C550.595 208.322 550.416 208.358 550.213 208.358ZM551.813 208.817L553.103 204.328H553.609L552.319 208.817H551.813ZM553.61 209.431V208.992H553.817C553.941 208.992 554.028 208.967 554.08 208.915C554.132 208.863 554.157 208.777 554.157 208.657V205.695H554.673V208.667C554.673 208.846 554.642 208.992 554.58 209.106C554.522 209.219 554.434 209.302 554.317 209.354C554.2 209.405 554.059 209.431 553.894 209.431H553.61ZM554.421 205.205C554.321 205.205 554.238 205.174 554.173 205.112C554.111 205.05 554.08 204.971 554.08 204.875C554.08 204.782 554.111 204.706 554.173 204.648C554.238 204.586 554.321 204.555 554.421 204.555C554.517 204.555 554.596 204.586 554.658 204.648C554.723 204.706 554.756 204.782 554.756 204.875C554.756 204.971 554.723 205.05 554.658 205.112C554.596 205.174 554.517 205.205 554.421 205.205ZM555.406 209.431V205.695H555.87L555.922 206.098C555.977 206.018 556.046 205.945 556.128 205.876C556.211 205.803 556.309 205.745 556.422 205.7C556.539 205.656 556.675 205.633 556.83 205.633C557.078 205.633 557.294 205.693 557.48 205.814C557.669 205.934 557.816 206.098 557.919 206.304C558.025 206.507 558.079 206.739 558.079 207.001C558.079 207.262 558.025 207.496 557.919 207.702C557.812 207.905 557.664 208.065 557.475 208.182C557.289 208.299 557.073 208.358 556.825 208.358C556.622 208.358 556.443 208.318 556.288 208.239C556.133 208.156 556.011 208.043 555.922 207.898V209.431H555.406ZM556.742 207.909C556.901 207.909 557.04 207.871 557.16 207.795C557.284 207.72 557.38 207.613 557.449 207.475C557.521 207.338 557.558 207.178 557.558 206.995C557.558 206.813 557.521 206.655 557.449 206.521C557.38 206.383 557.284 206.276 557.16 206.201C557.04 206.122 556.901 206.082 556.742 206.082C556.581 206.082 556.438 206.122 556.314 206.201C556.194 206.276 556.099 206.383 556.03 206.521C555.961 206.655 555.927 206.813 555.927 206.995C555.927 207.178 555.961 207.338 556.03 207.475C556.099 207.613 556.194 207.72 556.314 207.795C556.438 207.871 556.581 207.909 556.742 207.909ZM559.608 209.493C559.371 209.493 559.161 209.462 558.978 209.4C558.796 209.342 558.655 209.25 558.555 209.127C558.456 209.003 558.406 208.851 558.406 208.672C558.406 208.58 558.426 208.485 558.468 208.389C558.509 208.296 558.576 208.206 558.669 208.12C558.762 208.034 558.887 207.957 559.046 207.888L559.335 208.12C559.159 208.186 559.04 208.263 558.978 208.353C558.92 208.445 558.891 208.535 558.891 208.621C558.891 208.724 558.922 208.81 558.984 208.879C559.046 208.948 559.13 208.999 559.236 209.034C559.347 209.068 559.47 209.085 559.608 209.085C559.742 209.085 559.859 209.066 559.959 209.028C560.059 208.991 560.136 208.937 560.191 208.869C560.246 208.8 560.274 208.719 560.274 208.626C560.274 208.516 560.232 208.423 560.15 208.347C560.067 208.275 559.909 208.232 559.675 208.218C559.479 208.205 559.312 208.186 559.175 208.162C559.04 208.138 558.925 208.108 558.829 208.074C558.736 208.039 558.657 208.002 558.591 207.96C558.53 207.919 558.476 207.876 558.432 207.831V207.713L558.948 207.181L559.365 207.326L558.803 207.847L558.911 207.615C558.949 207.639 558.985 207.663 559.02 207.687C559.054 207.708 559.101 207.726 559.159 207.744C559.218 207.761 559.297 207.776 559.396 207.79C559.496 207.804 559.627 207.818 559.789 207.831C560.023 207.849 560.21 207.89 560.351 207.955C560.496 208.021 560.6 208.108 560.666 208.218C560.731 208.328 560.764 208.459 560.764 208.611C560.764 208.758 560.723 208.899 560.64 209.034C560.561 209.168 560.435 209.278 560.263 209.364C560.095 209.45 559.876 209.493 559.608 209.493ZM559.608 207.496C559.388 207.496 559.2 207.455 559.046 207.372C558.894 207.29 558.777 207.178 558.695 207.037C558.616 206.896 558.576 206.739 558.576 206.567C558.576 206.392 558.616 206.235 558.695 206.098C558.777 205.957 558.896 205.845 559.051 205.762C559.206 205.676 559.391 205.633 559.608 205.633C559.825 205.633 560.009 205.676 560.16 205.762C560.315 205.845 560.432 205.957 560.511 206.098C560.594 206.235 560.635 206.392 560.635 206.567C560.635 206.739 560.594 206.896 560.511 207.037C560.432 207.178 560.315 207.29 560.16 207.372C560.009 207.455 559.825 207.496 559.608 207.496ZM559.608 207.083C559.777 207.083 559.911 207.04 560.01 206.954C560.11 206.865 560.16 206.736 560.16 206.567C560.16 206.399 560.11 206.271 560.01 206.185C559.911 206.096 559.777 206.051 559.608 206.051C559.439 206.051 559.304 206.096 559.2 206.185C559.097 206.271 559.046 206.399 559.046 206.567C559.046 206.736 559.097 206.865 559.2 206.954C559.304 207.04 559.439 207.083 559.608 207.083ZM560.031 206.103L559.907 205.695H560.975V206.051L560.031 206.103ZM543.304 223.296V222.924C543.545 222.738 543.774 222.551 543.991 222.362C544.207 222.173 544.4 221.985 544.569 221.799C544.741 221.61 544.875 221.426 544.971 221.247C545.067 221.065 545.116 220.891 545.116 220.726C545.116 220.609 545.095 220.501 545.054 220.401C545.012 220.301 544.947 220.22 544.858 220.158C544.768 220.093 544.646 220.06 544.491 220.06C544.343 220.06 544.219 220.093 544.12 220.158C544.023 220.224 543.949 220.312 543.898 220.422C543.85 220.528 543.826 220.647 543.826 220.778H543.325C543.329 220.53 543.382 220.32 543.485 220.148C543.588 219.976 543.728 219.845 543.903 219.756C544.082 219.667 544.281 219.622 544.502 219.622C544.732 219.622 544.932 219.665 545.1 219.751C545.269 219.833 545.399 219.956 545.492 220.117C545.585 220.275 545.632 220.47 545.632 220.7C545.632 220.865 545.599 221.031 545.534 221.196C545.468 221.357 545.379 221.516 545.265 221.67C545.155 221.825 545.031 221.975 544.894 222.119C544.756 222.26 544.613 222.394 544.465 222.522C544.321 222.649 544.182 222.764 544.047 222.867H545.745V223.296H543.304ZM546.535 223.322C546.436 223.322 546.353 223.291 546.288 223.229C546.226 223.163 546.195 223.086 546.195 222.996C546.195 222.904 546.226 222.826 546.288 222.764C546.353 222.699 546.436 222.666 546.535 222.666C546.635 222.666 546.716 222.699 546.778 222.764C546.84 222.826 546.871 222.904 546.871 222.996C546.871 223.086 546.84 223.163 546.778 223.229C546.716 223.291 546.635 223.322 546.535 223.322ZM548.707 223.358C548.452 223.358 548.234 223.313 548.052 223.224C547.869 223.131 547.725 223.007 547.618 222.852C547.512 222.694 547.446 222.517 547.422 222.321H547.928C547.962 222.496 548.048 222.64 548.186 222.754C548.323 222.864 548.497 222.919 548.707 222.919C548.865 222.919 549.001 222.881 549.115 222.806C549.228 222.73 549.316 222.628 549.378 222.501C549.44 222.374 549.471 222.233 549.471 222.078C549.471 221.913 549.438 221.77 549.373 221.65C549.311 221.526 549.223 221.43 549.109 221.361C548.999 221.292 548.87 221.258 548.722 221.258C548.544 221.258 548.389 221.299 548.258 221.381C548.131 221.461 548.038 221.562 547.979 221.686H547.479L547.778 219.684H549.723V220.133H548.175L547.985 221.144C548.067 221.051 548.177 220.975 548.315 220.917C548.456 220.859 548.616 220.829 548.795 220.829C548.977 220.829 549.14 220.862 549.285 220.927C549.429 220.989 549.551 221.077 549.651 221.19C549.754 221.304 549.832 221.436 549.883 221.588C549.938 221.739 549.966 221.899 549.966 222.068C549.966 222.25 549.937 222.419 549.878 222.573C549.82 222.728 549.735 222.866 549.625 222.986C549.519 223.103 549.386 223.194 549.228 223.26C549.073 223.325 548.9 223.358 548.707 223.358ZM551.684 223.358C551.45 223.358 551.25 223.313 551.085 223.224C550.92 223.131 550.789 223.009 550.693 222.857C550.597 222.702 550.538 222.536 550.518 222.357H550.998C551.032 222.536 551.109 222.675 551.23 222.775C551.35 222.871 551.503 222.919 551.689 222.919C551.861 222.919 552.012 222.867 552.143 222.764C552.274 222.661 552.379 222.505 552.458 222.295C552.537 222.085 552.582 221.82 552.592 221.5C552.595 221.49 552.597 221.479 552.597 221.469V221.438C552.542 221.541 552.466 221.636 552.37 221.722C552.274 221.808 552.16 221.877 552.03 221.928C551.902 221.977 551.759 222.001 551.601 222.001C551.398 222.001 551.207 221.954 551.028 221.861C550.853 221.765 550.709 221.629 550.595 221.454C550.485 221.278 550.43 221.074 550.43 220.84C550.43 220.63 550.48 220.432 550.58 220.246C550.683 220.06 550.827 219.911 551.013 219.797C551.202 219.68 551.424 219.622 551.679 219.622C551.944 219.622 552.165 219.672 552.344 219.771C552.527 219.868 552.671 220 552.778 220.169C552.888 220.334 552.967 220.52 553.015 220.726C553.067 220.929 553.092 221.139 553.092 221.356C553.092 221.751 553.037 222.1 552.927 222.403C552.817 222.702 552.657 222.936 552.447 223.105C552.238 223.273 551.983 223.358 551.684 223.358ZM551.715 221.562C551.863 221.562 551.995 221.529 552.112 221.464C552.229 221.395 552.322 221.304 552.391 221.19C552.46 221.077 552.494 220.951 552.494 220.814C552.494 220.669 552.46 220.542 552.391 220.432C552.322 220.318 552.227 220.231 552.107 220.169C551.99 220.103 551.858 220.071 551.71 220.071C551.565 220.071 551.434 220.103 551.317 220.169C551.2 220.231 551.108 220.318 551.039 220.432C550.973 220.542 550.941 220.671 550.941 220.819C550.941 220.967 550.973 221.098 551.039 221.211C551.108 221.321 551.2 221.407 551.317 221.469C551.434 221.531 551.567 221.562 551.715 221.562ZM553.742 223.296V219.684H554.351L555.574 222.124L556.792 219.684H557.406V223.296H556.89V220.587L555.77 222.79H555.373L554.258 220.592V223.296H553.742ZM558.156 223.296V219.684H559.493C559.744 219.684 559.954 219.725 560.122 219.808C560.291 219.887 560.416 219.997 560.499 220.138C560.585 220.275 560.628 220.432 560.628 220.607C560.628 220.79 560.588 220.943 560.509 221.067C560.43 221.19 560.325 221.287 560.194 221.356C560.067 221.421 559.93 221.459 559.782 221.469L559.854 221.418C560.012 221.421 560.157 221.464 560.287 221.547C560.418 221.626 560.521 221.732 560.597 221.866C560.673 222.001 560.71 222.149 560.71 222.31C560.71 222.496 560.666 222.665 560.576 222.816C560.487 222.964 560.354 223.081 560.179 223.167C560.004 223.253 559.789 223.296 559.534 223.296H558.156ZM558.672 222.867H559.467C559.694 222.867 559.869 222.816 559.993 222.713C560.12 222.606 560.184 222.456 560.184 222.264C560.184 222.075 560.119 221.923 559.988 221.81C559.861 221.696 559.684 221.639 559.457 221.639H558.672V222.867ZM558.672 221.242H559.436C559.653 221.242 559.818 221.192 559.931 221.092C560.045 220.989 560.102 220.848 560.102 220.669C560.102 220.497 560.045 220.361 559.931 220.262C559.818 220.158 559.647 220.107 559.42 220.107H558.672V221.242ZM493.144 238.296L494.471 234.684H495.033L496.359 238.296H495.807L494.749 235.303L493.686 238.296H493.144ZM493.743 237.403L493.888 236.99H495.585L495.73 237.403H493.743ZM497.752 238.358C497.549 238.358 497.372 238.316 497.221 238.234C497.073 238.151 496.958 238.027 496.875 237.862C496.796 237.697 496.756 237.489 496.756 237.238V235.695H497.272V237.181C497.272 237.425 497.326 237.609 497.432 237.733C497.539 237.857 497.692 237.919 497.892 237.919C498.026 237.919 498.146 237.886 498.253 237.821C498.363 237.756 498.449 237.661 498.511 237.537C498.573 237.413 498.604 237.262 498.604 237.083V235.695H499.12V238.296H498.66L498.624 237.852C498.545 238.01 498.43 238.134 498.279 238.224C498.127 238.313 497.952 238.358 497.752 238.358ZM500.884 239.493C500.647 239.493 500.437 239.462 500.254 239.4C500.072 239.342 499.931 239.25 499.831 239.127C499.731 239.003 499.682 238.851 499.682 238.672C499.682 238.58 499.702 238.485 499.744 238.389C499.785 238.296 499.852 238.206 499.945 238.12C500.038 238.034 500.163 237.957 500.321 237.888L500.61 238.12C500.435 238.186 500.316 238.263 500.254 238.353C500.196 238.445 500.167 238.535 500.167 238.621C500.167 238.724 500.198 238.81 500.26 238.879C500.321 238.948 500.406 238.999 500.512 239.034C500.622 239.068 500.746 239.085 500.884 239.085C501.018 239.085 501.135 239.066 501.235 239.028C501.335 238.991 501.412 238.937 501.467 238.869C501.522 238.8 501.55 238.719 501.55 238.626C501.55 238.516 501.508 238.423 501.426 238.347C501.343 238.275 501.185 238.232 500.951 238.218C500.755 238.205 500.588 238.186 500.45 238.162C500.316 238.138 500.201 238.108 500.105 238.074C500.012 238.039 499.933 238.002 499.867 237.96C499.805 237.919 499.752 237.876 499.707 237.831V237.713L500.223 237.181L500.641 237.326L500.079 237.847L500.187 237.615C500.225 237.639 500.261 237.663 500.296 237.687C500.33 237.708 500.376 237.726 500.435 237.744C500.493 237.761 500.573 237.776 500.672 237.79C500.772 237.804 500.903 237.818 501.064 237.831C501.298 237.849 501.486 237.89 501.627 237.955C501.771 238.021 501.876 238.108 501.942 238.218C502.007 238.328 502.04 238.459 502.04 238.611C502.04 238.758 501.998 238.899 501.916 239.034C501.837 239.168 501.711 239.278 501.539 239.364C501.371 239.45 501.152 239.493 500.884 239.493ZM500.884 237.496C500.664 237.496 500.476 237.455 500.321 237.372C500.17 237.29 500.053 237.178 499.971 237.037C499.891 236.896 499.852 236.739 499.852 236.567C499.852 236.392 499.891 236.235 499.971 236.098C500.053 235.957 500.172 235.845 500.327 235.762C500.481 235.676 500.667 235.633 500.884 235.633C501.101 235.633 501.285 235.676 501.436 235.762C501.591 235.845 501.708 235.957 501.787 236.098C501.869 236.235 501.911 236.392 501.911 236.567C501.911 236.739 501.869 236.896 501.787 237.037C501.708 237.178 501.591 237.29 501.436 237.372C501.285 237.455 501.101 237.496 500.884 237.496ZM500.884 237.083C501.052 237.083 501.187 237.04 501.286 236.954C501.386 236.865 501.436 236.736 501.436 236.567C501.436 236.399 501.386 236.271 501.286 236.185C501.187 236.096 501.052 236.051 500.884 236.051C500.715 236.051 500.579 236.096 500.476 236.185C500.373 236.271 500.321 236.399 500.321 236.567C500.321 236.736 500.373 236.865 500.476 236.954C500.579 237.04 500.715 237.083 500.884 237.083ZM501.307 236.103L501.183 235.695H502.251V236.051L501.307 236.103ZM503.723 238.358C503.521 238.358 503.343 238.316 503.192 238.234C503.044 238.151 502.929 238.027 502.846 237.862C502.767 237.697 502.728 237.489 502.728 237.238V235.695H503.244V237.181C503.244 237.425 503.297 237.609 503.404 237.733C503.51 237.857 503.663 237.919 503.863 237.919C503.997 237.919 504.117 237.886 504.224 237.821C504.334 237.756 504.42 237.661 504.482 237.537C504.544 237.413 504.575 237.262 504.575 237.083V235.695H505.091V238.296H504.632L504.596 237.852C504.516 238.01 504.401 238.134 504.25 238.224C504.098 238.313 503.923 238.358 503.723 238.358ZM506.804 238.358C506.583 238.358 506.391 238.322 506.226 238.249C506.061 238.177 505.93 238.076 505.833 237.945C505.737 237.814 505.679 237.661 505.658 237.486H506.184C506.202 237.568 506.234 237.644 506.282 237.713C506.334 237.781 506.403 237.837 506.489 237.878C506.578 237.919 506.683 237.94 506.804 237.94C506.917 237.94 507.01 237.924 507.082 237.893C507.158 237.859 507.213 237.814 507.247 237.759C507.282 237.701 507.299 237.639 507.299 237.573C507.299 237.477 507.275 237.405 507.227 237.357C507.182 237.305 507.113 237.265 507.02 237.238C506.931 237.207 506.822 237.179 506.695 237.155C506.575 237.135 506.458 237.107 506.344 237.073C506.234 237.035 506.134 236.989 506.045 236.934C505.959 236.878 505.89 236.81 505.839 236.727C505.787 236.641 505.761 236.536 505.761 236.412C505.761 236.264 505.801 236.132 505.88 236.015C505.959 235.895 506.071 235.802 506.215 235.736C506.363 235.668 506.537 235.633 506.736 235.633C507.025 235.633 507.258 235.702 507.433 235.84C507.609 235.977 507.712 236.172 507.743 236.423H507.242C507.228 236.306 507.177 236.216 507.087 236.154C506.998 236.089 506.879 236.056 506.731 236.056C506.583 236.056 506.47 236.086 506.391 236.144C506.312 236.203 506.272 236.28 506.272 236.376C506.272 236.438 506.294 236.493 506.339 236.541C506.384 236.59 506.449 236.631 506.535 236.665C506.625 236.696 506.733 236.725 506.86 236.753C507.043 236.787 507.206 236.83 507.351 236.882C507.495 236.934 507.61 237.009 507.696 237.109C507.782 237.209 507.825 237.351 507.825 237.537C507.829 237.699 507.787 237.842 507.701 237.966C507.619 238.089 507.5 238.186 507.345 238.254C507.194 238.323 507.013 238.358 506.804 238.358ZM509.4 238.296C509.235 238.296 509.092 238.27 508.972 238.218C508.852 238.167 508.759 238.081 508.693 237.96C508.628 237.84 508.595 237.677 508.595 237.47V236.134H508.146V235.695H508.595L508.657 235.045H509.111V235.695H509.849V236.134H509.111V237.475C509.111 237.623 509.142 237.725 509.204 237.78C509.266 237.831 509.373 237.857 509.524 237.857H509.823V238.296H509.4ZM512.91 238.358C512.679 238.358 512.468 238.316 512.275 238.234C512.086 238.148 511.934 238.021 511.821 237.852C511.711 237.68 511.652 237.465 511.646 237.207H512.162C512.165 237.338 512.196 237.456 512.254 237.563C512.313 237.67 512.397 237.756 512.507 237.821C512.621 237.883 512.755 237.914 512.91 237.914C513.065 237.914 513.194 237.885 513.297 237.826C513.403 237.768 513.482 237.689 513.534 237.589C513.589 237.489 513.617 237.377 513.617 237.253C513.617 237.099 513.579 236.973 513.503 236.877C513.431 236.78 513.331 236.708 513.204 236.66C513.08 236.612 512.941 236.588 512.786 236.588H512.518V236.154H512.786C513.003 236.154 513.175 236.104 513.302 236.005C513.433 235.905 513.498 235.764 513.498 235.582C513.498 235.43 513.448 235.306 513.348 235.21C513.249 235.114 513.102 235.066 512.91 235.066C512.717 235.066 512.564 235.121 512.45 235.231C512.34 235.341 512.278 235.48 512.265 235.649H511.754C511.764 235.446 511.818 235.267 511.914 235.112C512.014 234.954 512.148 234.833 512.316 234.751C512.488 234.665 512.686 234.622 512.91 234.622C513.151 234.622 513.352 234.665 513.513 234.751C513.679 234.833 513.802 234.945 513.885 235.086C513.971 235.227 514.014 235.382 514.014 235.551C514.014 235.678 513.99 235.797 513.942 235.907C513.894 236.013 513.825 236.106 513.735 236.185C513.646 236.264 513.538 236.321 513.41 236.356C513.548 236.383 513.672 236.436 513.782 236.516C513.892 236.595 513.978 236.698 514.04 236.825C514.102 236.949 514.133 237.093 514.133 237.259C514.133 237.455 514.086 237.637 513.993 237.806C513.9 237.971 513.763 238.105 513.581 238.208C513.402 238.308 513.178 238.358 512.91 238.358ZM516.237 238.358C515.917 238.358 515.642 238.28 515.411 238.125C515.181 237.967 515.003 237.749 514.88 237.47C514.756 237.188 514.694 236.861 514.694 236.49C514.694 236.118 514.756 235.793 514.88 235.515C515.003 235.232 515.181 235.014 515.411 234.859C515.642 234.701 515.917 234.622 516.237 234.622C516.557 234.622 516.83 234.701 517.057 234.859C517.288 235.014 517.463 235.232 517.583 235.515C517.707 235.793 517.769 236.118 517.769 236.49C517.769 236.861 517.707 237.188 517.583 237.47C517.463 237.749 517.288 237.967 517.057 238.125C516.83 238.28 516.557 238.358 516.237 238.358ZM516.237 237.898C516.429 237.898 516.601 237.842 516.753 237.728C516.907 237.615 517.028 237.453 517.114 237.243C517.2 237.033 517.243 236.782 517.243 236.49C517.243 236.197 517.2 235.946 517.114 235.736C517.028 235.527 516.907 235.367 516.753 235.257C516.601 235.143 516.429 235.086 516.237 235.086C516.041 235.086 515.865 235.143 515.71 235.257C515.556 235.367 515.435 235.527 515.349 235.736C515.263 235.946 515.22 236.197 515.22 236.49C515.22 236.782 515.263 237.033 515.349 237.243C515.435 237.453 515.556 237.615 515.71 237.728C515.865 237.842 516.041 237.898 516.237 237.898ZM517.909 238.93L518.203 237.738H518.725L518.255 238.93H517.909ZM520.525 238.296V237.924C520.766 237.738 520.995 237.551 521.212 237.362C521.428 237.173 521.621 236.985 521.79 236.799C521.962 236.61 522.096 236.426 522.192 236.247C522.288 236.065 522.337 235.891 522.337 235.726C522.337 235.609 522.316 235.501 522.275 235.401C522.233 235.301 522.168 235.22 522.079 235.158C521.989 235.093 521.867 235.06 521.712 235.06C521.564 235.06 521.44 235.093 521.341 235.158C521.244 235.224 521.17 235.312 521.119 235.422C521.071 235.528 521.047 235.647 521.047 235.778H520.546C520.55 235.53 520.603 235.32 520.706 235.148C520.809 234.976 520.949 234.845 521.124 234.756C521.303 234.667 521.502 234.622 521.723 234.622C521.953 234.622 522.153 234.665 522.321 234.751C522.49 234.833 522.62 234.956 522.713 235.117C522.806 235.275 522.853 235.47 522.853 235.7C522.853 235.865 522.82 236.031 522.755 236.196C522.689 236.357 522.6 236.516 522.486 236.67C522.376 236.825 522.252 236.975 522.115 237.119C521.977 237.26 521.834 237.394 521.686 237.522C521.542 237.649 521.403 237.764 521.268 237.867H522.966V238.296H520.525ZM524.944 238.358C524.624 238.358 524.349 238.28 524.119 238.125C523.888 237.967 523.711 237.749 523.587 237.47C523.463 237.188 523.401 236.861 523.401 236.49C523.401 236.118 523.463 235.793 523.587 235.515C523.711 235.232 523.888 235.014 524.119 234.859C524.349 234.701 524.624 234.622 524.944 234.622C525.264 234.622 525.538 234.701 525.765 234.859C525.995 235.014 526.171 235.232 526.291 235.515C526.415 235.793 526.477 236.118 526.477 236.49C526.477 236.861 526.415 237.188 526.291 237.47C526.171 237.749 525.995 237.967 525.765 238.125C525.538 238.28 525.264 238.358 524.944 238.358ZM524.944 237.898C525.137 237.898 525.309 237.842 525.46 237.728C525.615 237.615 525.735 237.453 525.821 237.243C525.907 237.033 525.95 236.782 525.95 236.49C525.95 236.197 525.907 235.946 525.821 235.736C525.735 235.527 525.615 235.367 525.46 235.257C525.309 235.143 525.137 235.086 524.944 235.086C524.748 235.086 524.573 235.143 524.418 235.257C524.263 235.367 524.143 235.527 524.057 235.736C523.971 235.946 523.928 236.197 523.928 236.49C523.928 236.782 523.971 237.033 524.057 237.243C524.143 237.453 524.263 237.615 524.418 237.728C524.573 237.842 524.748 237.898 524.944 237.898ZM526.986 238.296V237.924C527.226 237.738 527.455 237.551 527.672 237.362C527.889 237.173 528.081 236.985 528.25 236.799C528.422 236.61 528.556 236.426 528.652 236.247C528.749 236.065 528.797 235.891 528.797 235.726C528.797 235.609 528.776 235.501 528.735 235.401C528.693 235.301 528.628 235.22 528.539 235.158C528.449 235.093 528.327 235.06 528.172 235.06C528.024 235.06 527.901 235.093 527.801 235.158C527.704 235.224 527.631 235.312 527.579 235.422C527.531 235.528 527.507 235.647 527.507 235.778H527.006C527.01 235.53 527.063 235.32 527.166 235.148C527.269 234.976 527.409 234.845 527.584 234.756C527.763 234.667 527.962 234.622 528.183 234.622C528.413 234.622 528.613 234.665 528.781 234.751C528.95 234.833 529.08 234.956 529.173 235.117C529.266 235.275 529.313 235.47 529.313 235.7C529.313 235.865 529.28 236.031 529.215 236.196C529.149 236.357 529.06 236.516 528.946 236.67C528.836 236.825 528.712 236.975 528.575 237.119C528.437 237.26 528.294 237.394 528.147 237.522C528.002 237.649 527.863 237.764 527.729 237.867H529.426V238.296H526.986ZM531.606 238.296V237.558H529.795V237.155L531.524 234.684H532.117V237.109H532.633V237.558H532.117V238.296H531.606ZM530.357 237.109H531.637V235.251L530.357 237.109ZM535.326 238.358C535.113 238.358 534.936 238.322 534.795 238.249C534.654 238.177 534.549 238.081 534.48 237.96C534.411 237.837 534.377 237.704 534.377 237.563C534.377 237.391 534.422 237.245 534.511 237.124C534.6 237.001 534.728 236.906 534.893 236.841C535.058 236.775 535.256 236.743 535.486 236.743H536.162C536.162 236.591 536.14 236.466 536.095 236.366C536.05 236.266 535.983 236.192 535.894 236.144C535.808 236.092 535.698 236.067 535.564 236.067C535.409 236.067 535.276 236.104 535.166 236.18C535.056 236.252 534.987 236.361 534.96 236.505H534.444C534.465 236.323 534.527 236.168 534.63 236.041C534.736 235.91 534.872 235.81 535.037 235.742C535.202 235.669 535.378 235.633 535.564 235.633C535.808 235.633 536.013 235.676 536.178 235.762C536.343 235.848 536.467 235.97 536.549 236.129C536.635 236.283 536.678 236.469 536.678 236.686V238.296H536.229L536.188 237.857C536.15 237.926 536.105 237.991 536.054 238.053C536.002 238.115 535.94 238.168 535.868 238.213C535.799 238.258 535.718 238.292 535.626 238.316C535.536 238.344 535.436 238.358 535.326 238.358ZM535.424 237.94C535.534 237.94 535.634 237.917 535.724 237.873C535.813 237.828 535.889 237.768 535.951 237.692C536.016 237.613 536.064 237.525 536.095 237.429C536.13 237.329 536.148 237.228 536.152 237.124V237.109H535.538C535.39 237.109 535.27 237.128 535.177 237.166C535.087 237.2 535.022 237.248 534.981 237.31C534.939 237.372 534.919 237.444 534.919 237.527C534.919 237.613 534.938 237.687 534.975 237.749C535.017 237.807 535.075 237.854 535.151 237.888C535.227 237.923 535.318 237.94 535.424 237.94ZM538.355 238.296C538.19 238.296 538.047 238.27 537.926 238.218C537.806 238.167 537.713 238.081 537.648 237.96C537.582 237.84 537.55 237.677 537.55 237.47V236.134H537.101V235.695H537.55L537.612 235.045H538.066V235.695H538.804V236.134H538.066V237.475C538.066 237.623 538.097 237.725 538.159 237.78C538.221 237.831 538.327 237.857 538.479 237.857H538.778V238.296H538.355ZM542.127 238.358C541.807 238.358 541.532 238.28 541.302 238.125C541.071 237.967 540.894 237.749 540.77 237.47C540.646 237.188 540.585 236.861 540.585 236.49C540.585 236.118 540.646 235.793 540.77 235.515C540.894 235.232 541.071 235.014 541.302 234.859C541.532 234.701 541.807 234.622 542.127 234.622C542.447 234.622 542.721 234.701 542.948 234.859C543.178 235.014 543.354 235.232 543.474 235.515C543.598 235.793 543.66 236.118 543.66 236.49C543.66 236.861 543.598 237.188 543.474 237.47C543.354 237.749 543.178 237.967 542.948 238.125C542.721 238.28 542.447 238.358 542.127 238.358ZM542.127 237.898C542.32 237.898 542.492 237.842 542.643 237.728C542.798 237.615 542.919 237.453 543.005 237.243C543.091 237.033 543.134 236.782 543.134 236.49C543.134 236.197 543.091 235.946 543.005 235.736C542.919 235.527 542.798 235.367 542.643 235.257C542.492 235.143 542.32 235.086 542.127 235.086C541.931 235.086 541.756 235.143 541.601 235.257C541.446 235.367 541.326 235.527 541.24 235.736C541.154 235.946 541.111 236.197 541.111 236.49C541.111 236.782 541.154 237.033 541.24 237.243C541.326 237.453 541.446 237.615 541.601 237.728C541.756 237.842 541.931 237.898 542.127 237.898ZM545.597 238.358C545.332 238.358 545.109 238.31 544.926 238.213C544.747 238.113 544.603 237.981 544.493 237.816C544.383 237.647 544.302 237.462 544.25 237.259C544.202 237.052 544.178 236.841 544.178 236.624C544.178 236.225 544.233 235.876 544.343 235.576C544.457 235.277 544.618 235.043 544.828 234.875C545.038 234.706 545.291 234.622 545.587 234.622C545.824 234.622 546.025 234.668 546.19 234.761C546.359 234.851 546.49 234.971 546.583 235.122C546.679 235.274 546.737 235.441 546.758 235.623H546.278C546.247 235.444 546.17 235.306 546.046 235.21C545.926 235.11 545.771 235.06 545.582 235.06C545.413 235.06 545.262 235.114 545.128 235.22C544.993 235.324 544.887 235.482 544.808 235.695C544.732 235.908 544.689 236.178 544.679 236.505V236.541C544.73 236.438 544.804 236.344 544.9 236.258C544.997 236.172 545.11 236.104 545.241 236.056C545.375 236.005 545.52 235.979 545.674 235.979C545.877 235.979 546.067 236.027 546.242 236.123C546.421 236.216 546.565 236.35 546.676 236.526C546.786 236.701 546.841 236.906 546.841 237.14C546.841 237.35 546.789 237.548 546.686 237.733C546.586 237.919 546.443 238.07 546.258 238.187C546.072 238.301 545.852 238.358 545.597 238.358ZM545.561 237.909C545.709 237.909 545.84 237.878 545.953 237.816C546.07 237.751 546.161 237.661 546.227 237.548C546.295 237.434 546.33 237.305 546.33 237.161C546.33 237.013 546.295 236.884 546.227 236.774C546.161 236.66 546.07 236.572 545.953 236.51C545.84 236.448 545.709 236.418 545.561 236.418C545.413 236.418 545.281 236.452 545.164 236.521C545.047 236.586 544.954 236.676 544.885 236.789C544.816 236.899 544.782 237.025 544.782 237.166C544.782 237.31 544.816 237.439 544.885 237.553C544.954 237.663 545.047 237.751 545.164 237.816C545.284 237.878 545.416 237.909 545.561 237.909ZM547.712 238.322C547.612 238.322 547.53 238.291 547.464 238.229C547.402 238.163 547.372 238.086 547.372 237.996C547.372 237.904 547.402 237.826 547.464 237.764C547.53 237.699 547.612 237.666 547.712 237.666C547.812 237.666 547.893 237.699 547.955 237.764C548.017 237.826 548.047 237.904 548.047 237.996C548.047 238.086 548.017 238.163 547.955 238.229C547.893 238.291 547.812 238.322 547.712 238.322ZM547.712 236.289C547.612 236.289 547.53 236.258 547.464 236.196C547.402 236.13 547.372 236.053 547.372 235.963C547.372 235.871 547.402 235.793 547.464 235.731C547.53 235.666 547.612 235.633 547.712 235.633C547.812 235.633 547.893 235.666 547.955 235.731C548.017 235.793 548.047 235.871 548.047 235.963C548.047 236.053 548.017 236.13 547.955 236.196C547.893 236.258 547.812 236.289 547.712 236.289ZM549.068 238.296V235.267L548.438 235.427V235.04L549.259 234.684H549.594V238.296H549.068ZM551.592 238.358C551.337 238.358 551.119 238.313 550.937 238.224C550.754 238.131 550.61 238.007 550.503 237.852C550.396 237.694 550.331 237.517 550.307 237.321H550.813C550.847 237.496 550.933 237.64 551.071 237.754C551.208 237.864 551.382 237.919 551.592 237.919C551.75 237.919 551.886 237.881 552 237.806C552.113 237.73 552.201 237.628 552.263 237.501C552.325 237.374 552.356 237.233 552.356 237.078C552.356 236.913 552.323 236.77 552.258 236.65C552.196 236.526 552.108 236.43 551.994 236.361C551.884 236.292 551.755 236.258 551.607 236.258C551.428 236.258 551.274 236.299 551.143 236.381C551.016 236.461 550.923 236.562 550.864 236.686H550.364L550.663 234.684H552.608V235.133H551.06L550.869 236.144C550.952 236.051 551.062 235.975 551.2 235.917C551.341 235.859 551.501 235.829 551.68 235.829C551.862 235.829 552.025 235.862 552.17 235.927C552.314 235.989 552.436 236.077 552.536 236.19C552.639 236.304 552.717 236.436 552.768 236.588C552.823 236.739 552.851 236.899 552.851 237.068C552.851 237.25 552.822 237.419 552.763 237.573C552.705 237.728 552.62 237.866 552.51 237.986C552.404 238.103 552.271 238.194 552.113 238.26C551.958 238.325 551.785 238.358 551.592 238.358ZM553.518 238.296V234.684H554.751C555.04 234.684 555.277 234.732 555.463 234.828C555.649 234.925 555.787 235.054 555.876 235.215C555.965 235.377 556.01 235.561 556.01 235.767C556.01 235.963 555.965 236.144 555.876 236.309C555.79 236.471 555.654 236.602 555.468 236.701C555.283 236.798 555.044 236.846 554.751 236.846H554.034V238.296H553.518ZM554.034 236.418H554.73C555.002 236.418 555.195 236.359 555.308 236.242C555.425 236.122 555.484 235.963 555.484 235.767C555.484 235.558 555.425 235.396 555.308 235.282C555.195 235.169 555.002 235.112 554.73 235.112H554.034V236.418ZM556.567 238.296V234.684H557.175L558.398 237.124L559.616 234.684H560.23V238.296H559.714V235.587L558.594 237.79H558.197L557.083 235.592V238.296H556.567ZM409.558 223.358C409.293 223.358 409.061 223.311 408.862 223.218C408.662 223.122 408.507 222.988 408.397 222.816C408.287 222.644 408.232 222.443 408.232 222.212H408.774C408.777 222.343 408.808 222.463 408.867 222.573C408.929 222.68 409.017 222.766 409.13 222.831C409.247 222.893 409.39 222.924 409.558 222.924C409.703 222.924 409.827 222.9 409.93 222.852C410.036 222.804 410.117 222.738 410.172 222.656C410.227 222.57 410.255 222.472 410.255 222.362C410.255 222.235 410.226 222.13 410.167 222.047C410.109 221.964 410.03 221.897 409.93 221.846C409.834 221.791 409.72 221.743 409.589 221.701C409.462 221.66 409.328 221.615 409.187 221.567C408.901 221.474 408.688 221.354 408.547 221.206C408.409 221.058 408.341 220.865 408.341 220.628C408.341 220.425 408.389 220.25 408.485 220.102C408.581 219.95 408.716 219.833 408.888 219.751C409.063 219.665 409.269 219.622 409.507 219.622C409.741 219.622 409.945 219.665 410.121 219.751C410.296 219.837 410.434 219.956 410.534 220.107C410.633 220.258 410.683 220.435 410.683 220.638H410.136C410.136 220.545 410.112 220.454 410.064 220.365C410.016 220.275 409.944 220.203 409.847 220.148C409.751 220.09 409.632 220.06 409.491 220.06C409.374 220.057 409.269 220.076 409.176 220.117C409.084 220.158 409.011 220.219 408.96 220.298C408.908 220.377 408.882 220.472 408.882 220.582C408.882 220.692 408.905 220.781 408.949 220.85C408.998 220.915 409.066 220.972 409.156 221.02C409.245 221.068 409.348 221.113 409.465 221.154C409.586 221.192 409.718 221.235 409.863 221.283C410.042 221.342 410.2 221.414 410.337 221.5C410.479 221.583 410.589 221.691 410.668 221.825C410.75 221.956 410.792 222.124 410.792 222.331C410.792 222.51 410.745 222.677 410.652 222.831C410.559 222.986 410.422 223.113 410.239 223.213C410.057 223.31 409.83 223.358 409.558 223.358ZM411.415 223.296V220.695H411.931V223.296H411.415ZM411.679 220.205C411.579 220.205 411.496 220.174 411.431 220.112C411.369 220.05 411.338 219.971 411.338 219.875C411.338 219.782 411.369 219.706 411.431 219.648C411.496 219.586 411.579 219.555 411.679 219.555C411.775 219.555 411.856 219.586 411.921 219.648C411.987 219.706 412.019 219.782 412.019 219.875C412.019 219.971 411.987 220.05 411.921 220.112C411.856 220.174 411.775 220.205 411.679 220.205ZM412.499 223.296V222.878L413.897 221.129H412.52V220.695H414.486V221.118L413.082 222.867H414.511V223.296H412.499ZM416.26 223.358C416.012 223.358 415.792 223.301 415.599 223.187C415.406 223.074 415.255 222.916 415.145 222.713C415.038 222.51 414.985 222.274 414.985 222.006C414.985 221.731 415.038 221.491 415.145 221.289C415.255 221.082 415.406 220.922 415.599 220.809C415.792 220.692 416.015 220.633 416.27 220.633C416.524 220.633 416.743 220.69 416.925 220.803C417.108 220.917 417.249 221.068 417.348 221.258C417.448 221.443 417.498 221.65 417.498 221.877C417.498 221.911 417.496 221.949 417.493 221.99C417.493 222.028 417.491 222.071 417.488 222.119H415.362V221.753H416.982C416.972 221.536 416.899 221.368 416.765 221.247C416.631 221.123 416.464 221.061 416.265 221.061C416.124 221.061 415.995 221.094 415.878 221.16C415.761 221.221 415.666 221.314 415.594 221.438C415.525 221.559 415.491 221.712 415.491 221.897V222.042C415.491 222.235 415.525 222.398 415.594 222.532C415.666 222.663 415.761 222.763 415.878 222.831C415.995 222.897 416.122 222.929 416.26 222.929C416.425 222.929 416.561 222.893 416.667 222.821C416.774 222.749 416.853 222.651 416.905 222.527H417.421C417.376 222.685 417.3 222.828 417.194 222.955C417.087 223.079 416.954 223.177 416.796 223.249C416.641 223.322 416.463 223.358 416.26 223.358ZM409.708 238.358C409.453 238.358 409.223 238.308 409.017 238.208C408.81 238.105 408.645 237.95 408.521 237.744C408.401 237.534 408.341 237.267 408.341 236.944V234.684H408.857V236.949C408.857 237.166 408.893 237.345 408.965 237.486C409.037 237.623 409.137 237.726 409.264 237.795C409.395 237.861 409.546 237.893 409.718 237.893C409.894 237.893 410.045 237.861 410.172 237.795C410.3 237.726 410.398 237.623 410.466 237.486C410.539 237.345 410.575 237.166 410.575 236.949V234.684H411.091V236.944C411.091 237.267 411.029 237.534 410.905 237.744C410.781 237.95 410.614 238.105 410.405 238.208C410.195 238.308 409.963 238.358 409.708 238.358ZM411.782 239.431V235.695H412.247L412.298 236.098C412.354 236.018 412.422 235.945 412.505 235.876C412.587 235.803 412.685 235.745 412.799 235.7C412.916 235.656 413.052 235.633 413.207 235.633C413.454 235.633 413.671 235.693 413.857 235.814C414.046 235.934 414.192 236.098 414.295 236.304C414.402 236.507 414.455 236.739 414.455 237.001C414.455 237.262 414.402 237.496 414.295 237.702C414.189 237.905 414.041 238.065 413.852 238.182C413.666 238.299 413.449 238.358 413.201 238.358C412.999 238.358 412.82 238.318 412.665 238.239C412.51 238.156 412.388 238.043 412.298 237.898V239.431H411.782ZM413.119 237.909C413.277 237.909 413.416 237.871 413.537 237.795C413.661 237.72 413.757 237.613 413.826 237.475C413.898 237.338 413.934 237.178 413.934 236.995C413.934 236.813 413.898 236.655 413.826 236.521C413.757 236.383 413.661 236.276 413.537 236.201C413.416 236.122 413.277 236.082 413.119 236.082C412.957 236.082 412.814 236.122 412.691 236.201C412.57 236.276 412.476 236.383 412.407 236.521C412.338 236.655 412.304 236.813 412.304 236.995C412.304 237.178 412.338 237.338 412.407 237.475C412.476 237.613 412.57 237.72 412.691 237.795C412.814 237.871 412.957 237.909 413.119 237.909ZM415.058 238.296V234.581H415.574V238.296H415.058ZM417.469 238.358C417.225 238.358 417.005 238.301 416.809 238.187C416.616 238.074 416.463 237.916 416.349 237.713C416.239 237.506 416.184 237.269 416.184 237.001C416.184 236.725 416.241 236.486 416.355 236.283C416.468 236.077 416.623 235.917 416.819 235.803C417.015 235.69 417.235 235.633 417.479 235.633C417.727 235.633 417.947 235.69 418.14 235.803C418.333 235.917 418.484 236.075 418.594 236.278C418.708 236.481 418.764 236.72 418.764 236.995C418.764 237.271 418.708 237.51 418.594 237.713C418.484 237.916 418.331 238.074 418.135 238.187C417.939 238.301 417.717 238.358 417.469 238.358ZM417.469 237.914C417.61 237.914 417.737 237.88 417.851 237.811C417.968 237.742 418.061 237.64 418.13 237.506C418.202 237.369 418.238 237.198 418.238 236.995C418.238 236.792 418.204 236.624 418.135 236.49C418.066 236.352 417.973 236.249 417.856 236.18C417.743 236.111 417.617 236.077 417.479 236.077C417.342 236.077 417.215 236.111 417.098 236.18C416.981 236.249 416.886 236.352 416.814 236.49C416.745 236.624 416.711 236.792 416.711 236.995C416.711 237.198 416.745 237.369 416.814 237.506C416.886 237.64 416.979 237.742 417.092 237.811C417.209 237.88 417.335 237.914 417.469 237.914ZM420.233 238.358C420.02 238.358 419.843 238.322 419.702 238.249C419.561 238.177 419.456 238.081 419.387 237.96C419.318 237.837 419.284 237.704 419.284 237.563C419.284 237.391 419.328 237.245 419.418 237.124C419.507 237.001 419.634 236.906 419.8 236.841C419.965 236.775 420.163 236.743 420.393 236.743H421.069C421.069 236.591 421.047 236.466 421.002 236.366C420.957 236.266 420.89 236.192 420.801 236.144C420.715 236.092 420.605 236.067 420.47 236.067C420.316 236.067 420.183 236.104 420.073 236.18C419.963 236.252 419.894 236.361 419.867 236.505H419.351C419.371 236.323 419.433 236.168 419.536 236.041C419.643 235.91 419.779 235.81 419.944 235.742C420.109 235.669 420.285 235.633 420.47 235.633C420.715 235.633 420.919 235.676 421.084 235.762C421.25 235.848 421.373 235.97 421.456 236.129C421.542 236.283 421.585 236.469 421.585 236.686V238.296H421.136L421.095 237.857C421.057 237.926 421.012 237.991 420.961 238.053C420.909 238.115 420.847 238.168 420.775 238.213C420.706 238.258 420.625 238.292 420.532 238.316C420.443 238.344 420.343 238.358 420.233 238.358ZM420.331 237.94C420.441 237.94 420.541 237.917 420.63 237.873C420.72 237.828 420.795 237.768 420.857 237.692C420.923 237.613 420.971 237.525 421.002 237.429C421.036 237.329 421.055 237.228 421.059 237.124V237.109H420.445C420.297 237.109 420.176 237.128 420.083 237.166C419.994 237.2 419.929 237.248 419.887 237.31C419.846 237.372 419.825 237.444 419.825 237.527C419.825 237.613 419.844 237.687 419.882 237.749C419.923 237.807 419.982 237.854 420.058 237.888C420.133 237.923 420.224 237.94 420.331 237.94ZM423.399 238.358C423.152 238.358 422.933 238.299 422.744 238.182C422.555 238.062 422.407 237.9 422.3 237.697C422.197 237.491 422.146 237.257 422.146 236.995C422.146 236.731 422.197 236.497 422.3 236.294C422.407 236.091 422.555 235.931 422.744 235.814C422.937 235.693 423.157 235.633 423.405 235.633C423.608 235.633 423.786 235.674 423.941 235.757C424.096 235.836 424.216 235.95 424.302 236.098V234.581H424.818V238.296H424.354L424.302 237.893C424.251 237.972 424.184 238.048 424.101 238.12C424.019 238.189 423.919 238.246 423.802 238.291C423.685 238.335 423.551 238.358 423.399 238.358ZM423.482 237.909C423.644 237.909 423.786 237.871 423.91 237.795C424.034 237.72 424.129 237.613 424.194 237.475C424.263 237.338 424.297 237.178 424.297 236.995C424.297 236.813 424.263 236.655 424.194 236.521C424.129 236.383 424.034 236.276 423.91 236.201C423.786 236.122 423.644 236.082 423.482 236.082C423.327 236.082 423.188 236.122 423.064 236.201C422.94 236.276 422.844 236.383 422.775 236.521C422.706 236.655 422.672 236.813 422.672 236.995C422.672 237.178 422.706 237.338 422.775 237.475C422.844 237.613 422.94 237.72 423.064 237.795C423.188 237.871 423.327 237.909 423.482 237.909ZM426.7 238.358C426.453 238.358 426.233 238.301 426.04 238.187C425.847 238.074 425.696 237.916 425.586 237.713C425.479 237.51 425.426 237.274 425.426 237.006C425.426 236.731 425.479 236.491 425.586 236.289C425.696 236.082 425.847 235.922 426.04 235.809C426.233 235.692 426.456 235.633 426.711 235.633C426.965 235.633 427.184 235.69 427.366 235.803C427.548 235.917 427.689 236.068 427.789 236.258C427.889 236.443 427.939 236.65 427.939 236.877C427.939 236.911 427.937 236.949 427.934 236.99C427.934 237.028 427.932 237.071 427.929 237.119H425.803V236.753H427.423C427.413 236.536 427.34 236.368 427.206 236.247C427.072 236.123 426.905 236.061 426.706 236.061C426.565 236.061 426.436 236.094 426.319 236.16C426.202 236.221 426.107 236.314 426.035 236.438C425.966 236.559 425.932 236.712 425.932 236.897V237.042C425.932 237.235 425.966 237.398 426.035 237.532C426.107 237.663 426.202 237.763 426.319 237.831C426.436 237.897 426.563 237.929 426.7 237.929C426.866 237.929 427.001 237.893 427.108 237.821C427.215 237.749 427.294 237.651 427.345 237.527H427.861C427.817 237.685 427.741 237.828 427.634 237.955C427.528 238.079 427.395 238.177 427.237 238.249C427.082 238.322 426.903 238.358 426.7 238.358ZM429.668 238.358C429.42 238.358 429.202 238.299 429.013 238.182C428.823 238.062 428.676 237.9 428.569 237.697C428.466 237.491 428.414 237.257 428.414 236.995C428.414 236.731 428.466 236.497 428.569 236.294C428.676 236.091 428.823 235.931 429.013 235.814C429.205 235.693 429.425 235.633 429.673 235.633C429.876 235.633 430.055 235.674 430.21 235.757C430.365 235.836 430.485 235.95 430.571 236.098V234.581H431.087V238.296H430.623L430.571 237.893C430.519 237.972 430.452 238.048 430.37 238.12C430.287 238.189 430.187 238.246 430.07 238.291C429.954 238.335 429.819 238.358 429.668 238.358ZM429.751 237.909C429.912 237.909 430.055 237.871 430.179 237.795C430.303 237.72 430.397 237.613 430.463 237.475C430.531 237.338 430.566 237.178 430.566 236.995C430.566 236.813 430.531 236.655 430.463 236.521C430.397 236.383 430.303 236.276 430.179 236.201C430.055 236.122 429.912 236.082 429.751 236.082C429.596 236.082 429.456 236.122 429.333 236.201C429.209 236.276 429.112 236.383 429.044 236.521C428.975 236.655 428.94 236.813 428.94 236.995C428.94 237.178 428.975 237.338 429.044 237.475C429.112 237.613 429.209 237.72 429.333 237.795C429.456 237.871 429.596 237.909 429.751 237.909ZM433.975 238.358C433.761 238.358 433.584 238.322 433.443 238.249C433.302 238.177 433.197 238.081 433.128 237.96C433.06 237.837 433.025 237.704 433.025 237.563C433.025 237.391 433.07 237.245 433.159 237.124C433.249 237.001 433.376 236.906 433.541 236.841C433.706 236.775 433.904 236.743 434.135 236.743H434.81C434.81 236.591 434.788 236.466 434.743 236.366C434.699 236.266 434.632 236.192 434.542 236.144C434.456 236.092 434.346 236.067 434.212 236.067C434.057 236.067 433.925 236.104 433.815 236.18C433.705 236.252 433.636 236.361 433.608 236.505H433.092C433.113 236.323 433.175 236.168 433.278 236.041C433.385 235.91 433.52 235.81 433.686 235.742C433.851 235.669 434.026 235.633 434.212 235.633C434.456 235.633 434.661 235.676 434.826 235.762C434.991 235.848 435.115 235.97 435.197 236.129C435.283 236.283 435.326 236.469 435.326 236.686V238.296H434.878L434.836 237.857C434.798 237.926 434.754 237.991 434.702 238.053C434.651 238.115 434.589 238.168 434.516 238.213C434.448 238.258 434.367 238.292 434.274 238.316C434.184 238.344 434.085 238.358 433.975 238.358ZM434.073 237.94C434.183 237.94 434.282 237.917 434.372 237.873C434.461 237.828 434.537 237.768 434.599 237.692C434.664 237.613 434.712 237.525 434.743 237.429C434.778 237.329 434.797 237.228 434.8 237.124V237.109H434.186C434.038 237.109 433.918 237.128 433.825 237.166C433.735 237.2 433.67 237.248 433.629 237.31C433.588 237.372 433.567 237.444 433.567 237.527C433.567 237.613 433.586 237.687 433.624 237.749C433.665 237.807 433.723 237.854 433.799 237.888C433.875 237.923 433.966 237.94 434.073 237.94ZM437.003 238.296C436.838 238.296 436.695 238.27 436.575 238.218C436.454 238.167 436.361 238.081 436.296 237.96C436.231 237.84 436.198 237.677 436.198 237.47V236.134H435.749V235.695H436.198L436.26 235.045H436.714V235.695H437.452V236.134H436.714V237.475C436.714 237.623 436.745 237.725 436.807 237.78C436.869 237.831 436.975 237.857 437.127 237.857H437.426V238.296H437.003Z" fill="#64748B"/>
<path d="M323.163 16.2958H318.233C317.552 16.2958 317 16.8476 317 17.5283V22.4585C317 23.1392 317.552 23.691 318.233 23.691H323.163C323.843 23.691 324.395 23.1392 324.395 22.4585V17.5283C324.395 16.8476 323.843 16.2958 323.163 16.2958Z" fill="#475569"/>
<path d="M338.163 16.2958H333.233C332.552 16.2958 332 16.8476 332 17.5283V22.4585C332 23.1392 332.552 23.691 333.233 23.691H338.163C338.843 23.691 339.395 23.1392 339.395 22.4585V17.5283C339.395 16.8476 338.843 16.2958 338.163 16.2958Z" fill="#475569"/>
<path d="M374.163 16.2958H369.233C368.552 16.2958 368 16.8476 368 17.5283V22.4585C368 23.1392 368.552 23.691 369.233 23.691H374.163C374.843 23.691 375.395 23.1392 375.395 22.4585V17.5283C375.395 16.8476 374.843 16.2958 374.163 16.2958Z" fill="#475569"/>
<path d="M360.535 14.2958H331.465C330.104 14.2958 329 15.3995 329 16.7609V23.8307C329 25.1922 330.104 26.2958 331.465 26.2958H360.535C361.896 26.2958 363 25.1922 363 23.8307V16.7609C363 15.3995 361.896 14.2958 360.535 14.2958Z" fill="#334155" fill-opacity="0.28"/>
<path d="M359 19.2958H343C342.448 19.2958 342 19.7435 342 20.2958C342 20.8481 342.448 21.2958 343 21.2958H359C359.552 21.2958 360 20.8481 360 20.2958C360 19.7435 359.552 19.2958 359 19.2958Z" fill="#475569"/>
<path opacity="0.5" d="M559 32H413C411.895 32 411 32.8954 411 34V192C411 193.105 411.895 194 413 194H559C560.105 194 561 193.105 561 192V34C561 32.8954 560.105 32 559 32Z" fill="url(#paint1_linear_224_121)"/>
<path d="M445 19.2958H412C411.448 19.2958 411 19.7435 411 20.2958C411 20.8481 411.448 21.2958 412 21.2958H445C445.552 21.2958 446 20.8481 446 20.2958C446 19.7435 445.552 19.2958 445 19.2958Z" fill="#334155"/>
<path opacity="0.5" d="M67 62.5H17C15.067 62.5 13.5 64.067 13.5 66V118C13.5 119.933 15.067 121.5 17 121.5H67C68.933 121.5 70.5 119.933 70.5 118V66C70.5 64.067 68.933 62.5 67 62.5Z" fill="url(#paint2_linear_224_121)" stroke="#00DC82"/>
<path opacity="0.5" d="M144 62H94C91.7909 62 90 63.7909 90 66V118C90 120.209 91.7909 122 94 122H144C146.209 122 148 120.209 148 118V66C148 63.7909 146.209 62 144 62Z" fill="url(#paint3_linear_224_121)"/>
<path opacity="0.5" d="M144 140H94C91.7909 140 90 141.791 90 144V196C90 198.209 91.7909 200 94 200H144C146.209 200 148 198.209 148 196V144C148 141.791 146.209 140 144 140Z" fill="url(#paint4_linear_224_121)"/>
<path opacity="0.5" d="M67 140H17C14.7909 140 13 141.791 13 144V196C13 198.209 14.7909 200 17 200H67C69.2091 200 71 198.209 71 196V144C71 141.791 69.2091 140 67 140Z" fill="url(#paint5_linear_224_121)"/>
<path opacity="0.5" d="M67 218H17C14.7909 218 13 219.791 13 222V274C13 276.209 14.7909 278 17 278H67C69.2091 278 71 276.209 71 274V222C71 219.791 69.2091 218 67 218Z" fill="url(#paint6_linear_224_121)"/>
<path d="M49.2378 243.414L44.1955 238.372C44.1285 238.305 44.0491 238.252 43.9616 238.216C43.8742 238.18 43.7805 238.161 43.6858 238.161H35.0419C34.6598 238.161 34.2933 238.313 34.0232 238.583C33.753 238.853 33.6012 239.22 33.6012 239.602V246.085C33.6012 246.276 33.6771 246.459 33.8122 246.594C33.9473 246.729 34.1305 246.805 34.3215 246.805C34.5126 246.805 34.6958 246.729 34.8309 246.594C34.966 246.459 35.0419 246.276 35.0419 246.085V239.602H42.9655V243.924C42.9655 244.115 43.0414 244.298 43.1765 244.433C43.3116 244.568 43.4948 244.644 43.6858 244.644H48.0078V255.449H47.2875C47.0965 255.449 46.9132 255.525 46.7781 255.66C46.6431 255.795 46.5672 255.978 46.5672 256.169C46.5672 256.36 46.6431 256.544 46.7781 256.679C46.9132 256.814 47.0965 256.89 47.2875 256.89H48.0078C48.3899 256.89 48.7564 256.738 49.0265 256.468C49.2967 256.198 49.4485 255.831 49.4485 255.449V243.924C49.4486 243.829 49.43 243.735 49.3938 243.648C49.3577 243.56 49.3047 243.481 49.2378 243.414ZM44.4062 240.62L46.9895 243.203H44.4062V240.62ZM44.0352 249.056C43.9227 248.994 43.7955 248.963 43.6669 248.966C43.5384 248.97 43.4131 249.008 43.3041 249.076L41.5077 250.198C41.4576 249.856 41.2863 249.543 41.025 249.317C40.7636 249.091 40.4297 248.966 40.0842 248.966H34.3215C33.9394 248.966 33.573 249.118 33.3028 249.388C33.0326 249.658 32.8809 250.025 32.8809 250.407V254.729C32.8809 255.111 33.0326 255.477 33.3028 255.747C33.573 256.018 33.9394 256.169 34.3215 256.169H40.0842C40.4297 256.169 40.7636 256.044 41.025 255.818C41.2863 255.592 41.4576 255.279 41.5077 254.938L43.3041 256.059C43.4131 256.128 43.5383 256.165 43.6668 256.169C43.7953 256.172 43.9224 256.141 44.0349 256.079C44.1473 256.016 44.2411 255.925 44.3064 255.814C44.3716 255.704 44.4061 255.578 44.4062 255.449V249.686C44.4062 249.558 44.3719 249.431 44.3066 249.321C44.2414 249.21 44.1477 249.118 44.0352 249.056ZM40.0842 254.729H34.3215V250.407H40.0842V254.729ZM42.9655 254.15L41.5248 253.249V251.886L42.9655 250.986V254.15Z" fill="#64748B"/>
<path d="M51 114H18C17.4477 114 17 114.448 17 115C17 115.552 17.4477 116 18 116H51C51.5523 116 52 115.552 52 115C52 114.448 51.5523 114 51 114Z" fill="#334155"/>
<path d="M110 114H95C94.4477 114 94 114.448 94 115C94 115.552 94.4477 116 95 116H110C110.552 116 111 115.552 111 115C111 114.448 110.552 114 110 114Z" fill="#334155"/>
<path d="M116 192H95C94.4477 192 94 192.448 94 193C94 193.552 94.4477 194 95 194H116C116.552 194 117 193.552 117 193C117 192.448 116.552 192 116 192Z" fill="#334155"/>
<path d="M60 192H18C17.4477 192 17 192.448 17 193C17 193.552 17.4477 194 18 194H60C60.5523 194 61 193.552 61 193C61 192.448 60.5523 192 60 192Z" fill="#334155"/>
<path d="M60 270H18C17.4477 270 17 270.448 17 271C17 271.552 17.4477 272 18 272H60C60.5523 272 61 271.552 61 271C61 270.448 60.5523 270 60 270Z" fill="#334155"/>
<path opacity="0.5" d="M221 140H171C168.791 140 167 141.791 167 144V196C167 198.209 168.791 200 171 200H221C223.209 200 225 198.209 225 196V144C225 141.791 223.209 140 221 140Z" fill="url(#paint7_linear_224_121)"/>
<path d="M203.238 165.414L198.195 160.372C198.129 160.305 198.049 160.252 197.962 160.216C197.874 160.18 197.78 160.161 197.686 160.161H189.042C188.66 160.161 188.293 160.313 188.023 160.583C187.753 160.853 187.601 161.22 187.601 161.602V168.085C187.601 168.276 187.677 168.459 187.812 168.594C187.947 168.729 188.13 168.805 188.322 168.805C188.513 168.805 188.696 168.729 188.831 168.594C188.966 168.459 189.042 168.276 189.042 168.085V161.602H196.966V165.924C196.966 166.115 197.041 166.298 197.176 166.433C197.312 166.568 197.495 166.644 197.686 166.644H202.008V177.449H201.287C201.096 177.449 200.913 177.525 200.778 177.66C200.643 177.795 200.567 177.978 200.567 178.169C200.567 178.36 200.643 178.544 200.778 178.679C200.913 178.814 201.096 178.89 201.287 178.89H202.008C202.39 178.89 202.756 178.738 203.027 178.468C203.297 178.198 203.448 177.831 203.448 177.449V165.924C203.449 165.829 203.43 165.735 203.394 165.648C203.358 165.56 203.305 165.481 203.238 165.414ZM198.406 162.62L200.989 165.203H198.406V162.62ZM198.035 171.056C197.923 170.994 197.796 170.963 197.667 170.966C197.538 170.97 197.413 171.008 197.304 171.076L195.508 172.198C195.458 171.856 195.286 171.543 195.025 171.317C194.764 171.091 194.43 170.966 194.084 170.966H188.322C187.939 170.966 187.573 171.118 187.303 171.388C187.033 171.658 186.881 172.025 186.881 172.407V176.729C186.881 177.111 187.033 177.477 187.303 177.747C187.573 178.018 187.939 178.169 188.322 178.169H194.084C194.43 178.169 194.764 178.044 195.025 177.818C195.286 177.592 195.458 177.279 195.508 176.938L197.304 178.059C197.413 178.128 197.538 178.165 197.667 178.169C197.795 178.172 197.922 178.141 198.035 178.079C198.147 178.016 198.241 177.925 198.306 177.814C198.372 177.704 198.406 177.578 198.406 177.449V171.686C198.406 171.558 198.372 171.431 198.307 171.321C198.241 171.21 198.148 171.118 198.035 171.056ZM194.084 176.729H188.322V172.407H194.084V176.729ZM196.966 176.15L195.525 175.249V173.886L196.966 172.986V176.15Z" fill="#64748B"/>
<path opacity="0.5" d="M221 218H171C168.791 218 167 219.791 167 222V274C167 276.209 168.791 278 171 278H221C223.209 278 225 276.209 225 274V222C225 219.791 223.209 218 221 218Z" fill="url(#paint8_linear_224_121)"/>
<path d="M198 192H172C171.448 192 171 192.448 171 193C171 193.552 171.448 194 172 194H198C198.552 194 199 193.552 199 193C199 192.448 198.552 192 198 192Z" fill="#334155"/>
<path d="M192 270H172C171.448 270 171 270.448 171 271C171 271.552 171.448 272 172 272H192C192.552 272 193 271.552 193 271C193 270.448 192.552 270 192 270Z" fill="#334155"/>
<path opacity="0.5" d="M298 62H248C245.791 62 244 63.7909 244 66V118C244 120.209 245.791 122 248 122H298C300.209 122 302 120.209 302 118V66C302 63.7909 300.209 62 298 62Z" fill="url(#paint9_linear_224_121)"/>
<path opacity="0.5" d="M298 218H248C245.791 218 244 219.791 244 222V274C244 276.209 245.791 278 248 278H298C300.209 278 302 276.209 302 274V222C302 219.791 300.209 218 298 218Z" fill="url(#paint10_linear_224_121)"/>
<path opacity="0.5" d="M375 140H325C322.791 140 321 141.791 321 144V196C321 198.209 322.791 200 325 200H375C377.209 200 379 198.209 379 196V144C379 141.791 377.209 140 375 140Z" fill="url(#paint11_linear_224_121)"/>
<path opacity="0.5" d="M375 218H325C322.791 218 321 219.791 321 222V274C321 276.209 322.791 278 325 278H375C377.209 278 379 276.209 379 274V222C379 219.791 377.209 218 375 218Z" fill="url(#paint12_linear_224_121)"/>
<path d="M282 114H249C248.448 114 248 114.448 248 115C248 115.552 248.448 116 249 116H282C282.552 116 283 115.552 283 115C283 114.448 282.552 114 282 114Z" fill="#334155"/>
<path d="M268 192H249C248.448 192 248 192.448 248 193C248 193.552 248.448 194 249 194H268C268.552 194 269 193.552 269 193C269 192.448 268.552 192 268 192Z" fill="#334155"/>
<path d="M291 270H249C248.448 270 248 270.448 248 271C248 271.552 248.448 272 249 272H291C291.552 272 292 271.552 292 271C292 270.448 291.552 270 291 270Z" fill="#334155"/>
<path d="M356 192H326C325.448 192 325 192.448 325 193C325 193.552 325.448 194 326 194H356C356.552 194 357 193.552 357 193C357 192.448 356.552 192 356 192Z" fill="#334155"/>
<path d="M368 270H326C325.448 270 325 270.448 325 271C325 271.552 325.448 272 326 272H368C368.552 272 369 271.552 369 271C369 270.448 368.552 270 368 270Z" fill="#334155"/>
<path opacity="0.5" d="M221 62H171C168.791 62 167 63.7909 167 66V118C167 120.209 168.791 122 171 122H221C223.209 122 225 120.209 225 118V66C225 63.7909 223.209 62 221 62Z" fill="url(#paint13_linear_224_121)"/>
<path d="M215 114H172C171.448 114 171 114.448 171 115C171 115.552 171.448 116 172 116H215C215.552 116 216 115.552 216 115C216 114.448 215.552 114 215 114Z" fill="#334155"/>
<path opacity="0.5" d="M296 140H246C243.791 140 242 141.791 242 144V196C242 198.209 243.791 200 246 200H296C298.209 200 300 198.209 300 196V144C300 141.791 298.209 140 296 140Z" fill="url(#paint14_linear_224_121)"/>
<path d="M290 192H247C246.448 192 246 192.448 246 193C246 193.552 246.448 194 247 194H290C290.552 194 291 193.552 291 193C291 192.448 290.552 192 290 192Z" fill="#334155"/>
<path d="M279.169 171.686C279.169 171.877 279.093 172.061 278.958 172.196C278.823 172.331 278.64 172.407 278.449 172.407H276.288V173.847H277.729C277.92 173.847 278.103 173.923 278.238 174.058C278.373 174.193 278.449 174.377 278.449 174.568C278.449 174.759 278.373 174.942 278.238 175.077C278.103 175.212 277.92 175.288 277.729 175.288H276.288V176.729C276.288 176.92 276.212 177.103 276.077 177.238C275.942 177.373 275.759 177.449 275.568 177.449C275.376 177.449 275.193 177.373 275.058 177.238C274.923 177.103 274.847 176.92 274.847 176.729V171.686C274.847 171.495 274.923 171.312 275.058 171.177C275.193 171.042 275.376 170.966 275.568 170.966H278.449C278.64 170.966 278.823 171.042 278.958 171.177C279.093 171.312 279.169 171.495 279.169 171.686ZM267.284 173.487C267.284 174.156 267.018 174.797 266.545 175.27C266.072 175.743 265.431 176.008 264.763 176.008H264.042V176.729C264.042 176.92 263.966 177.103 263.831 177.238C263.696 177.373 263.513 177.449 263.322 177.449C263.131 177.449 262.948 177.373 262.813 177.238C262.677 177.103 262.602 176.92 262.602 176.729V171.686C262.602 171.495 262.677 171.312 262.813 171.177C262.948 171.042 263.131 170.966 263.322 170.966H264.763C265.431 170.966 266.072 171.232 266.545 171.704C267.018 172.177 267.284 172.818 267.284 173.487ZM265.843 173.487C265.843 173.201 265.729 172.926 265.527 172.723C265.324 172.52 265.049 172.407 264.763 172.407H264.042V174.568H264.763C265.049 174.568 265.324 174.454 265.527 174.251C265.729 174.049 265.843 173.774 265.843 173.487ZM273.767 174.207C273.767 175.067 273.425 175.892 272.817 176.5C272.209 177.107 271.385 177.449 270.525 177.449H269.085C268.894 177.449 268.71 177.373 268.575 177.238C268.44 177.103 268.364 176.92 268.364 176.729V171.686C268.364 171.495 268.44 171.312 268.575 171.177C268.71 171.042 268.894 170.966 269.085 170.966H270.525C271.385 170.966 272.209 171.308 272.817 171.915C273.425 172.523 273.767 173.348 273.767 174.207ZM272.326 174.207C272.326 173.73 272.136 173.272 271.799 172.934C271.461 172.596 271.003 172.407 270.525 172.407H269.805V176.008H270.525C271.003 176.008 271.461 175.819 271.799 175.481C272.136 175.143 272.326 174.685 272.326 174.207ZM262.602 168.085V161.602C262.602 161.22 262.753 160.853 263.024 160.583C263.294 160.313 263.66 160.161 264.042 160.161H272.686C272.781 160.161 272.875 160.18 272.962 160.216C273.049 160.252 273.129 160.305 273.196 160.372L278.238 165.414C278.305 165.481 278.358 165.56 278.394 165.648C278.43 165.735 278.449 165.829 278.449 165.924V168.085C278.449 168.276 278.373 168.459 278.238 168.594C278.103 168.729 277.92 168.805 277.729 168.805C277.537 168.805 277.354 168.729 277.219 168.594C277.084 168.459 277.008 168.276 277.008 168.085V166.644H272.686C272.495 166.644 272.312 166.568 272.177 166.433C272.042 166.298 271.966 166.115 271.966 165.924V161.602H264.042V168.085C264.042 168.276 263.966 168.459 263.831 168.594C263.696 168.729 263.513 168.805 263.322 168.805C263.131 168.805 262.948 168.729 262.813 168.594C262.677 168.459 262.602 168.276 262.602 168.085ZM273.407 165.203H275.99L273.407 162.62V165.203ZM358.169 249.686C358.169 249.877 358.093 250.061 357.958 250.196C357.823 250.331 357.64 250.407 357.449 250.407H355.288V251.847H356.729C356.92 251.847 357.103 251.923 357.238 252.058C357.373 252.193 357.449 252.377 357.449 252.568C357.449 252.759 357.373 252.942 357.238 253.077C357.103 253.212 356.92 253.288 356.729 253.288H355.288V254.729C355.288 254.92 355.212 255.103 355.077 255.238C354.942 255.373 354.759 255.449 354.568 255.449C354.376 255.449 354.193 255.373 354.058 255.238C353.923 255.103 353.847 254.92 353.847 254.729V249.686C353.847 249.495 353.923 249.312 354.058 249.177C354.193 249.042 354.376 248.966 354.568 248.966H357.449C357.64 248.966 357.823 249.042 357.958 249.177C358.093 249.312 358.169 249.495 358.169 249.686ZM346.284 251.487C346.284 252.156 346.018 252.797 345.545 253.27C345.072 253.743 344.431 254.008 343.763 254.008H343.042V254.729C343.042 254.92 342.966 255.103 342.831 255.238C342.696 255.373 342.513 255.449 342.322 255.449C342.131 255.449 341.948 255.373 341.813 255.238C341.677 255.103 341.602 254.92 341.602 254.729V249.686C341.602 249.495 341.677 249.312 341.813 249.177C341.948 249.042 342.131 248.966 342.322 248.966H343.763C344.431 248.966 345.072 249.232 345.545 249.704C346.018 250.177 346.284 250.818 346.284 251.487ZM344.843 251.487C344.843 251.201 344.729 250.926 344.527 250.723C344.324 250.52 344.049 250.407 343.763 250.407H343.042V252.568H343.763C344.049 252.568 344.324 252.454 344.527 252.251C344.729 252.049 344.843 251.774 344.843 251.487ZM352.767 252.207C352.767 253.067 352.425 253.892 351.817 254.5C351.209 255.107 350.385 255.449 349.525 255.449H348.085C347.894 255.449 347.71 255.373 347.575 255.238C347.44 255.103 347.364 254.92 347.364 254.729V249.686C347.364 249.495 347.44 249.312 347.575 249.177C347.71 249.042 347.894 248.966 348.085 248.966H349.525C350.385 248.966 351.209 249.308 351.817 249.915C352.425 250.523 352.767 251.348 352.767 252.207ZM351.326 252.207C351.326 251.73 351.136 251.272 350.799 250.934C350.461 250.596 350.003 250.407 349.525 250.407H348.805V254.008H349.525C350.003 254.008 350.461 253.819 350.799 253.481C351.136 253.143 351.326 252.685 351.326 252.207ZM341.602 246.085V239.602C341.602 239.22 341.753 238.853 342.024 238.583C342.294 238.313 342.66 238.161 343.042 238.161H351.686C351.781 238.161 351.875 238.18 351.962 238.216C352.049 238.252 352.129 238.305 352.196 238.372L357.238 243.414C357.305 243.481 357.358 243.56 357.394 243.648C357.43 243.735 357.449 243.829 357.449 243.924V246.085C357.449 246.276 357.373 246.459 357.238 246.594C357.103 246.729 356.92 246.805 356.729 246.805C356.537 246.805 356.354 246.729 356.219 246.594C356.084 246.459 356.008 246.276 356.008 246.085V244.644H351.686C351.495 244.644 351.312 244.568 351.177 244.433C351.042 244.298 350.966 244.115 350.966 243.924V239.602H343.042V246.085C343.042 246.276 342.966 246.459 342.831 246.594C342.696 246.729 342.513 246.805 342.322 246.805C342.131 246.805 341.948 246.729 341.813 246.594C341.677 246.459 341.602 246.276 341.602 246.085ZM352.407 243.203H354.99L352.407 240.62V243.203ZM127.169 171.686C127.169 171.877 127.093 172.061 126.958 172.196C126.823 172.331 126.64 172.407 126.449 172.407H124.288V173.847H125.729C125.92 173.847 126.103 173.923 126.238 174.058C126.373 174.193 126.449 174.377 126.449 174.568C126.449 174.759 126.373 174.942 126.238 175.077C126.103 175.212 125.92 175.288 125.729 175.288H124.288V176.729C124.288 176.92 124.212 177.103 124.077 177.238C123.942 177.373 123.759 177.449 123.568 177.449C123.376 177.449 123.193 177.373 123.058 177.238C122.923 177.103 122.847 176.92 122.847 176.729V171.686C122.847 171.495 122.923 171.312 123.058 171.177C123.193 171.042 123.376 170.966 123.568 170.966H126.449C126.64 170.966 126.823 171.042 126.958 171.177C127.093 171.312 127.169 171.495 127.169 171.686ZM115.284 173.487C115.284 174.156 115.018 174.797 114.545 175.27C114.072 175.743 113.431 176.008 112.763 176.008H112.042V176.729C112.042 176.92 111.966 177.103 111.831 177.238C111.696 177.373 111.513 177.449 111.322 177.449C111.131 177.449 110.948 177.373 110.813 177.238C110.677 177.103 110.602 176.92 110.602 176.729V171.686C110.602 171.495 110.677 171.312 110.813 171.177C110.948 171.042 111.131 170.966 111.322 170.966H112.763C113.431 170.966 114.072 171.232 114.545 171.704C115.018 172.177 115.284 172.818 115.284 173.487ZM113.843 173.487C113.843 173.201 113.729 172.926 113.527 172.723C113.324 172.52 113.049 172.407 112.763 172.407H112.042V174.568H112.763C113.049 174.568 113.324 174.454 113.527 174.251C113.729 174.049 113.843 173.774 113.843 173.487ZM121.767 174.207C121.767 175.067 121.425 175.892 120.817 176.5C120.209 177.107 119.385 177.449 118.525 177.449H117.085C116.894 177.449 116.71 177.373 116.575 177.238C116.44 177.103 116.364 176.92 116.364 176.729V171.686C116.364 171.495 116.44 171.312 116.575 171.177C116.71 171.042 116.894 170.966 117.085 170.966H118.525C119.385 170.966 120.209 171.308 120.817 171.915C121.425 172.523 121.767 173.348 121.767 174.207ZM120.326 174.207C120.326 173.73 120.136 173.272 119.799 172.934C119.461 172.596 119.003 172.407 118.525 172.407H117.805V176.008H118.525C119.003 176.008 119.461 175.819 119.799 175.481C120.136 175.143 120.326 174.685 120.326 174.207ZM110.602 168.085V161.602C110.602 161.22 110.753 160.853 111.024 160.583C111.294 160.313 111.66 160.161 112.042 160.161H120.686C120.781 160.161 120.875 160.18 120.962 160.216C121.049 160.252 121.129 160.305 121.196 160.372L126.238 165.414C126.305 165.481 126.358 165.56 126.394 165.648C126.43 165.735 126.449 165.829 126.449 165.924V168.085C126.449 168.276 126.373 168.459 126.238 168.594C126.103 168.729 125.92 168.805 125.729 168.805C125.537 168.805 125.354 168.729 125.219 168.594C125.084 168.459 125.008 168.276 125.008 168.085V166.644H120.686C120.495 166.644 120.312 166.568 120.177 166.433C120.042 166.298 119.966 166.115 119.966 165.924V161.602H112.042V168.085C112.042 168.276 111.966 168.459 111.831 168.594C111.696 168.729 111.513 168.805 111.322 168.805C111.131 168.805 110.948 168.729 110.813 168.594C110.677 168.459 110.602 168.276 110.602 168.085ZM121.407 165.203H123.99L121.407 162.62V165.203ZM203.238 87.414L198.195 82.3717C198.129 82.3048 198.049 82.2518 197.962 82.2157C197.874 82.1795 197.78 82.1609 197.686 82.161H189.042C188.66 82.161 188.293 82.3128 188.023 82.583C187.753 82.8531 187.601 83.2196 187.601 83.6017V90.0847C187.601 90.2757 187.677 90.4589 187.812 90.594C187.947 90.7291 188.13 90.805 188.322 90.805C188.513 90.805 188.696 90.7291 188.831 90.594C188.966 90.4589 189.042 90.2757 189.042 90.0847V83.6017H196.966V87.9237C196.966 88.1147 197.041 88.2979 197.176 88.433C197.312 88.5681 197.495 88.644 197.686 88.644H202.008V99.449H201.287C201.096 99.449 200.913 99.5249 200.778 99.66C200.643 99.795 200.567 99.9783 200.567 100.169C200.567 100.36 200.643 100.544 200.778 100.679C200.913 100.814 201.096 100.89 201.287 100.89H202.008C202.39 100.89 202.756 100.738 203.027 100.468C203.297 100.198 203.448 99.8311 203.448 99.449V87.9237C203.449 87.829 203.43 87.7353 203.394 87.6479C203.358 87.5604 203.305 87.481 203.238 87.414ZM198.406 84.62L200.989 87.2033H198.406V84.62ZM198.035 93.056C197.923 92.9938 197.796 92.9628 197.667 92.9662C197.538 92.9697 197.413 93.0076 197.304 93.0758L195.508 94.1978C195.458 93.8558 195.286 93.5433 195.025 93.3172C194.764 93.0911 194.43 92.9664 194.084 92.966H188.322C187.939 92.966 187.573 93.1178 187.303 93.388C187.033 93.6581 186.881 94.0246 186.881 94.4067V98.7286C186.881 99.1107 187.033 99.4772 187.303 99.7474C187.573 100.018 187.939 100.169 188.322 100.169H194.084C194.43 100.169 194.764 100.044 195.025 99.8181C195.286 99.592 195.458 99.2795 195.508 98.9375L197.304 100.059C197.413 100.128 197.538 100.165 197.667 100.169C197.795 100.172 197.922 100.141 198.035 100.079C198.147 100.016 198.241 99.9252 198.306 99.8145C198.372 99.7037 198.406 99.5775 198.406 99.449V93.6863C198.406 93.5577 198.372 93.4314 198.307 93.3206C198.241 93.2098 198.148 93.1184 198.035 93.056ZM194.084 98.7286H188.322V94.4067H194.084V98.7286ZM196.966 98.1497L195.525 97.2493V95.886L196.966 94.9856V98.1497Z" fill="#64748B"/>
<path opacity="0.32" d="M375 62H325C322.791 62 321 63.7909 321 66V118C321 120.209 322.791 122 325 122H375C377.209 122 379 120.209 379 118V66C379 63.7909 377.209 62 375 62Z" fill="#64748B"/>
<path d="M369 114H326C325.448 114 325 114.448 325 115C325 115.552 325.448 116 326 116H369C369.552 116 370 115.552 370 115C370 114.448 369.552 114 369 114Z" fill="#334155"/>
<path opacity="0.5" d="M144 218H94C91.7909 218 90 219.791 90 222V274C90 276.209 91.7909 278 94 278H144C146.209 278 148 276.209 148 274V222C148 219.791 146.209 218 144 218Z" fill="url(#paint15_linear_224_121)"/>
<path d="M138 270H95C94.4477 270 94 270.448 94 271C94 271.552 94.4477 272 95 272H138C138.552 272 139 271.552 139 271C139 270.448 138.552 270 138 270Z" fill="#334155"/>
<path opacity="0.65" d="M496 253.296H461C460.448 253.296 460 253.744 460 254.296C460 254.848 460.448 255.296 461 255.296H496C496.552 255.296 497 254.848 497 254.296C497 253.744 496.552 253.296 496 253.296Z" fill="#475569"/>
<path opacity="0.65" d="M508.86 250.761H503.93C503.249 250.761 502.697 251.313 502.697 251.994V256.924C502.697 257.604 503.249 258.156 503.93 258.156H508.86C509.541 258.156 510.092 257.604 510.092 256.924V251.994C510.092 251.313 509.541 250.761 508.86 250.761Z" fill="#475569"/>
<path d="M558.535 248.604H410.465C409.273 248.604 408.308 249.57 408.308 250.761V257.831C408.308 259.022 409.273 259.988 410.465 259.988H558.535C559.726 259.988 560.692 259.022 560.692 257.831V250.761C560.692 249.57 559.726 248.604 558.535 248.604Z" stroke="#E2E8F0" stroke-opacity="0.08" stroke-width="0.616269"/>
<path d="M558.535 263.604H410.465C409.273 263.604 408.308 264.57 408.308 265.761V272.831C408.308 274.022 409.273 274.988 410.465 274.988H558.535C559.726 274.988 560.692 274.022 560.692 272.831V265.761C560.692 264.57 559.726 263.604 558.535 263.604Z" stroke="url(#paint16_linear_224_121)" stroke-opacity="0.08" stroke-width="0.616269"/>
</g>
</g>
<defs>
<linearGradient id="paint0_linear_224_121" x1="nan" y1="nan" x2="nan" y2="nan" gradientUnits="userSpaceOnUse">
<stop stop-color="#E2E8F0"/>
<stop offset="1" stop-color="#E2E8F0" stop-opacity="0"/>
</linearGradient>
<linearGradient id="paint1_linear_224_121" x1="486" y1="32" x2="486" y2="194" gradientUnits="userSpaceOnUse">
<stop stop-color="#64748B"/>
<stop offset="1" stop-color="#64748B" stop-opacity="0.12"/>
</linearGradient>
<linearGradient id="paint2_linear_224_121" x1="42" y1="62" x2="42" y2="122" gradientUnits="userSpaceOnUse">
<stop stop-color="#64748B"/>
<stop offset="1" stop-color="#64748B" stop-opacity="0.12"/>
</linearGradient>
<linearGradient id="paint3_linear_224_121" x1="119" y1="62" x2="119" y2="122" gradientUnits="userSpaceOnUse">
<stop stop-color="#64748B"/>
<stop offset="1" stop-color="#64748B" stop-opacity="0.12"/>
</linearGradient>
<linearGradient id="paint4_linear_224_121" x1="119" y1="140" x2="119" y2="200" gradientUnits="userSpaceOnUse">
<stop stop-color="#64748B"/>
<stop offset="1" stop-color="#64748B" stop-opacity="0.12"/>
</linearGradient>
<linearGradient id="paint5_linear_224_121" x1="42" y1="140" x2="42" y2="200" gradientUnits="userSpaceOnUse">
<stop stop-color="#64748B"/>
<stop offset="1" stop-color="#64748B" stop-opacity="0.12"/>
</linearGradient>
<linearGradient id="paint6_linear_224_121" x1="42" y1="218" x2="42" y2="278" gradientUnits="userSpaceOnUse">
<stop stop-color="#64748B"/>
<stop offset="1" stop-color="#64748B" stop-opacity="0.12"/>
</linearGradient>
<linearGradient id="paint7_linear_224_121" x1="196" y1="140" x2="196" y2="200" gradientUnits="userSpaceOnUse">
<stop stop-color="#64748B"/>
<stop offset="1" stop-color="#64748B" stop-opacity="0.12"/>
</linearGradient>
<linearGradient id="paint8_linear_224_121" x1="196" y1="218" x2="196" y2="278" gradientUnits="userSpaceOnUse">
<stop stop-color="#64748B"/>
<stop offset="1" stop-color="#64748B" stop-opacity="0.12"/>
</linearGradient>
<linearGradient id="paint9_linear_224_121" x1="273" y1="62" x2="273" y2="122" gradientUnits="userSpaceOnUse">
<stop stop-color="#64748B"/>
<stop offset="1" stop-color="#64748B" stop-opacity="0.12"/>
</linearGradient>
<linearGradient id="paint10_linear_224_121" x1="273" y1="218" x2="273" y2="278" gradientUnits="userSpaceOnUse">
<stop stop-color="#64748B"/>
<stop offset="1" stop-color="#64748B" stop-opacity="0.12"/>
</linearGradient>
<linearGradient id="paint11_linear_224_121" x1="350" y1="140" x2="350" y2="200" gradientUnits="userSpaceOnUse">
<stop stop-color="#64748B"/>
<stop offset="1" stop-color="#64748B" stop-opacity="0.12"/>
</linearGradient>
<linearGradient id="paint12_linear_224_121" x1="350" y1="218" x2="350" y2="278" gradientUnits="userSpaceOnUse">
<stop stop-color="#64748B"/>
<stop offset="1" stop-color="#64748B" stop-opacity="0.12"/>
</linearGradient>
<linearGradient id="paint13_linear_224_121" x1="196" y1="62" x2="196" y2="122" gradientUnits="userSpaceOnUse">
<stop stop-color="#64748B"/>
<stop offset="1" stop-color="#64748B" stop-opacity="0.12"/>
</linearGradient>
<linearGradient id="paint14_linear_224_121" x1="271" y1="140" x2="271" y2="200" gradientUnits="userSpaceOnUse">
<stop stop-color="#64748B"/>
<stop offset="1" stop-color="#64748B" stop-opacity="0.12"/>
</linearGradient>
<linearGradient id="paint15_linear_224_121" x1="119" y1="218" x2="119" y2="278" gradientUnits="userSpaceOnUse">
<stop stop-color="#64748B"/>
<stop offset="1" stop-color="#64748B" stop-opacity="0.12"/>
</linearGradient>
<linearGradient id="paint16_linear_224_121" x1="484.5" y1="263.296" x2="484.5" y2="275.296" gradientUnits="userSpaceOnUse">
<stop stop-color="#E2E8F0"/>
<stop offset="1" stop-color="#E2E8F0" stop-opacity="0"/>
</linearGradient>
<clipPath id="clip0_224_121">
<rect width="581" height="317" fill="white"/>
</clipPath>
</defs>
</svg>
