<svg width="581" height="310" viewBox="0 0 581 310" fill="none" xmlns="http://www.w3.org/2000/svg">
<g clip-path="url(#clip0_224_2)">
<rect width="581" height="310" fill="#020420"/>
<mask id="mask0_224_2" style="mask-type:luminance" maskUnits="userSpaceOnUse" x="0" y="0" width="581" height="310">
<path d="M573 0H8C3.58172 0 0 3.58172 0 8V302C0 306.418 3.58172 310 8 310H573C577.418 310 581 306.418 581 302V8C581 3.58172 577.418 0 573 0Z" fill="white"/>
</mask>
<g mask="url(#mask0_224_2)">
<path d="M18.5127 88.4355V83.521H19.2148V85.6553L21.1806 83.521H22.0582L20.2328 85.4728L22.0933 88.4355H21.2368L19.7343 86.0204L19.2148 86.575V88.4355H18.5127ZM24.0824 88.5198C23.7454 88.5198 23.4458 88.4426 23.1837 88.2881C22.9216 88.1337 22.7157 87.9183 22.5659 87.6422C22.4208 87.366 22.3483 87.0454 22.3483 86.6804C22.3483 86.3059 22.4208 85.9806 22.5659 85.7045C22.7157 85.4236 22.9216 85.206 23.1837 85.0515C23.4458 84.8924 23.7501 84.8128 24.0964 84.8128C24.4428 84.8128 24.74 84.8901 24.9881 85.0445C25.2361 85.199 25.428 85.4049 25.5638 85.6623C25.6995 85.9151 25.7674 86.1959 25.7674 86.5048C25.7674 86.5516 25.765 86.6031 25.7604 86.6593C25.7604 86.7108 25.758 86.7693 25.7533 86.8348H22.8608V86.3363H25.0653C25.0513 86.0415 24.953 85.8121 24.7704 85.6483C24.5879 85.4798 24.3609 85.3955 24.0894 85.3955C23.8975 85.3955 23.722 85.44 23.5629 85.5289C23.4037 85.6132 23.275 85.7396 23.1767 85.9081C23.0831 86.0719 23.0363 86.2802 23.0363 86.5329V86.7295C23.0363 86.9916 23.0831 87.2139 23.1767 87.3965C23.275 87.5743 23.4037 87.7101 23.5629 87.8037C23.722 87.8926 23.8952 87.9371 24.0824 87.9371C24.3071 87.9371 24.4919 87.8879 24.637 87.7896C24.7821 87.6913 24.8898 87.5579 24.96 87.3895H25.6621C25.6012 87.6048 25.4982 87.799 25.3532 87.9722C25.2081 88.1407 25.0279 88.2741 24.8126 88.3724C24.6019 88.4707 24.3585 88.5198 24.0824 88.5198ZM26.8038 89.9801L27.6673 88.0424H27.4637L26.0666 84.8971H26.8248L27.9341 87.4667L29.0504 84.8971H29.7876L27.5409 89.9801H26.8038ZM189.668 88.5198C189.186 88.5198 188.769 88.4145 188.418 88.2039C188.072 87.9886 187.803 87.6913 187.611 87.3122C187.424 86.9284 187.33 86.4838 187.33 85.9783C187.33 85.4775 187.424 85.0351 187.611 84.6513C187.803 84.2675 188.072 83.9703 188.418 83.7597C188.769 83.5444 189.186 83.4368 189.668 83.4368C190.244 83.4368 190.709 83.5748 191.065 83.851C191.425 84.1271 191.655 84.5156 191.753 85.0164H190.981C190.911 84.7262 190.765 84.4945 190.545 84.3214C190.33 84.1482 190.038 84.0616 189.668 84.0616C189.336 84.0616 189.048 84.1388 188.804 84.2933C188.561 84.4477 188.374 84.6677 188.243 84.9532C188.112 85.2388 188.046 85.5804 188.046 85.9783C188.046 86.3761 188.112 86.7201 188.243 87.0103C188.374 87.2958 188.561 87.5158 188.804 87.6703C189.048 87.8201 189.336 87.8949 189.668 87.8949C190.038 87.8949 190.33 87.813 190.545 87.6492C190.765 87.4807 190.911 87.2537 190.981 86.9682H191.753C191.655 87.455 191.425 87.8364 191.065 88.1126C190.709 88.3841 190.244 88.5198 189.668 88.5198ZM192.558 88.4355V84.8971H193.19L193.253 85.564C193.333 85.4049 193.435 85.2715 193.562 85.1639C193.688 85.0515 193.836 84.9649 194.004 84.9041C194.177 84.8432 194.374 84.8128 194.594 84.8128V85.557H194.341C194.196 85.557 194.058 85.5757 193.927 85.6132C193.796 85.646 193.679 85.7045 193.576 85.7887C193.478 85.873 193.4 85.9876 193.344 86.1327C193.288 86.2778 193.26 86.458 193.26 86.6733V88.4355H192.558ZM196.737 88.5198C196.4 88.5198 196.1 88.4426 195.838 88.2881C195.576 88.1337 195.37 87.9183 195.22 87.6422C195.075 87.366 195.002 87.0454 195.002 86.6804C195.002 86.3059 195.075 85.9806 195.22 85.7045C195.37 85.4236 195.576 85.206 195.838 85.0515C196.1 84.8924 196.404 84.8128 196.751 84.8128C197.097 84.8128 197.394 84.8901 197.642 85.0445C197.89 85.199 198.082 85.4049 198.218 85.6623C198.354 85.9151 198.422 86.1959 198.422 86.5048C198.422 86.5516 198.419 86.6031 198.415 86.6593C198.415 86.7108 198.412 86.7693 198.408 86.8348H195.515V86.3363H197.719C197.705 86.0415 197.607 85.8121 197.425 85.6483C197.242 85.4798 197.015 85.3955 196.744 85.3955C196.552 85.3955 196.376 85.44 196.217 85.5289C196.058 85.6132 195.929 85.7396 195.831 85.9081C195.737 86.0719 195.69 86.2802 195.69 86.5329V86.7295C195.69 86.9916 195.737 87.2139 195.831 87.3965C195.929 87.5743 196.058 87.7101 196.217 87.8037C196.376 87.8926 196.549 87.9371 196.737 87.9371C196.961 87.9371 197.146 87.8879 197.291 87.7896C197.436 87.6913 197.544 87.5579 197.614 87.3895H198.316C198.255 87.6048 198.152 87.799 198.007 87.9722C197.862 88.1407 197.682 88.2741 197.467 88.3724C197.256 88.4707 197.013 88.5198 196.737 88.5198ZM200.374 88.5198C200.084 88.5198 199.843 88.4707 199.651 88.3724C199.459 88.2741 199.316 88.143 199.223 87.9792C199.129 87.8107 199.082 87.6305 199.082 87.4386C199.082 87.2046 199.143 87.0056 199.265 86.8418C199.386 86.6733 199.56 86.5446 199.784 86.4557C200.009 86.3668 200.278 86.3223 200.592 86.3223H201.511C201.511 86.1163 201.481 85.9455 201.42 85.8098C201.359 85.674 201.268 85.5734 201.146 85.5079C201.029 85.4377 200.88 85.4026 200.697 85.4026C200.486 85.4026 200.306 85.4541 200.156 85.557C200.007 85.6553 199.913 85.8028 199.876 85.9993H199.173C199.202 85.7513 199.286 85.5406 199.426 85.3675C199.571 85.1896 199.756 85.0539 199.981 84.9603C200.206 84.862 200.444 84.8128 200.697 84.8128C201.029 84.8128 201.308 84.8713 201.532 84.9883C201.757 85.1054 201.926 85.2715 202.038 85.4868C202.155 85.6974 202.213 85.9502 202.213 86.2451V88.4355H201.603L201.547 87.8388C201.495 87.9324 201.434 88.0213 201.364 88.1056C201.294 88.1898 201.21 88.2624 201.111 88.3232C201.018 88.3841 200.908 88.4309 200.781 88.4636C200.66 88.5011 200.524 88.5198 200.374 88.5198ZM200.507 87.9511C200.657 87.9511 200.793 87.9207 200.915 87.8598C201.036 87.799 201.139 87.7171 201.224 87.6141C201.312 87.5065 201.378 87.3871 201.42 87.2561C201.467 87.1203 201.493 86.9822 201.497 86.8418V86.8208H200.662C200.461 86.8208 200.297 86.8465 200.17 86.898C200.049 86.9448 199.96 87.0103 199.904 87.0946C199.847 87.1788 199.819 87.2771 199.819 87.3895C199.819 87.5065 199.845 87.6071 199.897 87.6913C199.953 87.7709 200.032 87.8341 200.135 87.8809C200.238 87.9277 200.362 87.9511 200.507 87.9511ZM204.495 88.4355C204.27 88.4355 204.076 88.4004 203.912 88.3302C203.748 88.26 203.622 88.143 203.533 87.9792C203.444 87.8154 203.399 87.5931 203.399 87.3122V85.4938H202.788V84.8971H203.399L203.484 84.0125H204.101V84.8971H205.105V85.4938H204.101V87.3192C204.101 87.5205 204.143 87.6586 204.228 87.7335C204.312 87.8037 204.457 87.8388 204.663 87.8388H205.07V88.4355H204.495ZM207.384 88.5198C207.047 88.5198 206.748 88.4426 206.486 88.2881C206.224 88.1337 206.018 87.9183 205.868 87.6422C205.723 87.366 205.65 87.0454 205.65 86.6804C205.65 86.3059 205.723 85.9806 205.868 85.7045C206.018 85.4236 206.224 85.206 206.486 85.0515C206.748 84.8924 207.052 84.8128 207.398 84.8128C207.745 84.8128 208.042 84.8901 208.29 85.0445C208.538 85.199 208.73 85.4049 208.866 85.6623C209.001 85.9151 209.069 86.1959 209.069 86.5048C209.069 86.5516 209.067 86.6031 209.062 86.6593C209.062 86.7108 209.06 86.7693 209.055 86.8348H206.163V86.3363H208.367C208.353 86.0415 208.255 85.8121 208.072 85.6483C207.89 85.4798 207.663 85.3955 207.391 85.3955C207.199 85.3955 207.024 85.44 206.865 85.5289C206.706 85.6132 206.577 85.7396 206.479 85.9081C206.385 86.0719 206.338 86.2802 206.338 86.5329V86.7295C206.338 86.9916 206.385 87.2139 206.479 87.3965C206.577 87.5743 206.706 87.7101 206.865 87.8037C207.024 87.8926 207.197 87.9371 207.384 87.9371C207.609 87.9371 207.794 87.8879 207.939 87.7896C208.084 87.6913 208.192 87.5579 208.262 87.3895H208.964C208.903 87.6048 208.8 87.799 208.655 87.9722C208.51 88.1407 208.33 88.2741 208.114 88.3724C207.904 88.4707 207.66 88.5198 207.384 88.5198ZM211.422 88.5198C211.085 88.5198 210.788 88.4402 210.53 88.2811C210.273 88.1173 210.072 87.8973 209.927 87.6211C209.786 87.3403 209.716 87.022 209.716 86.6663C209.716 86.3059 209.786 85.9876 209.927 85.7115C210.072 85.4353 210.273 85.2177 210.53 85.0586C210.792 84.8947 211.092 84.8128 211.429 84.8128C211.705 84.8128 211.949 84.869 212.159 84.9813C212.37 85.089 212.534 85.2434 212.651 85.4447V83.3806H213.353V88.4355H212.721L212.651 87.8879C212.58 87.9956 212.489 88.0985 212.377 88.1968C212.264 88.2905 212.129 88.3677 211.97 88.4285C211.81 88.4894 211.628 88.5198 211.422 88.5198ZM211.534 87.909C211.754 87.909 211.949 87.8575 212.117 87.7545C212.286 87.6516 212.414 87.5065 212.503 87.3192C212.597 87.132 212.644 86.9144 212.644 86.6663C212.644 86.4182 212.597 86.2029 212.503 86.0204C212.414 85.8332 212.286 85.6881 212.117 85.5851C211.949 85.4775 211.754 85.4236 211.534 85.4236C211.324 85.4236 211.134 85.4775 210.966 85.5851C210.797 85.6881 210.666 85.8332 210.572 86.0204C210.479 86.2029 210.432 86.4182 210.432 86.6663C210.432 86.9144 210.479 87.132 210.572 87.3192C210.666 87.5065 210.797 87.6516 210.966 87.7545C211.134 87.8575 211.324 87.909 211.534 87.909ZM281.513 88.4355V83.521H284.616V84.0967H282.215V85.6694H284.405V86.231H282.215V87.8598H284.616V88.4355H281.513ZM285.151 88.4355L286.373 86.6663L285.151 84.8971H285.91L286.836 86.2731L287.77 84.8971H288.521L287.3 86.6663L288.521 88.4355H287.77L286.836 87.0525L285.91 88.4355H285.151ZM289.136 89.9801V84.8971H289.768L289.838 85.4447C289.913 85.337 290.006 85.2364 290.119 85.1428C290.231 85.0445 290.364 84.9649 290.519 84.9041C290.678 84.8432 290.863 84.8128 291.074 84.8128C291.411 84.8128 291.705 84.8947 291.958 85.0586C292.216 85.2224 292.415 85.4447 292.555 85.7255C292.7 86.0017 292.773 86.3176 292.773 86.6733C292.773 87.0291 292.7 87.3473 292.555 87.6282C292.41 87.9043 292.209 88.122 291.951 88.2811C291.698 88.4402 291.404 88.5198 291.067 88.5198C290.79 88.5198 290.547 88.466 290.336 88.3583C290.126 88.246 289.96 88.0915 289.838 87.8949V89.9801H289.136ZM290.954 87.909C291.17 87.909 291.359 87.8575 291.523 87.7545C291.691 87.6516 291.822 87.5065 291.916 87.3192C292.014 87.132 292.063 86.9144 292.063 86.6663C292.063 86.4182 292.014 86.2029 291.916 86.0204C291.822 85.8332 291.691 85.6881 291.523 85.5851C291.359 85.4775 291.17 85.4236 290.954 85.4236C290.734 85.4236 290.54 85.4775 290.371 85.5851C290.208 85.6881 290.079 85.8332 289.985 86.0204C289.892 86.2029 289.845 86.4182 289.845 86.6663C289.845 86.9144 289.892 87.132 289.985 87.3192C290.079 87.5065 290.208 87.6516 290.371 87.7545C290.54 87.8575 290.734 87.909 290.954 87.909ZM293.642 88.4355V84.8971H294.344V88.4355H293.642ZM294 84.2301C293.864 84.2301 293.752 84.188 293.663 84.1037C293.578 84.0195 293.536 83.9118 293.536 83.7808C293.536 83.6544 293.578 83.5514 293.663 83.4719C293.752 83.3876 293.864 83.3455 294 83.3455C294.131 83.3455 294.241 83.3876 294.33 83.4719C294.418 83.5514 294.463 83.6544 294.463 83.7808C294.463 83.9118 294.418 84.0195 294.33 84.1037C294.241 84.188 294.131 84.2301 294 84.2301ZM295.348 88.4355V84.8971H295.979L296.043 85.564C296.122 85.4049 296.225 85.2715 296.352 85.1639C296.478 85.0515 296.625 84.9649 296.794 84.9041C296.967 84.8432 297.164 84.8128 297.384 84.8128V85.557H297.131C296.986 85.557 296.848 85.5757 296.717 85.6132C296.586 85.646 296.469 85.7045 296.366 85.7887C296.267 85.873 296.19 85.9876 296.134 86.1327C296.078 86.2778 296.05 86.458 296.05 86.6733V88.4355H295.348ZM299.526 88.5198C299.189 88.5198 298.89 88.4426 298.628 88.2881C298.365 88.1337 298.16 87.9183 298.01 87.6422C297.865 87.366 297.792 87.0454 297.792 86.6804C297.792 86.3059 297.865 85.9806 298.01 85.7045C298.16 85.4236 298.365 85.206 298.628 85.0515C298.89 84.8924 299.194 84.8128 299.54 84.8128C299.887 84.8128 300.184 84.8901 300.432 85.0445C300.68 85.199 300.872 85.4049 301.008 85.6623C301.143 85.9151 301.211 86.1959 301.211 86.5048C301.211 86.5516 301.209 86.6031 301.204 86.6593C301.204 86.7108 301.202 86.7693 301.197 86.8348H298.305V86.3363H300.509C300.495 86.0415 300.397 85.8121 300.214 85.6483C300.032 85.4798 299.805 85.3955 299.533 85.3955C299.341 85.3955 299.166 85.44 299.007 85.5289C298.848 85.6132 298.719 85.7396 298.621 85.9081C298.527 86.0719 298.48 86.2802 298.48 86.5329V86.7295C298.48 86.9916 298.527 87.2139 298.621 87.3965C298.719 87.5743 298.848 87.7101 299.007 87.8037C299.166 87.8926 299.339 87.9371 299.526 87.9371C299.751 87.9371 299.936 87.8879 300.081 87.7896C300.226 87.6913 300.334 87.5579 300.404 87.3895H301.106C301.045 87.6048 300.942 87.799 300.797 87.9722C300.652 88.1407 300.472 88.2741 300.256 88.3724C300.046 88.4707 299.802 88.5198 299.526 88.5198ZM303.36 88.5198C303.061 88.5198 302.799 88.4707 302.574 88.3724C302.349 88.2741 302.171 88.136 302.04 87.9581C301.909 87.7803 301.83 87.572 301.802 87.3333H302.518C302.541 87.4456 302.586 87.5486 302.651 87.6422C302.721 87.7358 302.815 87.8107 302.932 87.8669C303.054 87.923 303.196 87.9511 303.36 87.9511C303.515 87.9511 303.641 87.9301 303.739 87.8879C303.842 87.8411 303.917 87.7803 303.964 87.7054C304.011 87.6258 304.034 87.5416 304.034 87.4526C304.034 87.3216 304.002 87.2233 303.936 87.1578C303.875 87.0876 303.782 87.0337 303.655 86.9963C303.533 86.9542 303.386 86.9167 303.213 86.884C303.049 86.8559 302.89 86.8184 302.735 86.7716C302.586 86.7201 302.45 86.6569 302.328 86.5821C302.211 86.5072 302.118 86.4136 302.047 86.3012C301.977 86.1842 301.942 86.0415 301.942 85.873C301.942 85.6717 301.996 85.4915 302.104 85.3324C302.211 85.1685 302.363 85.0422 302.56 84.9532C302.761 84.8596 302.998 84.8128 303.269 84.8128C303.662 84.8128 303.978 84.9064 304.217 85.0937C304.456 85.2809 304.596 85.5453 304.638 85.887H303.957C303.938 85.7279 303.868 85.6062 303.746 85.5219C303.625 85.433 303.463 85.3885 303.262 85.3885C303.061 85.3885 302.906 85.4283 302.799 85.5079C302.691 85.5875 302.637 85.6928 302.637 85.8238C302.637 85.9081 302.668 85.983 302.728 86.0485C302.789 86.114 302.878 86.1702 302.995 86.217C303.117 86.2591 303.264 86.2989 303.438 86.3363C303.686 86.3831 303.908 86.4416 304.105 86.5119C304.301 86.5821 304.458 86.685 304.575 86.8208C304.692 86.9565 304.75 87.1507 304.75 87.4035C304.755 87.6235 304.699 87.8177 304.582 87.9862C304.47 88.1547 304.308 88.2858 304.097 88.3794C303.892 88.473 303.646 88.5198 303.36 88.5198ZM370.513 88.4355V83.521H372.022C372.593 83.521 373.066 83.6216 373.44 83.8229C373.815 84.0242 374.091 84.3097 374.269 84.6794C374.451 85.0445 374.542 85.4798 374.542 85.9853C374.542 86.4908 374.451 86.9261 374.269 87.2912C374.091 87.6562 373.815 87.9394 373.44 88.1407C373.07 88.3373 372.598 88.4355 372.022 88.4355H370.513ZM371.215 87.8458H371.994C372.448 87.8458 372.808 87.7709 373.075 87.6211C373.342 87.4714 373.531 87.2584 373.644 86.9822C373.761 86.7014 373.819 86.3691 373.819 85.9853C373.819 85.5968 373.761 85.2622 373.644 84.9813C373.531 84.7005 373.342 84.4852 373.075 84.3354C372.808 84.1856 372.448 84.1107 371.994 84.1107H371.215V87.8458ZM376.651 88.5198C376.375 88.5198 376.134 88.4636 375.928 88.3513C375.727 88.239 375.57 88.0705 375.458 87.8458C375.35 87.6211 375.296 87.338 375.296 86.9963V84.8971H375.998V86.9191C375.998 87.2514 376.071 87.5018 376.216 87.6703C376.361 87.8388 376.569 87.923 376.841 87.923C377.023 87.923 377.187 87.8786 377.332 87.7896C377.482 87.7007 377.599 87.572 377.683 87.4035C377.767 87.235 377.809 87.0291 377.809 86.7857V84.8971H378.512V88.4355H377.887L377.838 87.8318C377.73 88.0471 377.573 88.2156 377.367 88.3373C377.161 88.4589 376.923 88.5198 376.651 88.5198ZM379.473 88.4355V84.8971H380.105L380.168 85.564C380.247 85.4049 380.35 85.2715 380.477 85.1639C380.603 85.0515 380.751 84.9649 380.919 84.9041C381.092 84.8432 381.289 84.8128 381.509 84.8128V85.557H381.256C381.111 85.557 380.973 85.5757 380.842 85.6132C380.711 85.646 380.594 85.7045 380.491 85.7887C380.393 85.873 380.315 85.9876 380.259 86.1327C380.203 86.2778 380.175 86.458 380.175 86.6733V88.4355H379.473ZM383.326 88.5198C383.036 88.5198 382.795 88.4707 382.603 88.3724C382.411 88.2741 382.268 88.143 382.175 87.9792C382.081 87.8107 382.034 87.6305 382.034 87.4386C382.034 87.2046 382.095 87.0056 382.217 86.8418C382.338 86.6733 382.512 86.5446 382.736 86.4557C382.961 86.3668 383.23 86.3223 383.544 86.3223H384.463C384.463 86.1163 384.433 85.9455 384.372 85.8098C384.311 85.674 384.22 85.5734 384.098 85.5079C383.981 85.4377 383.832 85.4026 383.649 85.4026C383.438 85.4026 383.258 85.4541 383.108 85.557C382.959 85.6553 382.865 85.8028 382.828 85.9993H382.125C382.154 85.7513 382.238 85.5406 382.378 85.3675C382.523 85.1896 382.708 85.0539 382.933 84.9603C383.158 84.862 383.396 84.8128 383.649 84.8128C383.981 84.8128 384.26 84.8713 384.484 84.9883C384.709 85.1054 384.878 85.2715 384.99 85.4868C385.107 85.6974 385.165 85.9502 385.165 86.2451V88.4355H384.555L384.499 87.8388C384.447 87.9324 384.386 88.0213 384.316 88.1056C384.246 88.1898 384.162 88.2624 384.063 88.3232C383.97 88.3841 383.86 88.4309 383.733 88.4636C383.612 88.5011 383.476 88.5198 383.326 88.5198ZM383.459 87.9511C383.609 87.9511 383.745 87.9207 383.867 87.8598C383.988 87.799 384.091 87.7171 384.176 87.6141C384.264 87.5065 384.33 87.3871 384.372 87.2561C384.419 87.1203 384.445 86.9822 384.449 86.8418V86.8208H383.614C383.413 86.8208 383.249 86.8465 383.122 86.898C383.001 86.9448 382.912 87.0103 382.856 87.0946C382.799 87.1788 382.771 87.2771 382.771 87.3895C382.771 87.5065 382.797 87.6071 382.849 87.6913C382.905 87.7709 382.984 87.8341 383.087 87.8809C383.19 87.9277 383.314 87.9511 383.459 87.9511ZM387.447 88.4355C387.222 88.4355 387.028 88.4004 386.864 88.3302C386.7 88.26 386.574 88.143 386.485 87.9792C386.396 87.8154 386.351 87.5931 386.351 87.3122V85.4938H385.74V84.8971H386.351L386.436 84.0125H387.053V84.8971H388.057V85.4938H387.053V87.3192C387.053 87.5205 387.095 87.6586 387.18 87.7335C387.264 87.8037 387.409 87.8388 387.615 87.8388H388.022V88.4355H387.447ZM388.881 88.4355V84.8971H389.583V88.4355H388.881ZM389.239 84.2301C389.103 84.2301 388.991 84.188 388.902 84.1037C388.818 84.0195 388.775 83.9118 388.775 83.7808C388.775 83.6544 388.818 83.5514 388.902 83.4719C388.991 83.3876 389.103 83.3455 389.239 83.3455C389.37 83.3455 389.48 83.3876 389.569 83.4719C389.658 83.5514 389.702 83.6544 389.702 83.7808C389.702 83.9118 389.658 84.0195 389.569 84.1037C389.48 84.188 389.37 84.2301 389.239 84.2301ZM392.202 88.5198C391.869 88.5198 391.57 88.4426 391.303 88.2881C391.041 88.1337 390.832 87.9183 390.678 87.6422C390.528 87.3614 390.453 87.0384 390.453 86.6733C390.453 86.2989 390.531 85.9736 390.685 85.6974C390.839 85.4166 391.05 85.199 391.317 85.0445C391.584 84.8901 391.883 84.8128 392.216 84.8128C392.553 84.8128 392.852 84.8901 393.114 85.0445C393.376 85.199 393.582 85.4143 393.732 85.6904C393.887 85.9666 393.964 86.2919 393.964 86.6663C393.964 87.0408 393.887 87.366 393.732 87.6422C393.582 87.9183 393.374 88.1337 393.107 88.2881C392.84 88.4426 392.539 88.5198 392.202 88.5198ZM392.202 87.916C392.393 87.916 392.567 87.8692 392.721 87.7756C392.88 87.682 393.007 87.5439 393.1 87.3614C393.198 87.1741 393.248 86.9425 393.248 86.6663C393.248 86.3902 393.201 86.1608 393.107 85.9783C393.014 85.7911 392.887 85.6506 392.728 85.557C392.574 85.4634 392.403 85.4166 392.216 85.4166C392.028 85.4166 391.855 85.4634 391.696 85.557C391.537 85.6506 391.408 85.7911 391.31 85.9783C391.216 86.1608 391.169 86.3902 391.169 86.6663C391.169 86.9425 391.216 87.1741 391.31 87.3614C391.408 87.5439 391.535 87.682 391.689 87.7756C391.848 87.8692 392.019 87.916 392.202 87.916ZM394.79 88.4355V84.8971H395.421L395.464 85.5009C395.576 85.2902 395.735 85.1241 395.941 85.0024C396.147 84.876 396.383 84.8128 396.65 84.8128C396.931 84.8128 397.172 84.869 397.373 84.9813C397.575 85.0937 397.731 85.2645 397.844 85.4938C397.956 85.7185 398.012 86.0017 398.012 86.3434V88.4355H397.31V86.4136C397.31 86.0859 397.238 85.8379 397.092 85.6694C396.947 85.5009 396.737 85.4166 396.461 85.4166C396.278 85.4166 396.114 85.4611 395.969 85.55C395.824 85.6343 395.707 85.7606 395.618 85.9291C395.534 86.0976 395.492 86.3036 395.492 86.547V88.4355H394.79ZM452.12 88.5198C451.76 88.5198 451.444 88.4566 451.172 88.3302C450.901 88.1992 450.69 88.0166 450.541 87.7826C450.391 87.5486 450.316 87.2748 450.316 86.9612H451.053C451.058 87.139 451.1 87.3029 451.179 87.4526C451.264 87.5977 451.383 87.7147 451.538 87.8037C451.697 87.8879 451.891 87.9301 452.12 87.9301C452.317 87.9301 452.485 87.8973 452.626 87.8318C452.771 87.7662 452.881 87.6773 452.956 87.565C453.031 87.448 453.068 87.3146 453.068 87.1648C453.068 86.9916 453.028 86.8489 452.949 86.7365C452.869 86.6242 452.762 86.5329 452.626 86.4627C452.495 86.3878 452.34 86.3223 452.162 86.2661C451.989 86.21 451.807 86.1491 451.615 86.0836C451.226 85.9572 450.936 85.7934 450.744 85.5921C450.557 85.3909 450.463 85.1288 450.463 84.8058C450.463 84.5297 450.529 84.2909 450.66 84.0897C450.791 83.8837 450.974 83.7246 451.208 83.6123C451.446 83.4953 451.727 83.4368 452.05 83.4368C452.368 83.4368 452.647 83.4953 452.886 83.6123C453.124 83.7293 453.311 83.8908 453.447 84.0967C453.583 84.3026 453.651 84.5437 453.651 84.8198H452.907C452.907 84.6935 452.874 84.5694 452.808 84.4477C452.743 84.3261 452.644 84.2278 452.513 84.1529C452.382 84.0733 452.221 84.0335 452.029 84.0335C451.87 84.0288 451.727 84.0546 451.601 84.1107C451.474 84.1669 451.376 84.2488 451.306 84.3565C451.236 84.4641 451.201 84.5928 451.201 84.7426C451.201 84.8924 451.231 85.0141 451.292 85.1077C451.357 85.1966 451.451 85.2739 451.573 85.3394C451.694 85.4049 451.835 85.4658 451.994 85.5219C452.158 85.5734 452.338 85.6319 452.535 85.6974C452.778 85.777 452.993 85.8753 453.18 85.9923C453.372 86.1046 453.522 86.2521 453.63 86.4346C453.742 86.6125 453.798 86.8418 453.798 87.1227C453.798 87.366 453.735 87.5931 453.609 87.8037C453.482 88.0143 453.295 88.1875 453.047 88.3232C452.799 88.4543 452.49 88.5198 452.12 88.5198ZM454.647 88.4355V84.8971H455.349V88.4355H454.647ZM455.005 84.2301C454.869 84.2301 454.757 84.188 454.668 84.1037C454.584 84.0195 454.542 83.9118 454.542 83.7808C454.542 83.6544 454.584 83.5514 454.668 83.4719C454.757 83.3876 454.869 83.3455 455.005 83.3455C455.136 83.3455 455.246 83.3876 455.335 83.4719C455.424 83.5514 455.469 83.6544 455.469 83.7808C455.469 83.9118 455.424 84.0195 455.335 84.1037C455.246 84.188 455.136 84.2301 455.005 84.2301ZM456.122 88.4355V87.8669L458.024 85.4868H456.15V84.8971H458.825V85.4728L456.915 87.8528H458.86V88.4355H456.122ZM461.238 88.5198C460.901 88.5198 460.602 88.4426 460.339 88.2881C460.077 88.1337 459.871 87.9183 459.722 87.6422C459.576 87.366 459.504 87.0454 459.504 86.6804C459.504 86.3059 459.576 85.9806 459.722 85.7045C459.871 85.4236 460.077 85.206 460.339 85.0515C460.602 84.8924 460.906 84.8128 461.252 84.8128C461.598 84.8128 461.896 84.8901 462.144 85.0445C462.392 85.199 462.584 85.4049 462.719 85.6623C462.855 85.9151 462.923 86.1959 462.923 86.5048C462.923 86.5516 462.921 86.6031 462.916 86.6593C462.916 86.7108 462.914 86.7693 462.909 86.8348H460.016V86.3363H462.221C462.207 86.0415 462.109 85.8121 461.926 85.6483C461.744 85.4798 461.517 85.3955 461.245 85.3955C461.053 85.3955 460.878 85.44 460.719 85.5289C460.559 85.6132 460.431 85.7396 460.332 85.9081C460.239 86.0719 460.192 86.2802 460.192 86.5329V86.7295C460.192 86.9916 460.239 87.2139 460.332 87.3965C460.431 87.5743 460.559 87.7101 460.719 87.8037C460.878 87.8926 461.051 87.9371 461.238 87.9371C461.463 87.9371 461.648 87.8879 461.793 87.7896C461.938 87.6913 462.045 87.5579 462.116 87.3895H462.818C462.757 87.6048 462.654 87.799 462.509 87.9722C462.364 88.1407 462.184 88.2741 461.968 88.3724C461.758 88.4707 461.514 88.5198 461.238 88.5198Z" fill="#CBD5E1"/>
<path d="M569.596 61.4355H528.404C527.629 61.4355 527 62.0641 527 62.8396V63.0313C527 63.8068 527.629 64.4355 528.404 64.4355H569.596C570.371 64.4355 571 63.8068 571 63.0313V62.8396C571 62.0641 570.371 61.4355 569.596 61.4355Z" fill="#475569"/>
<path d="M574.596 39.4355H512.404C511.629 39.4355 511 40.0641 511 40.8396V41.0313C511 41.8068 511.629 42.4355 512.404 42.4355H574.596C575.371 42.4355 576 41.8068 576 41.0313V40.8396C576 40.0641 575.371 39.4355 574.596 39.4355Z" fill="#475569"/>
<path d="M521.021 58.4355H515.404C514.629 58.4355 514 59.0641 514 59.8396V65.4563C514 66.2318 514.629 66.8604 515.404 66.8604H521.021C521.796 66.8604 522.425 66.2318 522.425 65.4563V59.8396C522.425 59.0641 521.796 58.4355 521.021 58.4355Z" fill="#475569"/>
<path d="M573.191 54.7866H512.808C511.451 54.7866 510.351 55.8868 510.351 57.2439V67.6273C510.351 68.9844 511.451 70.0845 512.808 70.0845H573.191C574.548 70.0845 575.648 68.9844 575.648 67.6273V57.2439C575.648 55.8868 574.548 54.7866 573.191 54.7866Z" stroke="#E2E8F0" stroke-opacity="0.08" stroke-width="0.702078"/>
<path d="M24.5958 40.4355H12.4042C11.6287 40.4355 11 41.0641 11 41.8396V42.0313C11 42.8068 11.6287 43.4355 12.4042 43.4355H24.5958C25.3713 43.4355 26 42.8068 26 42.0313V41.8396C26 41.0641 25.3713 40.4355 24.5958 40.4355Z" fill="#475569"/>
<path d="M64.5958 112.436H20.4042C19.6287 112.436 19 113.065 19 113.84V114.032C19 114.807 19.6287 115.436 20.4042 115.436H64.5958C65.3713 115.436 66 114.807 66 114.032V113.84C66 113.065 65.3713 112.436 64.5958 112.436Z" fill="#475569"/>
<path d="M231.596 112.436H188.404C187.629 112.436 187 113.065 187 113.84V114.032C187 114.807 187.629 115.436 188.404 115.436H231.596C232.371 115.436 233 114.807 233 114.032V113.84C233 113.065 232.371 112.436 231.596 112.436Z" fill="#475569"/>
<path d="M304.596 112.436H282.404C281.629 112.436 281 113.065 281 113.84V114.032C281 114.807 281.629 115.436 282.404 115.436H304.596C305.371 115.436 306 114.807 306 114.032V113.84C306 113.065 305.371 112.436 304.596 112.436Z" fill="#475569"/>
<path d="M402.596 112.436H371.404C370.629 112.436 370 113.065 370 113.84V114.032C370 114.807 370.629 115.436 371.404 115.436H402.596C403.371 115.436 404 114.807 404 114.032V113.84C404 113.065 403.371 112.436 402.596 112.436Z" fill="#475569"/>
<path d="M467.596 112.436H451.404C450.629 112.436 450 113.065 450 113.84V114.032C450 114.807 450.629 115.436 451.404 115.436H467.596C468.371 115.436 469 114.807 469 114.032V113.84C469 113.065 468.371 112.436 467.596 112.436Z" fill="#475569"/>
<path d="M467.596 144.436H451.404C450.629 144.436 450 145.065 450 145.84V146.032C450 146.807 450.629 147.436 451.404 147.436H467.596C468.371 147.436 469 146.807 469 146.032V145.84C469 145.065 468.371 144.436 467.596 144.436Z" fill="#475569"/>
<path d="M467.596 175.436H451.404C450.629 175.436 450 176.065 450 176.84V177.032C450 177.807 450.629 178.436 451.404 178.436H467.596C468.371 178.436 469 177.807 469 177.032V176.84C469 176.065 468.371 175.436 467.596 175.436Z" fill="#475569"/>
<path d="M467.596 207.436H451.404C450.629 207.436 450 208.065 450 208.84V209.032C450 209.807 450.629 210.436 451.404 210.436H467.596C468.371 210.436 469 209.807 469 209.032V208.84C469 208.065 468.371 207.436 467.596 207.436Z" fill="#475569"/>
<path d="M467.596 239.436H451.404C450.629 239.436 450 240.065 450 240.84V241.032C450 241.807 450.629 242.436 451.404 242.436H467.596C468.371 242.436 469 241.807 469 241.032V240.84C469 240.065 468.371 239.436 467.596 239.436Z" fill="#475569"/>
<path d="M467.596 270.436H451.404C450.629 270.436 450 271.065 450 271.84V272.032C450 272.807 450.629 273.436 451.404 273.436H467.596C468.371 273.436 469 272.807 469 272.032V271.84C469 271.065 468.371 270.436 467.596 270.436Z" fill="#475569"/>
<path opacity="0.25" d="M467.596 302.436H451.404C450.629 302.436 450 303.065 450 303.84V304.032C450 304.807 450.629 305.436 451.404 305.436H467.596C468.371 305.436 469 304.807 469 304.032V303.84C469 303.065 468.371 302.436 467.596 302.436Z" fill="#475569"/>
<path d="M402.596 144.436H371.404C370.629 144.436 370 145.065 370 145.84V146.032C370 146.807 370.629 147.436 371.404 147.436H402.596C403.371 147.436 404 146.807 404 146.032V145.84C404 145.065 403.371 144.436 402.596 144.436Z" fill="#475569"/>
<path d="M402.596 175.436H371.404C370.629 175.436 370 176.065 370 176.84V177.032C370 177.807 370.629 178.436 371.404 178.436H402.596C403.371 178.436 404 177.807 404 177.032V176.84C404 176.065 403.371 175.436 402.596 175.436Z" fill="#475569"/>
<path d="M402.596 207.436H371.404C370.629 207.436 370 208.065 370 208.84V209.032C370 209.807 370.629 210.436 371.404 210.436H402.596C403.371 210.436 404 209.807 404 209.032V208.84C404 208.065 403.371 207.436 402.596 207.436Z" fill="#475569"/>
<path d="M402.596 239.436H371.404C370.629 239.436 370 240.065 370 240.84V241.032C370 241.807 370.629 242.436 371.404 242.436H402.596C403.371 242.436 404 241.807 404 241.032V240.84C404 240.065 403.371 239.436 402.596 239.436Z" fill="#475569"/>
<path d="M402.596 270.436H371.404C370.629 270.436 370 271.065 370 271.84V272.032C370 272.807 370.629 273.436 371.404 273.436H402.596C403.371 273.436 404 272.807 404 272.032V271.84C404 271.065 403.371 270.436 402.596 270.436Z" fill="#475569"/>
<path opacity="0.25" d="M402.596 302.436H371.404C370.629 302.436 370 303.065 370 303.84V304.032C370 304.807 370.629 305.436 371.404 305.436H402.596C403.371 305.436 404 304.807 404 304.032V303.84C404 303.065 403.371 302.436 402.596 302.436Z" fill="#475569"/>
<path d="M304.596 144.436H282.404C281.629 144.436 281 145.065 281 145.84V146.032C281 146.807 281.629 147.436 282.404 147.436H304.596C305.371 147.436 306 146.807 306 146.032V145.84C306 145.065 305.371 144.436 304.596 144.436Z" fill="#475569"/>
<path d="M304.596 175.436H282.404C281.629 175.436 281 176.065 281 176.84V177.032C281 177.807 281.629 178.436 282.404 178.436H304.596C305.371 178.436 306 177.807 306 177.032V176.84C306 176.065 305.371 175.436 304.596 175.436Z" fill="#475569"/>
<path d="M304.596 207.436H282.404C281.629 207.436 281 208.065 281 208.84V209.032C281 209.807 281.629 210.436 282.404 210.436H304.596C305.371 210.436 306 209.807 306 209.032V208.84C306 208.065 305.371 207.436 304.596 207.436Z" fill="#475569"/>
<path d="M304.596 239.436H282.404C281.629 239.436 281 240.065 281 240.84V241.032C281 241.807 281.629 242.436 282.404 242.436H304.596C305.371 242.436 306 241.807 306 241.032V240.84C306 240.065 305.371 239.436 304.596 239.436Z" fill="#475569"/>
<path d="M304.596 270.436H282.404C281.629 270.436 281 271.065 281 271.84V272.032C281 272.807 281.629 273.436 282.404 273.436H304.596C305.371 273.436 306 272.807 306 272.032V271.84C306 271.065 305.371 270.436 304.596 270.436Z" fill="#475569"/>
<path opacity="0.25" d="M304.596 302.436H282.404C281.629 302.436 281 303.065 281 303.84V304.032C281 304.807 281.629 305.436 282.404 305.436H304.596C305.371 305.436 306 304.807 306 304.032V303.84C306 303.065 305.371 302.436 304.596 302.436Z" fill="#475569"/>
<path d="M231.596 144.436H188.404C187.629 144.436 187 145.065 187 145.84V146.032C187 146.807 187.629 147.436 188.404 147.436H231.596C232.371 147.436 233 146.807 233 146.032V145.84C233 145.065 232.371 144.436 231.596 144.436Z" fill="#475569"/>
<path d="M231.596 175.436H188.404C187.629 175.436 187 176.065 187 176.84V177.032C187 177.807 187.629 178.436 188.404 178.436H231.596C232.371 178.436 233 177.807 233 177.032V176.84C233 176.065 232.371 175.436 231.596 175.436Z" fill="#475569"/>
<path d="M231.596 207.436H188.404C187.629 207.436 187 208.065 187 208.84V209.032C187 209.807 187.629 210.436 188.404 210.436H231.596C232.371 210.436 233 209.807 233 209.032V208.84C233 208.065 232.371 207.436 231.596 207.436Z" fill="#475569"/>
<path d="M231.596 239.436H188.404C187.629 239.436 187 240.065 187 240.84V241.032C187 241.807 187.629 242.436 188.404 242.436H231.596C232.371 242.436 233 241.807 233 241.032V240.84C233 240.065 232.371 239.436 231.596 239.436Z" fill="#475569"/>
<path d="M231.596 270.436H188.404C187.629 270.436 187 271.065 187 271.84V272.032C187 272.807 187.629 273.436 188.404 273.436H231.596C232.371 273.436 233 272.807 233 272.032V271.84C233 271.065 232.371 270.436 231.596 270.436Z" fill="#475569"/>
<path opacity="0.25" d="M231.596 302.436H188.404C187.629 302.436 187 303.065 187 303.84V304.032C187 304.807 187.629 305.436 188.404 305.436H231.596C232.371 305.436 233 304.807 233 304.032V303.84C233 303.065 232.371 302.436 231.596 302.436Z" fill="#475569"/>
<path d="M48.5958 144.436H19.4042C18.6287 144.436 18 145.065 18 145.84V146.032C18 146.807 18.6287 147.436 19.4042 147.436H48.5958C49.3713 147.436 50 146.807 50 146.032V145.84C50 145.065 49.3713 144.436 48.5958 144.436Z" fill="#475569"/>
<path d="M92.5958 175.436H20.4042C19.6287 175.436 19 176.065 19 176.84V177.032C19 177.807 19.6287 178.436 20.4042 178.436H92.5958C93.3713 178.436 94 177.807 94 177.032V176.84C94 176.065 93.3713 175.436 92.5958 175.436Z" fill="#475569"/>
<path d="M54.5958 207.436H20.4042C19.6287 207.436 19 208.065 19 208.84V209.032C19 209.807 19.6287 210.436 20.4042 210.436H54.5958C55.3713 210.436 56 209.807 56 209.032V208.84C56 208.065 55.3713 207.436 54.5958 207.436Z" fill="#475569"/>
<path d="M96.5958 239.436H19.4042C18.6287 239.436 18 240.065 18 240.84V241.032C18 241.807 18.6287 242.436 19.4042 242.436H96.5958C97.3713 242.436 98 241.807 98 241.032V240.84C98 240.065 97.3713 239.436 96.5958 239.436Z" fill="#475569"/>
<path d="M54.5958 270.436H19.4042C18.6287 270.436 18 271.065 18 271.84V272.032C18 272.807 18.6287 273.436 19.4042 273.436H54.5958C55.3713 273.436 56 272.807 56 272.032V271.84C56 271.065 55.3713 270.436 54.5958 270.436Z" fill="#475569"/>
<path opacity="0.25" d="M58.5958 302.436H20.4042C19.6287 302.436 19 303.065 19 303.84V304.032C19 304.807 19.6287 305.436 20.4042 305.436H58.5958C59.3713 305.436 60 304.807 60 304.032V303.84C60 303.065 59.3713 302.436 58.5958 302.436Z" fill="#475569"/>
<path d="M70.5958 40.4355H41.4042C40.6287 40.4355 40 41.0641 40 41.8396V42.0313C40 42.8068 40.6287 43.4355 41.4042 43.4355H70.5958C71.3713 43.4355 72 42.8068 72 42.0313V41.8396C72 41.0641 71.3713 40.4355 70.5958 40.4355Z" fill="#475569"/>
<path d="M51.5958 61.4355H17.4042C16.6287 61.4355 16 62.0641 16 62.8396V63.0313C16 63.8068 16.6287 64.4355 17.4042 64.4355H51.5958C52.3713 64.4355 53 63.8068 53 63.0313V62.8396C53 62.0641 52.3713 61.4355 51.5958 61.4355Z" fill="#475569"/>
<path opacity="0.65" d="M127.596 40.4355H87.4042C86.6287 40.4355 86 41.0641 86 41.8396V42.0313C86 42.8068 86.6287 43.4355 87.4042 43.4355H127.596C128.371 43.4355 129 42.8068 129 42.0313V41.8396C129 41.0641 128.371 40.4355 127.596 40.4355Z" fill="#00DC82"/>
<path d="M14.1778 16.9134C13.6957 16.9134 13.2791 16.808 12.9281 16.5974C12.5817 16.3821 12.3126 16.0849 12.1207 15.7058C11.9335 15.322 11.8398 14.8773 11.8398 14.3718C11.8398 13.871 11.9335 13.4287 12.1207 13.0449C12.3126 12.6611 12.5817 12.3639 12.9281 12.1533C13.2791 11.938 13.6957 11.8303 14.1778 11.8303C14.7535 11.8303 15.2192 11.9684 15.5749 12.2445C15.9353 12.5207 16.1646 12.9092 16.2629 13.41H15.4906C15.4204 13.1198 15.2753 12.8881 15.0554 12.7149C14.8401 12.5417 14.5475 12.4552 14.1778 12.4552C13.8454 12.4552 13.5576 12.5324 13.3142 12.6868C13.0708 12.8413 12.8836 13.0613 12.7525 13.3468C12.6215 13.6323 12.556 13.974 12.556 14.3718C12.556 14.7697 12.6215 15.1137 12.7525 15.4039C12.8836 15.6894 13.0708 15.9094 13.3142 16.0638C13.5576 16.2136 13.8454 16.2885 14.1778 16.2885C14.5475 16.2885 14.8401 16.2066 15.0554 16.0428C15.2753 15.8743 15.4204 15.6473 15.4906 15.3618H16.2629C16.1646 15.8485 15.9353 16.23 15.5749 16.5061C15.2192 16.7776 14.7535 16.9134 14.1778 16.9134ZM18.2402 16.9134C17.95 16.9134 17.709 16.8642 17.5171 16.7659C17.3252 16.6676 17.1824 16.5366 17.0888 16.3728C16.9952 16.2043 16.9484 16.0241 16.9484 15.8322C16.9484 15.5981 17.0092 15.3992 17.1309 15.2354C17.2526 15.0669 17.4258 14.9382 17.6505 14.8492C17.8751 14.7603 18.1443 14.7158 18.4579 14.7158H19.3776C19.3776 14.5099 19.3472 14.3391 19.2863 14.2033C19.2255 14.0676 19.1342 13.967 19.0125 13.9014C18.8955 13.8312 18.7457 13.7961 18.5632 13.7961C18.3525 13.7961 18.1723 13.8476 18.0226 13.9506C17.8728 14.0489 17.7792 14.1963 17.7417 14.3929H17.0397C17.0677 14.1448 17.152 13.9342 17.2924 13.761C17.4375 13.5832 17.6224 13.4474 17.8471 13.3538C18.0717 13.2555 18.3104 13.2064 18.5632 13.2064C18.8955 13.2064 19.174 13.2649 19.3986 13.3819C19.6233 13.4989 19.7918 13.6651 19.9041 13.8804C20.0212 14.091 20.0797 14.3437 20.0797 14.6386V16.8291H19.4689L19.4127 16.2323C19.3612 16.3259 19.3004 16.4149 19.2301 16.4991C19.1599 16.5834 19.0757 16.6559 18.9774 16.7168C18.8838 16.7776 18.7738 16.8244 18.6474 16.8572C18.5257 16.8946 18.39 16.9134 18.2402 16.9134ZM18.3736 16.3447C18.5234 16.3447 18.6591 16.3142 18.7808 16.2534C18.9025 16.1926 19.0055 16.1106 19.0897 16.0077C19.1787 15.9 19.2442 15.7807 19.2863 15.6496C19.3331 15.5139 19.3589 15.3758 19.3635 15.2354V15.2143H18.5281C18.3268 15.2143 18.163 15.2401 18.0366 15.2916C17.9149 15.3384 17.826 15.4039 17.7698 15.4881C17.7137 15.5724 17.6856 15.6707 17.6856 15.783C17.6856 15.9 17.7113 16.0006 17.7628 16.0849C17.819 16.1645 17.8985 16.2277 18.0015 16.2745C18.1045 16.3213 18.2285 16.3447 18.3736 16.3447ZM22.6116 16.9134C22.27 16.9134 21.9657 16.8361 21.6989 16.6817C21.4321 16.5225 21.2215 16.3049 21.0671 16.0287C20.9173 15.7526 20.8424 15.432 20.8424 15.0669C20.8424 14.6971 20.9173 14.3742 21.0671 14.098C21.2215 13.8172 21.4321 13.5995 21.6989 13.4451C21.9657 13.2859 22.27 13.2064 22.6116 13.2064C23.0422 13.2064 23.4026 13.3187 23.6928 13.5434C23.983 13.768 24.1679 14.0723 24.2475 14.4561H23.5173C23.4705 14.2501 23.3629 14.091 23.1944 13.9787C23.0305 13.8663 22.834 13.8102 22.6046 13.8102C22.4174 13.8102 22.2442 13.8593 22.0851 13.9576C21.9259 14.0512 21.7972 14.1916 21.6989 14.3788C21.6053 14.5614 21.5585 14.7884 21.5585 15.0599C21.5585 15.2611 21.5866 15.4413 21.6428 15.6005C21.6989 15.7549 21.7738 15.886 21.8674 15.9936C21.9657 16.1013 22.0781 16.1832 22.2044 16.2394C22.3308 16.2908 22.4642 16.3166 22.6046 16.3166C22.7591 16.3166 22.8971 16.2932 23.0188 16.2464C23.1452 16.1949 23.2505 16.12 23.3348 16.0217C23.4237 15.9234 23.4846 15.8064 23.5173 15.6707H24.2475C24.1679 16.0451 23.983 16.347 23.6928 16.5764C23.4026 16.801 23.0422 16.9134 22.6116 16.9134ZM25.069 16.8291V11.7741H25.771V13.8663C25.8881 13.6604 26.0495 13.4989 26.2555 13.3819C26.4661 13.2649 26.6978 13.2064 26.9505 13.2064C27.2314 13.2064 27.4724 13.2649 27.6737 13.3819C27.8749 13.4942 28.0294 13.6651 28.137 13.8944C28.2447 14.1191 28.2985 14.4023 28.2985 14.7439V16.8291H27.6035V14.8141C27.6035 14.4865 27.5333 14.2384 27.3928 14.0699C27.2524 13.8968 27.0441 13.8102 26.768 13.8102C26.5808 13.8102 26.4123 13.8546 26.2625 13.9436C26.1127 14.0325 25.9934 14.1635 25.9044 14.3367C25.8155 14.5052 25.771 14.7112 25.771 14.9546V16.8291H25.069ZM30.7972 16.9134C30.4602 16.9134 30.1606 16.8361 29.8985 16.6817C29.6364 16.5272 29.4304 16.3119 29.2807 16.0358C29.1356 15.7596 29.063 15.439 29.063 15.0739C29.063 14.6995 29.1356 14.3742 29.2807 14.098C29.4304 13.8172 29.6364 13.5995 29.8985 13.4451C30.1606 13.2859 30.4648 13.2064 30.8112 13.2064C31.1576 13.2064 31.4548 13.2836 31.7028 13.4381C31.9509 13.5925 32.1428 13.7985 32.2785 14.0559C32.4143 14.3086 32.4821 14.5895 32.4821 14.8984C32.4821 14.9452 32.4798 14.9967 32.4751 15.0528C32.4751 15.1043 32.4728 15.1628 32.4681 15.2284H29.5755V14.7299H31.7801C31.766 14.435 31.6677 14.2057 31.4852 14.0419C31.3027 13.8734 31.0756 13.7891 30.8042 13.7891C30.6123 13.7891 30.4368 13.8336 30.2776 13.9225C30.1185 14.0067 29.9898 14.1331 29.8915 14.3016C29.7979 14.4654 29.7511 14.6737 29.7511 14.9265V15.1231C29.7511 15.3852 29.7979 15.6075 29.8915 15.79C29.9898 15.9679 30.1185 16.1036 30.2776 16.1972C30.4368 16.2862 30.6099 16.3306 30.7972 16.3306C31.0218 16.3306 31.2067 16.2815 31.3518 16.1832C31.4969 16.0849 31.6045 15.9515 31.6748 15.783H32.3768C32.316 15.9983 32.213 16.1926 32.0679 16.3657C31.9228 16.5342 31.7426 16.6676 31.5273 16.7659C31.3167 16.8642 31.0733 16.9134 30.7972 16.9134Z" fill="white"/>
<path d="M44.625 13.866H45.9414V12.5496" stroke="#E2E8F0" stroke-width="0.438799" stroke-linecap="round" stroke-linejoin="round"/>
<path d="M45.9414 13.866L45.1658 13.0904C44.7167 12.6412 44.1086 12.3873 43.4734 12.3836C42.8382 12.3799 42.2272 12.6268 41.7728 13.0706M42.4307 15.6212H41.1143V16.9376" stroke="#E2E8F0" stroke-width="0.438799" stroke-linecap="round" stroke-linejoin="round"/>
<path d="M41.1143 15.6212L41.8899 16.3967C42.339 16.8459 42.9472 17.0998 43.5823 17.1035C44.2175 17.1072 44.8286 16.8604 45.2829 16.4165" stroke="#E2E8F0" stroke-width="0.438799" stroke-linecap="round" stroke-linejoin="round"/>
<path d="M220.625 87.3105L221.875 88.5605M221.875 88.5605L223.125 87.3105M221.875 88.5605V82.3105M219.375 83.5605L218.125 82.3105M218.125 82.3105L216.875 83.5605M218.125 82.3105V88.5605" stroke="#E2E8F0" stroke-width="0.625" stroke-linecap="round" stroke-linejoin="round"/>
<path fill-rule="evenodd" clip-rule="evenodd" d="M308.688 83.0605C308.688 82.888 308.827 82.748 309 82.748H314.938C315.109 82.748 315.25 82.888 315.25 83.0605C315.25 83.2331 315.109 83.373 314.938 83.373H309C308.827 83.373 308.688 83.2331 308.688 83.0605ZM308.688 84.9355C308.688 84.763 308.827 84.623 309 84.623H313.062C313.235 84.623 313.375 84.763 313.375 84.9355C313.375 85.1081 313.235 85.248 313.062 85.248H309C308.827 85.248 308.688 85.1081 308.688 84.9355ZM314.938 84.623C315.109 84.623 315.25 84.763 315.25 84.9355V89.1811L316.279 88.1521C316.401 88.03 316.599 88.03 316.721 88.1521C316.843 88.2741 316.843 88.472 316.721 88.594L315.158 90.1565C315.036 90.2786 314.839 90.2786 314.717 90.1565L313.154 88.594C313.032 88.472 313.032 88.2741 313.154 88.1521C313.276 88.03 313.474 88.03 313.596 88.1521L314.625 89.1811V84.9355C314.625 84.763 314.765 84.623 314.938 84.623ZM308.688 86.8105C308.688 86.638 308.827 86.498 309 86.498H313.062C313.235 86.498 313.375 86.638 313.375 86.8105C313.375 86.9831 313.235 87.123 313.062 87.123H309C308.827 87.123 308.688 86.9831 308.688 86.8105Z" fill="#E2E8F0"/>
<path d="M537.848 113.57C537.819 113.484 537.819 113.39 537.848 113.304C538.426 111.565 540.067 110.311 542 110.311C543.932 110.311 545.572 111.563 546.151 113.301C546.18 113.388 546.18 113.481 546.152 113.567C545.573 115.306 543.933 116.561 541.999 116.561C540.067 116.561 538.427 115.308 537.848 113.57Z" stroke="#CBD5E1" stroke-width="0.625" stroke-linecap="round" stroke-linejoin="round"/>
<path d="M543.25 113.436C543.25 114.126 542.69 114.686 542 114.686C541.309 114.686 540.75 114.126 540.75 113.436C540.75 112.745 541.309 112.186 542 112.186C542.69 112.186 543.25 112.745 543.25 113.436ZM537.848 146.57C537.819 146.484 537.819 146.39 537.848 146.304C538.426 144.565 540.067 143.311 542 143.311C543.932 143.311 545.572 144.563 546.151 146.301C546.18 146.388 546.18 146.481 546.152 146.567C545.573 148.306 543.933 149.561 541.999 149.561C540.067 149.561 538.427 148.308 537.848 146.57Z" stroke="#CBD5E1" stroke-width="0.625" stroke-linecap="round" stroke-linejoin="round"/>
<path d="M543.25 146.436C543.25 147.126 542.69 147.686 542 147.686C541.309 147.686 540.75 147.126 540.75 146.436C540.75 145.745 541.309 145.186 542 145.186C542.69 145.186 543.25 145.745 543.25 146.436ZM537.848 177.57C537.819 177.484 537.819 177.39 537.848 177.304C538.426 175.565 540.067 174.311 542 174.311C543.932 174.311 545.572 175.563 546.151 177.301C546.18 177.388 546.18 177.481 546.152 177.567C545.573 179.306 543.933 180.561 541.999 180.561C540.067 180.561 538.427 179.308 537.848 177.57Z" stroke="#CBD5E1" stroke-width="0.625" stroke-linecap="round" stroke-linejoin="round"/>
<path d="M543.25 177.436C543.25 178.126 542.69 178.686 542 178.686C541.309 178.686 540.75 178.126 540.75 177.436C540.75 176.745 541.309 176.186 542 176.186C542.69 176.186 543.25 176.745 543.25 177.436ZM537.848 208.57C537.819 208.484 537.819 208.39 537.848 208.304C538.426 206.565 540.067 205.311 542 205.311C543.932 205.311 545.572 206.563 546.151 208.301C546.18 208.388 546.18 208.481 546.152 208.567C545.573 210.306 543.933 211.561 541.999 211.561C540.067 211.561 538.427 210.308 537.848 208.57Z" stroke="#CBD5E1" stroke-width="0.625" stroke-linecap="round" stroke-linejoin="round"/>
<path d="M543.25 208.436C543.25 209.126 542.69 209.686 542 209.686C541.309 209.686 540.75 209.126 540.75 208.436C540.75 207.745 541.309 207.186 542 207.186C542.69 207.186 543.25 207.745 543.25 208.436ZM537.848 239.57C537.819 239.484 537.819 239.39 537.848 239.304C538.426 237.565 540.067 236.311 542 236.311C543.932 236.311 545.572 237.563 546.151 239.301C546.18 239.388 546.18 239.481 546.152 239.567C545.573 241.306 543.933 242.561 541.999 242.561C540.067 242.561 538.427 241.308 537.848 239.57Z" stroke="#CBD5E1" stroke-width="0.625" stroke-linecap="round" stroke-linejoin="round"/>
<path d="M543.25 239.436C543.25 240.126 542.69 240.686 542 240.686C541.309 240.686 540.75 240.126 540.75 239.436C540.75 238.745 541.309 238.186 542 238.186C542.69 238.186 543.25 238.745 543.25 239.436ZM537.848 272.57C537.819 272.484 537.819 272.39 537.848 272.304C538.426 270.565 540.067 269.311 542 269.311C543.932 269.311 545.572 270.563 546.151 272.301C546.18 272.388 546.18 272.481 546.152 272.567C545.573 274.306 543.933 275.561 541.999 275.561C540.067 275.561 538.427 274.308 537.848 272.57Z" stroke="#CBD5E1" stroke-width="0.625" stroke-linecap="round" stroke-linejoin="round"/>
<path d="M543.25 272.436C543.25 273.126 542.69 273.686 542 273.686C541.309 273.686 540.75 273.126 540.75 272.436C540.75 271.745 541.309 271.186 542 271.186C542.69 271.186 543.25 271.745 543.25 272.436Z" stroke="#CBD5E1" stroke-width="0.625" stroke-linecap="round" stroke-linejoin="round"/>
<g opacity="0.25">
<path d="M537.848 304.57C537.819 304.484 537.819 304.39 537.848 304.304C538.426 302.565 540.067 301.311 542 301.311C543.932 301.311 545.572 302.563 546.151 304.301C546.18 304.388 546.18 304.481 546.152 304.567C545.573 306.306 543.933 307.561 541.999 307.561C540.067 307.561 538.427 306.308 537.848 304.57Z" stroke="#CBD5E1" stroke-width="0.625" stroke-linecap="round" stroke-linejoin="round"/>
<path d="M543.25 304.436C543.25 305.126 542.69 305.686 542 305.686C541.309 305.686 540.75 305.126 540.75 304.436C540.75 303.745 541.309 303.186 542 303.186C542.69 303.186 543.25 303.745 543.25 304.436Z" stroke="#CBD5E1" stroke-width="0.625" stroke-linecap="round" stroke-linejoin="round"/>
</g>
<path opacity="0.25" d="M562.143 303.186L561.998 306.936M560.003 306.936L559.858 303.186M564.013 301.848C564.155 301.87 564.296 301.893 564.438 301.917M564.013 301.848L563.568 307.632C563.53 308.121 563.123 308.498 562.633 308.498H559.368C558.878 308.498 558.471 308.121 558.433 307.632L557.988 301.848M564.013 301.848C563.535 301.776 563.051 301.721 562.563 301.683M557.988 301.848C557.846 301.87 557.705 301.893 557.562 301.917M557.988 301.848C558.466 301.776 558.949 301.721 559.438 301.683M562.563 301.683V301.301C562.563 300.81 562.184 300.4 561.693 300.384C561.463 300.377 561.232 300.373 561 300.373C560.768 300.373 560.538 300.377 560.308 300.384C559.817 300.4 559.438 300.81 559.438 301.301V301.683M562.563 301.683C562.047 301.643 561.526 301.623 561 301.623C560.474 301.623 559.953 301.643 559.438 301.683" stroke="#F87171" stroke-width="0.625" stroke-linecap="round" stroke-linejoin="round"/>
<path opacity="0.82" d="M562.143 271.186L561.998 274.936M560.003 274.936L559.858 271.186M564.013 269.848C564.155 269.87 564.296 269.893 564.438 269.917M564.013 269.848L563.568 275.632C563.53 276.121 563.123 276.498 562.633 276.498H559.368C558.878 276.498 558.471 276.121 558.433 275.632L557.988 269.848M564.013 269.848C563.535 269.776 563.051 269.721 562.563 269.683M557.988 269.848C557.846 269.87 557.705 269.893 557.562 269.917M557.988 269.848C558.466 269.776 558.949 269.721 559.438 269.683M562.563 269.683V269.301C562.563 268.81 562.184 268.4 561.693 268.384C561.463 268.377 561.232 268.373 561 268.373C560.768 268.373 560.538 268.377 560.308 268.384C559.817 268.4 559.438 268.81 559.438 269.301V269.683M562.563 269.683C562.047 269.643 561.526 269.623 561 269.623C560.474 269.623 559.953 269.643 559.438 269.683M562.143 238.186L561.998 241.936M560.003 241.936L559.858 238.186M564.013 236.848C564.155 236.87 564.296 236.893 564.438 236.917M564.013 236.848L563.568 242.632C563.53 243.121 563.123 243.498 562.633 243.498H559.368C558.878 243.498 558.471 243.121 558.433 242.632L557.988 236.848M564.013 236.848C563.535 236.776 563.051 236.721 562.563 236.683M557.988 236.848C557.846 236.87 557.705 236.893 557.562 236.917M557.988 236.848C558.466 236.776 558.949 236.721 559.438 236.683M562.563 236.683V236.301C562.563 235.81 562.184 235.4 561.693 235.384C561.463 235.377 561.232 235.373 561 235.373C560.768 235.373 560.538 235.377 560.308 235.384C559.817 235.4 559.438 235.81 559.438 236.301V236.683M562.563 236.683C562.047 236.643 561.526 236.623 561 236.623C560.474 236.623 559.953 236.643 559.438 236.683M562.143 207.186L561.998 210.936M560.003 210.936L559.858 207.186M564.013 205.848C564.155 205.87 564.296 205.893 564.438 205.917M564.013 205.848L563.568 211.632C563.53 212.121 563.123 212.498 562.633 212.498H559.368C558.878 212.498 558.471 212.121 558.433 211.632L557.988 205.848M564.013 205.848C563.535 205.776 563.051 205.721 562.563 205.683M557.988 205.848C557.846 205.87 557.705 205.893 557.562 205.917M557.988 205.848C558.466 205.776 558.949 205.721 559.438 205.683M562.563 205.683V205.301C562.563 204.81 562.184 204.4 561.693 204.384C561.463 204.377 561.232 204.373 561 204.373C560.768 204.373 560.538 204.377 560.308 204.384C559.817 204.4 559.438 204.81 559.438 205.301V205.683M562.563 205.683C562.047 205.643 561.526 205.623 561 205.623C560.474 205.623 559.953 205.643 559.438 205.683M562.143 176.186L561.998 179.936M560.003 179.936L559.858 176.186M564.013 174.848C564.155 174.87 564.296 174.893 564.438 174.917M564.013 174.848L563.568 180.632C563.53 181.121 563.123 181.498 562.633 181.498H559.368C558.878 181.498 558.471 181.121 558.433 180.632L557.988 174.848M564.013 174.848C563.535 174.776 563.051 174.721 562.563 174.683M557.988 174.848C557.846 174.87 557.705 174.893 557.562 174.917M557.988 174.848C558.466 174.776 558.949 174.721 559.438 174.683M562.563 174.683V174.301C562.563 173.81 562.184 173.4 561.693 173.384C561.463 173.377 561.232 173.373 561 173.373C560.768 173.373 560.538 173.377 560.308 173.384C559.817 173.4 559.438 173.81 559.438 174.301V174.683M562.563 174.683C562.047 174.643 561.526 174.623 561 174.623C560.474 174.623 559.953 174.643 559.438 174.683M562.143 145.186L561.998 148.936M560.003 148.936L559.858 145.186M564.013 143.848C564.155 143.87 564.296 143.893 564.438 143.917M564.013 143.848L563.568 149.632C563.53 150.121 563.123 150.498 562.633 150.498H559.368C558.878 150.498 558.471 150.121 558.433 149.632L557.988 143.848M564.013 143.848C563.535 143.776 563.051 143.721 562.563 143.683M557.988 143.848C557.846 143.87 557.705 143.893 557.562 143.917M557.988 143.848C558.466 143.776 558.949 143.721 559.438 143.683M562.563 143.683V143.301C562.563 142.81 562.184 142.4 561.693 142.384C561.463 142.377 561.232 142.373 561 142.373C560.768 142.373 560.538 142.377 560.308 142.384C559.817 142.4 559.438 142.81 559.438 143.301V143.683M562.563 143.683C562.047 143.643 561.526 143.623 561 143.623C560.474 143.623 559.953 143.643 559.438 143.683M562.143 112.186L561.998 115.936M560.003 115.936L559.858 112.186M564.013 110.848C564.155 110.87 564.296 110.893 564.438 110.917M564.013 110.848L563.568 116.632C563.53 117.121 563.123 117.498 562.633 117.498H559.368C558.878 117.498 558.471 117.121 558.433 116.632L557.988 110.848M564.013 110.848C563.535 110.776 563.051 110.721 562.563 110.683M557.988 110.848C557.846 110.87 557.705 110.893 557.562 110.917M557.988 110.848C558.466 110.776 558.949 110.721 559.438 110.683M562.563 110.683V110.301C562.563 109.81 562.184 109.4 561.693 109.384C561.463 109.377 561.232 109.373 561 109.373C560.768 109.373 560.538 109.377 560.308 109.384C559.817 109.4 559.438 109.81 559.438 110.301V110.683M562.563 110.683C562.047 110.643 561.526 110.623 561 110.623C560.474 110.623 559.953 110.643 559.438 110.683" stroke="#F87171" stroke-width="0.625" stroke-linecap="round" stroke-linejoin="round"/>
<path d="M405.625 87.3105L406.875 88.5605M406.875 88.5605L408.125 87.3105M406.875 88.5605V82.3105M404.375 83.5605L403.125 82.3105M403.125 82.3105L401.875 83.5605M403.125 82.3105V88.5605M470.625 87.3105L471.875 88.5605M471.875 88.5605L473.125 87.3105M471.875 88.5605V82.3105M469.375 83.5605L468.125 82.3105M468.125 82.3105L466.875 83.5605M468.125 82.3105V88.5605" stroke="#E2E8F0" stroke-width="0.625" stroke-linecap="round" stroke-linejoin="round"/>
<path d="M32.6328 38.752L34.8268 40.9459L32.6328 43.1399M78.6328 38.752L80.8268 40.9459L78.6328 43.1399" stroke="#475569" stroke-width="0.438799" stroke-linecap="round" stroke-linejoin="round"/>
<path d="M553.021 10.4355H547.404C546.629 10.4355 546 11.0641 546 11.8396V17.4563C546 18.2318 546.629 18.8604 547.404 18.8604H553.021C553.796 18.8604 554.425 18.2318 554.425 17.4563V11.8396C554.425 11.0641 553.796 10.4355 553.021 10.4355Z" fill="#475569"/>
<path d="M569.871 10.4355H564.255C563.479 10.4355 562.851 11.0641 562.851 11.8396V17.4563C562.851 18.2318 563.479 18.8604 564.255 18.8604H569.871C570.647 18.8604 571.276 18.2318 571.276 17.4563V11.8396C571.276 11.0641 570.647 10.4355 569.871 10.4355Z" fill="#475569"/>
<path d="M502.191 54.7866H13.8079C12.4507 54.7866 11.3506 55.8868 11.3506 57.2439V67.6273C11.3506 68.9844 12.4507 70.0845 13.8079 70.0845H502.191C503.548 70.0845 504.649 68.9844 504.649 67.6273V57.2439C504.649 55.8868 503.548 54.7866 502.191 54.7866Z" stroke="#E2E8F0" stroke-opacity="0.08" stroke-width="0.702078"/>
<path d="M11 98H576.5M11 129.436H576.5M11 161.436H576.5M11 192.436H576.5M11 224.436H576.5M11 256.436H576.5M11 287.436H576.5" stroke="#E2E8F0" stroke-opacity="0.08"/>
</g>
</g>
<defs>
<clipPath id="clip0_224_2">
<rect width="581" height="310" fill="white"/>
</clipPath>
</defs>
</svg>
