<svg xmlns="http://www.w3.org/2000/svg" fill="none" viewBox="0 0 12 12">
  <path fill="#F6821E" d="m5.344 1.875-.488.75H2.25v6.75h2.175l-.131.75H1.875L1.5 9.75v-7.5l.375-.375h3.469Zm2.362 0h2.419l.375.375v7.5l-.375.375H6.656l.488-.75H9.75v-6.75H7.575l.131-.75Z"/>
  <path fill="#F6821E" d="M5.362 7.125H3.188l-.318-.581 3.9-6 .675.281-.806 4.05h2.175l.318.581-3.9 6-.675-.281.806-4.05ZM2.794 3.431a.263.263 0 1 0 0-.525.263.263 0 0 0 0 .525Zm.693 0a.263.263 0 1 0 0-.525.263.263 0 0 0 0 .525Zm.694 0a.263.263 0 1 0 0-.525.263.263 0 0 0 0 .525Z"/>
</svg>
