<svg xmlns="http://www.w3.org/2000/svg" fill="none" viewBox="0 0 12 12">
  <path fill="#F6821F" d="M3.347 5.968 1.599 4.263l-.483.495.797.778H.583a.433.433 0 1 0 0 .865h1.33l-.797.777.483.496 1.747-1.706Zm8.505 0-1.747-1.705-.483.495.796.778h-1.33a.433.433 0 1 0 0 .865h1.33l-.796.777.483.496 1.747-1.706ZM8.861 2.1H2.806a.433.433 0 1 0 0 .865H8.86a.433.433 0 0 0 0-.865Zm0 6.921H2.806a.433.433 0 1 0 0 .865H8.86a.433.433 0 0 0 0-.865ZM4.104 4.263c.238 0 .432.194.432.432v2.596a.433.433 0 0 1-.865 0V4.696c0-.24.194-.433.433-.433Zm1.73 0c.239 0 .432.194.432.432v2.596a.433.433 0 0 1-.865 0V4.696c0-.24.194-.433.433-.433Zm1.73 0c.239 0 .433.194.433.432v2.596a.433.433 0 0 1-.866 0V4.696c0-.24.194-.433.433-.433Z"/>
</svg>
