<svg xmlns="http://www.w3.org/2000/svg" fill="none" viewBox="0 0 12 12">
  <path fill="#F6821E" fill-rule="evenodd" d="M9.087 1.927c-.73-.244-1.788-.409-2.993-.409-1.206 0-2.264.165-2.993.409-.369.123-.61.252-.744.358a.599.599 0 0 0-.061.054c.015.052.058.119.168.201.157.119.412.235.77.336.71.2 1.718.307 2.86.307 1.141 0 2.15-.107 2.86-.307.358-.1.612-.217.77-.336.11-.082.152-.15.168-.2a.663.663 0 0 0-.061-.055c-.134-.106-.376-.235-.744-.358ZM3.015 3.614a3.894 3.894 0 0 1-.728-.276v1.317c0 .06.03.155.188.283.16.13.417.26.773.375.708.23 1.713.367 2.846.367s2.138-.137 2.846-.367c.355-.115.612-.246.773-.375.158-.128.187-.224.187-.282V3.338a3.881 3.881 0 0 1-.727.276c-.81.228-1.901.337-3.08.337-1.178 0-2.269-.109-3.078-.337Zm7.672 1.041V2.287c0-.85-2.056-1.537-4.593-1.537S1.5 1.438 1.5 2.287v7.426c0 .85 2.057 1.537 4.594 1.537 2.537 0 4.593-.688 4.593-1.537V4.655ZM9.9 5.74c-.21.118-.452.218-.713.303-.812.263-1.907.405-3.093.405-1.187 0-2.282-.142-3.094-.405a3.944 3.944 0 0 1-.712-.303v1.284c0 .059.029.154.187.283.16.13.417.26.773.375.708.23 1.713.367 2.846.367s2.138-.138 2.846-.367c.355-.115.612-.246.773-.375.158-.129.187-.224.187-.283V5.74ZM3 8.411a3.944 3.944 0 0 1-.712-.302v1.543a.598.598 0 0 0 .069.063c.134.105.375.235.744.358.729.244 1.787.409 2.993.409 1.205 0 2.263-.165 2.993-.409.368-.123.61-.253.744-.358a.61.61 0 0 0 .069-.063V8.11a3.91 3.91 0 0 1-.713.302c-.812.264-1.907.406-3.093.406-1.187 0-2.282-.143-3.094-.406ZM9.918 9.63l-.003.005c0-.002.002-.003.003-.005Zm-7.648 0 .002.005a.018.018 0 0 1-.002-.005Zm1.199-4.717a.39.39 0 0 0 .393-.384.39.39 0 0 0-.393-.385.389.389 0 0 0-.394.384.39.39 0 0 0 .394.385Zm.393 2.049a.39.39 0 0 1-.393.384.39.39 0 0 1-.394-.384.39.39 0 0 1 .394-.385.39.39 0 0 1 .393.385ZM3.47 9.713a.39.39 0 0 0 .393-.384.389.389 0 0 0-.393-.384.389.389 0 0 0-.394.384c0 .212.176.384.394.384Z" clip-rule="evenodd"/>
</svg>
