<svg xmlns="http://www.w3.org/2000/svg" fill="none" class="h-6" viewBox="0 0 1197 201">
  <path fill="#fff" d="M377 201c2.16 0 4-1.791 4-4v-93s5 9 14 24l39 67c1.785 3.74 5.744 6 9 6h27V51h-27c-1.798 0-4 1.494-4 4v94l-18-32-36-61c-1.752-3.109-5.521-5-9-5h-26v150h27ZM726 93h13a6 6 0 0 0 6-6V61h28v32h27v24h-27v43c0 10.5 5.057 15 14 15h13v26h-17c-23.052 0-38-14.929-38-40v-44h-19V93Zm-135 0v62c0 14.004-5.258 25.809-13 34-7.742 8.191-18.434 12-33 12-14.566 0-26.258-3.809-34-12-7.611-8.191-13-19.996-13-34V93h16c3.412 0 6.769.622 9 3 2.231 2.246 3 3.565 3 7v52c0 8.059.457 13.037 4 17 3.543 3.831 7.914 5 15 5 7.217 0 10.457-1.169 14-5 3.543-3.963 4-8.941 4-17v-52c0-3.435.769-5.622 3-8 1.96-2.09 4.028-2.04 7-2 .411.005 1.586 0 2 0h16Zm85 52 34-52h-26c-3.277 0-6.188 1.176-8 4l-16 24-15-23c-1.812-2.824-5.723-5-9-5h-25l34 51-37 57h26c3.25 0 6.182-3.213 8-6l18-27 19 28c1.818 2.787 4.75 5 8 5h26l-37-56Z"/>
  <path fill="#00DC82" fill-rule="evenodd" d="M102.799 3.54C106.33 1.545 110.324.5 114.382.5s8.052 1.045 11.582 3.04a23.106 23.106 0 0 1 8.542 8.365l18.242 30.957 15.801 25.576 6.644-11.625 1.841-3.237 6.518-11.388a23.1 23.1 0 0 1 8.538-8.367 23.544 23.544 0 0 1 11.582-3.04c4.057 0 8.051 1.045 11.581 3.04a23.092 23.092 0 0 1 8.538 8.367l18.389 31.18.016.001.998 1.718 53.65 90.966c0 .001-.001-.001 0 0A22.671 22.671 0 0 1 300 177.57a22.653 22.653 0 0 1-3.146 11.52 23.086 23.086 0 0 1-8.54 8.369 23.542 23.542 0 0 1-11.584 3.041H161.599l22.185-37.558h67.115l-47.233-80.075-48.126 81.565c-7.7 12.729-17.328 22.167-28.957 28.189l-.343.196c-3.193 1.817-7.516 4.034-11.665 5.334-4.093 1.283-10.624 1.835-15.77 2.097l-.577.029a92.894 92.894 0 0 1-6.48.223H23.465a23.544 23.544 0 0 1-11.584-3.041 23.09 23.09 0 0 1-8.54-8.369 22.657 22.657 0 0 1-3.146-11.52 22.663 22.663 0 0 1 3.155-11.515m0 0 30.633-51.944L50.55 85.006l20.668-34.032 23.04-39.068A23.11 23.11 0 0 1 102.8 3.54M40.782 116.789l35.88-60.84 33.808-10.913-65.291 110.696-4.397-38.943Zm-6.067 10.288-25.21 42.747a15.247 15.247 0 0 0-2.129 7.75 15.149 15.149 0 0 0 .557 4.074l31.052-16.751-4.27-37.82Zm6.98 44.638-30.2 16.291a16.006 16.006 0 0 0 3.87 3.055 16.469 16.469 0 0 0 8.099 2.122h32.817l-14.586-21.468Zm47.454 21.468h.26l.46-.002a195.16 195.16 0 0 0 7.966-.211c9.437-.673 17.865-2.946 25.357-6.801a91.737 91.737 0 0 0 2.93-1.764l-.953-30.109c-3.704 4.749-7.764 8.378-12.428 10.964-6.423 3.561-13.674 4.968-22.106 4.968l-41.222-.009 15.504 22.821 24.232.143Zm-39.821-30.281 41.307.009c7.649 0 13.618-1.275 18.674-4.078 5.045-2.797 9.497-7.291 13.825-14.273l22.734-38.556L114.41 52.56 49.328 162.902Zm100.051-48.644-17.594 29.838h22.236l-4.642-29.838Zm5.463 37.155h-22.579l.894 28.262c6.188-4.988 11.588-11.348 16.259-19.065l.01-.018 5.416-9.179Zm6.005-10.177 38.491-65.235-19.773-12.283-8.466 14.89-15.469 29.098 5.217 33.53Zm3.652-65.617-17.888-28.957-9.912-16.82-19.905 12.541 33.832 57.48 8.483-14.765.008-.014 5.382-9.465Zm-50.048-40.362 18.551-11.69-4.65-7.891a15.867 15.867 0 0 0-5.87-5.737 16.475 16.475 0 0 0-8.1-2.122c-2.852 0-5.646.735-8.101 2.122a15.944 15.944 0 0 0-4.782 4.132l12.952 21.186ZM97.273 20.998l-15.021 25.47 25.551-8.247-10.53-17.223Zm112.762 58.464 46.215 78.349 7.607-33.219-12.277-20.705-13.568-23.356-27.977-1.07Zm59.177 53.946-7.055 30.81h25.226l-18.171-30.81Zm22.35 38.127h-32.113l-28.571 21.648h45.853c2.852 0 5.646-.735 8.1-2.122a15.847 15.847 0 0 0 5.867-5.738 15.239 15.239 0 0 0 2.121-7.749 15.195 15.195 0 0 0-1.257-6.039Zm-68.258 18.268 25.794-19.544H198.69l24.614 19.544Zm-35.728-19.092 28.303 22.472h-41.577l13.274-22.472Zm46.033-97.67-15.973-27.084a15.854 15.854 0 0 0-5.867-5.737 16.149 16.149 0 0 0-1.378-.695l-2.629 32.527 25.847.989Zm-32.755-4.667 2.447-30.272a16.46 16.46 0 0 0-7.727 2.118 15.858 15.858 0 0 0-5.855 5.716l-6.546 11.454 17.681 10.984ZM1133.15 198.2c4.93 2.267 10.12 2.8 15.85 2.8 9.73 0 18.35-1.533 25.55-5.8 7.2-4.267 12.67-10.333 16.4-18.2 3.87-7.867 6.05-16.6 6.05-27 0-10.4-2.18-19.933-6.05-27.8-3.73-7.867-9.2-13.933-16.4-18.2-7.07-4.267-15.4-6.4-25-6.4-6.13 0-11.6 1.133-16.4 3.4-4.8 2.133-9.22 5.067-12.15 8.8V60.4h-20a8 8 0 0 0-8 8V201h28v-12c2.8 3.867 7.22 6.933 12.15 9.2Zm-6.4-28.2c-4.53-5.2-6.75-12-6.75-20.4 0-8.533 2.15-15.333 6.55-20.4 4.53-5.2 10.53-7.8 18-7.8 7.47 0 13.4 2.6 17.8 7.8 4.53 5.067 6.8 11.867 6.8 20.4 0 8.4-2.27 15.2-6.8 20.4-4.53 5.067-10.47 7.6-17.8 7.6s-13.27-2.533-17.8-7.6ZM950 201V61h-20a8 8 0 0 0-8 8v48h-54V61h-28v140h19.946a8 8 0 0 0 7.999-8.054L867.6 142H922v59h28Zm118-45.989v-62h-16l-.5.001c-.52.002-1.21.003-1.5 0l-.09-.002c-2.92-.04-4.97-.067-6.91 2.001-2.23 2.378-3 4.566-3 8v52c0 8.059-.46 13.037-4 17-3.54 3.832-6.78 5-14 5-7.09 0-11.46-1.168-15-5-3.54-3.963-4-8.941-4-17v-52c0-3.434-.77-4.754-3-7-2.231-2.377-5.588-3-9-3h-16v62c0 14.004 5.389 25.81 13 34 7.742 8.191 19.43 11.989 34 11.989s25.26-3.798 33-11.989c7.74-8.19 13-19.996 13-34Z" clip-rule="evenodd"/>
</svg>
